0
SECTION
2
HEADER
9
$INSUNITS
70
4
9
$ACADVER
1
AC1014
9
$HANDSEED
5
FFFF
0
ENDSEC
0
SECTION
2
TABLES
0
TABLE
2
VPORT
5
8
100
AcDbSymbolTable
0
ENDTAB
0
TABLE
2
LTYPE
5
5
100
AcDbSymbolTable
0
LTYPE
5
14
100
AcDbSymbolTableRecord
100
AcDbLinetypeTableRecord
2
BYBLOCK
70
0
0
LTYPE
5
15
100
AcDbSymbolTableRecord
100
AcDbLinetypeTableRecord
2
BYLAYER
70
0
0
ENDTAB
0
TABLE
2
LAYER
5
2
100
AcDbSymbolTable
70
2
0
LAYER
5
50
100
AcDbSymbolTableRecord
100
AcDbLayerTableRecord
2
0
70
0
6
CONTINUOUS
0
ENDTAB
0
TABLE
2
STYLE
5
3
100
AcDbSymbolTable
70
1
0
STYLE
5
11
100
AcDbSymbolTableRecord
100
AcDbTextStyleTableRecord
2
STANDARD
70
0
0
ENDTAB
0
TABLE
2
VIEW
5
6
100
AcDbSymbolTable
70
0
0
ENDTAB
0
TABLE
2
UCS
5
7
100
AcDbSymbolTable
70
0
0
ENDTAB
0
TABLE
2
APPID
5
9
100
AcDbSymbolTable
70
2
0
APPID
5
12
100
AcDbSymbolTableRecord
100
AcDbRegAppTableRecord
2
ACAD
70
0
0
ENDTAB
0
TABLE
2
DIMSTYLE
5
A
100
AcDbSymbolTable
70
1
0
ENDTAB
0
TABLE
2
BLOCK_RECORD
5
1
100
AcDbSymbolTable
70
1
0
BLOCK_RECORD
5
1F
100
AcDbSymbolTableRecord
100
AcDbBlockTableRecord
2
*MODEL_SPACE
0
BLOCK_RECORD
5
1B
100
AcDbSymbolTableRecord
100
AcDbBlockTableRecord
2
*PAPER_SPACE
0
ENDTAB
0
ENDSEC
0
SECTION
2
BLOCKS
0
BLOCK
5
20
100
AcDbEntity
100
AcDbBlockBegin
2
*MODEL_SPACE
0
ENDBLK
5
21
100
AcDbEntity
100
AcDbBlockEnd
0
BLOCK
5
1C
100
AcDbEntity
100
AcDbBlockBegin
2
*PAPER_SPACE
0
ENDBLK
5
1D
100
AcDbEntity
100
AcDbBlockEnd
0
ENDSEC
0
SECTION
2
ENTITIES
0
CIRCLE
5
100
100
AcDbEntity
8
0
100
AcDbCircle
10
5691.5249949025283
20
55.310782924200346
30
0
40
1.1000000000001364
210
0
220
0
230
1
0
LWPOLYLINE
5
101
100
AcDbEntity
8
0
100
AcDbPolyline
90
8
70
1
43
0.0
10
5685.5249949025292
20
-96.726731592177657
10
5685.5249949025292
20
207.34828402561681
42
0.41421356237269441
10
5683.5249949025283
20
209.34828402561698
10
5610.3749969022265
20
209.34828402561689
42
0.41421356237196599
10
5608.3749969022265
20
207.34828402561675
10
5608.3749969022265
20
-96.726731592177444
42
0.41421356237318346
10
5610.3749969022265
20
-98.726731592177828
10
5683.5249949025283
20
-98.726731592178112
42
0.41421356237272822
0
CIRCLE
5
102
100
AcDbEntity
8
0
100
AcDbCircle
10
5691.5249949025283
20
215.34828402561746
30
0
40
1.1000000000001364
210
0
220
0
230
1
0
CIRCLE
5
103
100
AcDbEntity
8
0
100
AcDbCircle
10
5602.3749949025469
20
55.310782924200346
30
0
40
1.1000000000001364
210
0
220
0
230
1
0
CIRCLE
5
104
100
AcDbEntity
8
0
100
AcDbCircle
10
5691.5249949025283
20
-104.72671817721563
30
0
40
1.1000000000001364
210
0
220
0
230
1
0
CIRCLE
5
105
100
AcDbEntity
8
0
100
AcDbCircle
10
5602.3749949025469
20
215.34828402561746
30
0
40
1.1000000000001364
210
0
220
0
230
1
0
CIRCLE
5
106
100
AcDbEntity
8
0
100
AcDbCircle
10
5602.3749949025469
20
-104.72671817721563
30
0
40
1.1000000000001364
210
0
220
0
230
1
0
LWPOLYLINE
5
107
100
AcDbEntity
8
0
100
AcDbPolyline
90
8
70
1
43
0.0
10
5691.5249949025283
20
-107.72671817721609
10
5602.3749949025469
20
-107.72671817721631
42
-0.41421356237309681
10
5599.374994902546
20
-104.72671817721562
10
5599.3749949025469
20
215.34828402561686
42
-0.41421356237315404
10
5602.3749949025469
20
218.34828402561712
10
5691.5249949025283
20
218.34828402561587
42
-0.41421356237309503
10
5694.5249949025265
20
215.34828402561746
10
5694.5249949025292
20
-104.72671817721559
42
-0.41421356237310025
0
CIRCLE
5
108
100
AcDbEntity
8
0
100
AcDbCircle
10
5589.3749949025414
20
-102.7267181772163
30
0
40
1.1000000000001364
210
0
220
0
230
1
0
CIRCLE
5
109
100
AcDbEntity
8
0
100
AcDbCircle
10
5589.3749949025414
20
57.310782924200794
30
0
40
1.1000000000001364
210
0
220
0
230
1
0
CIRCLE
5
110
100
AcDbEntity
8
0
100
AcDbCircle
10
5500.2249949025636
20
57.310782924200794
30
0
40
1.1000000000001364
210
0
220
0
230
1
0
CIRCLE
5
111
100
AcDbEntity
8
0
100
AcDbCircle
10
5500.2249949025636
20
217.34828402561675
30
0
40
1.1000000000001364
210
0
220
0
230
1
0
CIRCLE
5
112
100
AcDbEntity
8
0
100
AcDbCircle
10
5589.3749949025414
20
217.34828402561675
30
0
40
1.1000000000001364
210
0
220
0
230
1
0
CIRCLE
5
113
100
AcDbEntity
8
0
100
AcDbCircle
10
5500.2249949025636
20
-102.7267181772163
30
0
40
1.1000000000001364
210
0
220
0
230
1
0
LWPOLYLINE
5
114
100
AcDbEntity
8
0
100
AcDbPolyline
90
8
70
1
43
0.0
10
5591.3749949025432
20
222.34828402561664
42
-0.41421356237341761
10
5594.3749949025414
20
219.3482840256172
10
5594.374994902545
20
-104.72671817721577
42
-0.41421356237296669
10
5591.3749949025432
20
-107.72671817721628
10
5498.2249949025627
20
-107.72671817721647
42
-0.41421356237344537
10
5495.2249949025636
20
-104.72671817721562
10
5495.2249949025645
20
219.34828402561763
42
-0.41421356237275514
10
5498.2249949025627
20
222.34828402561709
0
CIRCLE
5
115
100
AcDbEntity
8
0
100
AcDbCircle
10
5396.0749949025821
20
217.34828402561675
30
0
40
2.4000000000000909
210
0
220
0
230
1
0
CIRCLE
5
116
100
AcDbEntity
8
0
100
AcDbCircle
10
5485.2249949025609
20
-102.7267181772163
30
0
40
2.4000000000000909
210
0
220
0
230
1
0
CIRCLE
5
117
100
AcDbEntity
8
0
100
AcDbCircle
10
5485.2249949025609
20
217.34828402561675
30
0
40
2.4000000000000909
210
0
220
0
230
1
0
CIRCLE
5
118
100
AcDbEntity
8
0
100
AcDbCircle
10
5396.0749949025821
20
57.310782924199657
30
0
40
2.4000000000000909
210
0
220
0
230
1
0
CIRCLE
5
119
100
AcDbEntity
8
0
100
AcDbCircle
10
5485.2249949025609
20
57.310782924199657
30
0
40
2.4000000000000909
210
0
220
0
230
1
0
CIRCLE
5
120
100
AcDbEntity
8
0
100
AcDbCircle
10
5396.0749949025821
20
-102.7267181772163
30
0
40
2.4000000000000909
210
0
220
0
230
1
0
LWPOLYLINE
5
121
100
AcDbEntity
8
0
100
AcDbPolyline
90
24
70
1
43
0.0
10
5480.2249949025636
20
-95.726718177215844
42
-0.41421356237274382
10
5478.2249949025627
20
-97.726718177215801
10
5403.0749949025812
20
-97.726718177216611
42
-0.41421356237314444
10
5401.0749949025821
20
-95.726718177216981
10
5401.0749949025821
20
187.39828149002503
42
0.41421356237158619
10
5400.0749949025803
20
188.39828149002528
10
5392.0749949025812
20
188.39828149002551
42
0.41421356237350088
10
5391.0749949025821
20
187.39828149002503
10
5391.0749949025812
20
-104.72671817721675
42
0.41421356237313495
10
5394.0749949025812
20
-107.72671817721745
10
5487.2249949025627
20
-107.72671817721672
42
0.41421356237325113
10
5490.2249949025609
20
-104.72671817721675
10
5490.22499490256
20
219.34828402561607
42
0.41421356237282797
10
5487.2249949025627
20
222.34828402561561
10
5394.0749949025803
20
222.34828402561658
42
0.41421356237295975
10
5391.0749949025785
20
219.34828402561612
10
5391.0749949025821
20
204.3982814900244
42
0.41421356237208568
10
5392.0749949025812
20
203.39828149002415
10
5400.0749949025803
20
203.39828149002582
42
0.41421356237328233
10
5401.0749949025785
20
204.3982814900244
10
5401.0749949025821
20
210.34828402561629
42
-0.41421356237293894
10
5403.0749949025812
20
212.34828402561675
10
5478.2249949025627
20
212.34828402561624
42
-0.41421356237268919
10
5480.2249949025636
20
210.34828402561629
0
CIRCLE
5
122
100
AcDbEntity
8
0
100
AcDbCircle
10
5381.0749949025821
20
57.310782924199657
30
0
40
2.4000000000000909
210
0
220
0
230
1
0
CIRCLE
5
123
100
AcDbEntity
8
0
100
AcDbCircle
10
5381.0749949025821
20
-102.7267181772163
30
0
40
2.4000000000000909
210
0
220
0
230
1
0
CIRCLE
5
124
100
AcDbEntity
8
0
100
AcDbCircle
10
5291.9249949026007
20
217.34828402561675
30
0
40
2.4000000000000909
210
0
220
0
230
1
0
CIRCLE
5
125
100
AcDbEntity
8
0
100
AcDbCircle
10
5291.9249949026007
20
-102.7267181772163
30
0
40
2.4000000000000909
210
0
220
0
230
1
0
CIRCLE
5
126
100
AcDbEntity
8
0
100
AcDbCircle
10
5291.9249949026007
20
57.310782924199657
30
0
40
2.4000000000000909
210
0
220
0
230
1
0
CIRCLE
5
127
100
AcDbEntity
8
0
100
AcDbCircle
10
5381.0749949025821
20
217.34828402561675
30
0
40
2.4000000000000909
210
0
220
0
230
1
0
LWPOLYLINE
5
128
100
AcDbEntity
8
0
100
AcDbPolyline
90
24
70
1
43
0.0
10
5383.0749949025812
20
-107.72671817721651
10
5289.9249949025998
20
-107.72671817721687
42
-0.41421356237326151
10
5286.9249949025998
20
-104.72671817721675
10
5286.9249949026007
20
187.39828149002503
42
-0.41421356237306384
10
5287.9249949026007
20
188.39828149002514
10
5295.9249949025998
20
188.39828149002557
42
-0.41421356237285573
10
5296.9249949026016
20
187.39828149002503
10
5296.9249949026007
20
-95.726718177215844
42
0.41421356237294937
10
5298.9249949025998
20
-97.726718177216512
10
5374.0749949025812
20
-97.726718177215801
42
0.41421356237272045
10
5376.0749949025821
20
-95.726718177215844
10
5376.0749949025821
20
210.34828402561604
42
0.41421356237341761
10
5374.0749949025803
20
212.34828402561621
10
5298.9249949025998
20
212.34828402561632
42
0.41421356237309503
10
5296.9249949026007
20
210.34828402561629
10
5296.9249949026007
20
204.39828149002449
42
-0.41421356237342799
10
5295.9249949025998
20
203.3982814900254
10
5287.9249949026007
20
203.39828149002386
42
-0.41421356237285573
10
5286.9249949025998
20
204.3982814900244
10
5286.9249949026007
20
219.34828402561612
42
-0.41421356237312623
10
5289.9249949025998
20
222.34828402561601
10
5383.0749949025812
20
222.34828402561558
42
-0.41421356237341761
10
5386.0749949025821
20
219.34828402561612
10
5386.0749949025821
20
-104.7267181772169
42
-0.41421356237276724
0
CIRCLE
5
129
100
AcDbEntity
8
0
100
AcDbCircle
10
5187.7749949026202
20
-102.7267181772163
30
0
40
2.4000000000000909
210
0
220
0
230
1
0
CIRCLE
5
130
100
AcDbEntity
8
0
100
AcDbCircle
10
5276.9249949026007
20
217.34828402561675
30
0
40
2.4000000000000909
210
0
220
0
230
1
0
CIRCLE
5
131
100
AcDbEntity
8
0
100
AcDbCircle
10
5187.7749949026202
20
217.34828402561675
30
0
40
2.4000000000000909
210
0
220
0
230
1
0
CIRCLE
5
132
100
AcDbEntity
8
0
100
AcDbCircle
10
5276.9249949026007
20
-102.7267181772163
30
0
40
2.4000000000000909
210
0
220
0
230
1
0
LWPOLYLINE
5
133
100
AcDbEntity
8
0
100
AcDbPolyline
90
56
70
1
43
0.0
10
5192.7749949026202
20
210.34828402561746
42
-0.41421356237327195
10
5194.7749949026193
20
212.3482840256176
10
5206.5499949026107
20
212.34828402561652
42
0.41421356237203366
10
5207.5499949026098
20
213.34828402561655
10
5207.5499949026098
20
216.34828402561649
42
-0.41421356237300139
10
5208.5499949026098
20
217.34828402561644
10
5256.1499949026093
20
217.34828402561558
42
-0.41421356237344881
10
5257.1499949026102
20
216.34828402561641
10
5257.1499949026102
20
213.34828402561698
42
0.4142135623730534
10
5258.1499949026102
20
212.34828402561675
10
5269.9249949025998
20
212.34828402561632
42
-0.41421356237288692
10
5271.9249949026007
20
210.34828402561729
10
5271.9249949026007
20
171.44828289407087
42
0.41421356237408358
10
5272.9249949026007
20
170.44828289406954
10
5275.9249949025998
20
170.44828289406954
42
-0.41421356237345924
10
5276.9249949026007
20
169.44828289407036
10
5276.9249949026007
20
121.84828289407051
42
-0.41421356237300661
10
5275.9249949025998
20
120.84828289407049
10
5272.9249949026007
20
120.8482828940696
42
0.41421356237359452
10
5271.9249949026007
20
119.84828289406994
10
5271.9249949026007
20
-36.12671804566844
42
0.41421356237304302
10
5272.9249949026007
20
-37.126718045668667
10
5275.9249949025998
20
-37.126718045669726
42
-0.41421356237346052
10
5276.9249949026007
20
-38.12671804566893
10
5276.9249949026007
20
-85.72671804566879
42
-0.41421356237301699
10
5275.9249949025998
20
-86.726718045668832
10
5272.9249949026007
20
-86.726718045669685
42
0.41421356237357371
10
5271.9249949026007
20
-87.726718045669273
10
5271.9249949026007
20
-95.726718177215844
42
-0.414213562372723
10
5269.9249949025998
20
-97.726718177215886
10
5258.1499949026102
20
-97.726718177216569
42
0.41421356237370899
10
5257.1499949026111
20
-98.726718177215474
10
5257.1499949026111
20
-101.72671817721607
42
-0.4142135623726424
10
5256.1499949026093
20
-102.72671817721624
10
5208.5499949026098
20
-102.72671817721552
42
-0.41421356237345403
10
5207.5499949026098
20
-101.72671817721634
10
5207.5499949026089
20
-98.726718177215403
42
0.4142135623733656
10
5206.5499949026107
20
-97.726718177216298
10
5194.7749949026193
20
-97.726718177215716
42
-0.41421356237269441
10
5192.7749949026193
20
-95.726718177215716
10
5192.7749949026202
20
-87.726718045669273
42
0.41421356237254353
10
5191.7749949026202
20
-86.726718045669017
10
5188.7749949026193
20
-86.726718045668719
42
-0.41421356237188278
10
5187.7749949026202
20
-85.726718045669216
10
5187.7749949026193
20
-38.126718045668895
42
-0.41421356237358148
10
5188.7749949026193
20
-37.12671804566881
10
5191.7749949026202
20
-37.126718045669442
42
0.41421356237203105
10
5192.7749949026202
20
-36.126718045668298
10
5192.7749949026202
20
119.84828289407005
42
0.41421356237431251
10
5191.7749949026202
20
120.84828289407028
10
5188.7749949026193
20
120.84828289407139
42
-0.41421356237346446
10
5187.7749949026193
20
121.84828289407059
10
5187.7749949026202
20
169.44828289407042
42
-0.4142135623719192
10
5188.7749949026193
20
170.44828289407042
10
5191.7749949026202
20
170.44828289406985
42
0.41421356237236662
10
5192.7749949026202
20
171.44828289406988
0
CIRCLE
5
134
100
AcDbEntity
8
0
100
AcDbCircle
10
5276.9249949026007
20
57.310782924200794
30
0
40
2.4000000000000909
210
0
220
0
230
1
0
CIRCLE
5
135
100
AcDbEntity
8
0
100
AcDbCircle
10
5187.7749949026202
20
57.310782924200794
30
0
40
2.4000000000000909
210
0
220
0
230
1
0
LWPOLYLINE
5
136
100
AcDbEntity
8
0
100
AcDbPolyline
90
8
70
1
43
0.0
10
5281.9249949026007
20
219.3482840256172
10
5281.9249949026007
20
-104.72671817721562
42
-0.41421356237311063
10
5278.9249949025998
20
-107.72671817721645
10
5185.7749949026211
20
-107.72671817721471
42
-0.41421356237293894
10
5182.7749949026202
20
-104.72671817721562
10
5182.7749949026202
20
219.34828402561735
42
-0.41421356237310542
10
5185.7749949026211
20
222.3482840256159
10
5278.9249949025998
20
222.34828402561763
42
-0.41421356237329271
0
CIRCLE
5
137
100
AcDbEntity
8
0
100
AcDbCircle
10
5083.6249949026396
20
-102.7267181772163
30
0
40
2.4000000000000909
210
0
220
0
230
1
0
LWPOLYLINE
5
138
100
AcDbEntity
8
0
100
AcDbPolyline
90
56
70
1
43
0.0
10
5103.3999949026284
20
213.34828402561664
42
-0.414213562372658
10
5102.3999949026284
20
212.34828402561675
10
5090.6249949026387
20
212.34828402561675
42
0.41421356237328233
10
5088.6249949026396
20
210.34828402561746
10
5088.6249949026378
20
171.44828289406988
42
-0.41421356237309503
10
5087.6249949026387
20
170.44828289407079
10
5084.6249949026387
20
170.4482828940705
42
0.41421356237273083
10
5083.6249949026396
20
169.44828289407042
10
5083.6249949026387
20
121.84828289407056
42
0.41421356237269963
10
5084.6249949026387
20
120.84828289407049
10
5087.6249949026387
20
120.84828289407028
42
-0.41421356237292856
10
5088.6249949026396
20
119.84828289407005
10
5088.6249949026396
20
-36.126718045668298
42
-0.4142135623730443
10
5087.6249949026387
20
-37.126718045668916
10
5084.6249949026387
20
-37.12671804566881
42
0.41421356237272561
10
5083.6249949026396
20
-38.126718045668895
10
5083.6249949026387
20
-85.726718045668918
42
0.41421356237269441
10
5084.6249949026387
20
-86.726718045669003
10
5087.6249949026387
20
-86.726718045669031
42
-0.41421356237293372
10
5088.6249949026396
20
-87.726718045669273
10
5088.6249949026387
20
-95.726718177216199
42
0.41421356237269441
10
5090.6249949026387
20
-97.726718177216355
10
5102.3999949026284
20
-97.726718177215886
42
-0.41421356237288692
10
5103.3999949026284
20
-98.726718177215403
10
5103.3999949026284
20
-101.72671817721634
42
0.41421356237312101
10
5104.3999949026284
20
-102.72671817721604
10
5151.9999949026296
20
-102.72671817721616
42
0.41421356237244467
10
5152.9999949026296
20
-101.72671817721607
10
5152.9999949026314
20
-98.726718177215474
42
-0.41421356237326673
10
5153.9999949026296
20
-97.726718177216938
10
5165.7749949026211
20
-97.726718177215943
42
0.4142135623732745
10
5167.7749949026202
20
-95.726718177215844
10
5167.7749949026193
20
-87.726718045669244
42
-0.41421356237357371
10
5168.7749949026193
20
-86.726718045669656
10
5171.7749949026202
20
-86.726718045668903
42
0.41421356237244467
10
5172.7749949026202
20
-85.72671804566879
10
5172.7749949026202
20
-38.126718045669008
42
0.41421356237193868
10
5171.7749949026202
20
-37.126718045668255
10
5168.7749949026193
20
-37.12671804566731
42
-0.41421356237369727
10
5167.7749949026202
20
-36.12671804566844
10
5167.7749949026193
20
119.84828289407017
42
-0.41421356237303258
10
5168.7749949026193
20
120.84828289407017
10
5171.7749949026202
20
120.84828289407056
42
0.41421356237289214
10
5172.7749949026193
20
121.84828289407051
10
5172.7749949026202
20
169.44828289407053
42
0.41421356237194001
10
5171.7749949026202
20
170.44828289407127
10
5168.7749949026193
20
170.44828289407042
42
-0.41421356237382345
10
5167.7749949026193
20
171.44828289407087
10
5167.7749949026202
20
210.34828402561661
42
0.41421356237301699
10
5165.7749949026211
20
212.34828402561709
10
5153.9999949026296
20
212.34828402561709
42
-0.41421356237432289
10
5152.9999949026296
20
213.34828402561698
10
5152.9999949026296
20
216.34828402561669
42
0.41421356237192958
10
5151.9999949026296
20
217.34828402561737
10
5104.3999949026284
20
217.34828402561661
42
0.41421356237294937
10
5103.3999949026284
20
216.34828402561649
0
CIRCLE
5
139
100
AcDbEntity
8
0
100
AcDbCircle
10
5083.6249949026396
20
57.310782924200794
30
0
40
2.4000000000000909
210
0
220
0
230
1
0
CIRCLE
5
140
100
AcDbEntity
8
0
100
AcDbCircle
10
5083.6249949026396
20
217.34828402561675
30
0
40
2.4000000000000909
210
0
220
0
230
1
0
CIRCLE
5
141
100
AcDbEntity
8
0
100
AcDbCircle
10
5172.7749949026202
20
57.310782924200794
30
0
40
2.4000000000000909
210
0
220
0
230
1
0
CIRCLE
5
142
100
AcDbEntity
8
0
100
AcDbCircle
10
5172.7749949026202
20
217.34828402561675
30
0
40
2.4000000000000909
210
0
220
0
230
1
0
CIRCLE
5
143
100
AcDbEntity
8
0
100
AcDbCircle
10
5172.7749949026202
20
-102.7267181772163
30
0
40
2.4000000000000909
210
0
220
0
230
1
0
LWPOLYLINE
5
144
100
AcDbEntity
8
0
100
AcDbPolyline
90
8
70
1
43
0.0
10
5081.6249949026396
20
-107.72671817721566
42
-0.41421356237314183
10
5078.6249949026405
20
-104.72671817721562
10
5078.6249949026396
20
219.34828402561743
42
-0.41421356237300488
10
5081.6249949026396
20
222.34828402561661
10
5174.7749949026193
20
222.3482840256184
42
-0.41421356237281065
10
5177.7749949026211
20
219.3482840256172
10
5177.7749949026202
20
-104.72671817721556
42
-0.41421356237330315
10
5174.7749949026193
20
-107.7267181772161
0
CIRCLE
5
145
100
AcDbEntity
8
0
100
AcDbCircle
10
5068.6249949026396
20
217.34828402561675
30
0
40
2.4000000000000909
210
0
220
0
230
1
0
CIRCLE
5
146
100
AcDbEntity
8
0
100
AcDbCircle
10
5068.6249949026396
20
57.310782924200794
30
0
40
2.4000000000000909
210
0
220
0
230
1
0
CIRCLE
5
147
100
AcDbEntity
8
0
100
AcDbCircle
10
4979.4749949026582
20
-102.7267181772163
30
0
40
2.4000000000000909
210
0
220
0
230
1
0
CIRCLE
5
148
100
AcDbEntity
8
0
100
AcDbCircle
10
4979.4749949026582
20
57.310782924200794
30
0
40
2.4000000000000909
210
0
220
0
230
1
0
CIRCLE
5
149
100
AcDbEntity
8
0
100
AcDbCircle
10
5068.6249949026396
20
-102.7267181772163
30
0
40
2.4000000000000909
210
0
220
0
230
1
0
CIRCLE
5
150
100
AcDbEntity
8
0
100
AcDbCircle
10
4979.4749949026582
20
217.34828402561675
30
0
40
2.4000000000000909
210
0
220
0
230
1
0
LWPOLYLINE
5
151
100
AcDbEntity
8
0
100
AcDbPolyline
90
8
70
1
43
0.0
10
5063.6249949026396
20
-95.726718177215844
10
5063.6249949026396
20
210.34828402561746
42
0.41421356237295454
10
5061.6249949026405
20
212.34828402561706
10
4986.4749949026591
20
212.34828402561746
42
0.41421356237353207
10
4984.4749949026591
20
210.34828402561746
10
4984.4749949026591
20
-95.726718177215773
42
0.41421356237299356
10
4986.4749949026591
20
-97.726718177216227
10
5061.6249949026396
20
-97.726718177215943
42
0.41421356237306639
0
LWPOLYLINE
5
152
100
AcDbEntity
8
0
100
AcDbPolyline
90
8
70
1
43
0.0
10
5073.6249949026396
20
-104.72671817721562
42
-0.41421356237308293
10
5070.6249949026387
20
-107.72671817721617
10
4977.4749949026582
20
-107.72671817721566
42
-0.41421356237314361
10
4974.4749949026591
20
-104.72671817721562
10
4974.4749949026591
20
219.34828402561735
42
-0.41421356237310197
10
4977.4749949026582
20
222.34828402561641
10
5070.6249949026387
20
222.34828402561755
42
-0.41421356237311585
10
5073.6249949026405
20
219.3482840256172
0
CIRCLE
5
153
100
AcDbEntity
8
0
100
AcDbCircle
10
5055.1250032459466
20
-88.226732814463276
30
0
40
1.1000000000001364
210
0
220
0
230
1
0
CIRCLE
5
154
100
AcDbEntity
8
0
100
AcDbCircle
10
5055.1250010595577
20
-16.076726814462745
30
0
40
1.1000020000039967
210
0
220
0
230
1
0
CIRCLE
5
155
100
AcDbEntity
8
0
100
AcDbCircle
10
5042.1750285047383
20
-33.101651737050588
30
0
40
13.000000000000114
210
0
220
0
230
1
0
CIRCLE
5
156
100
AcDbEntity
8
0
100
AcDbCircle
10
5029.2250010595571
20
-16.076727240346145
30
0
40
1.1000000000018417
210
0
220
0
230
1
0
CIRCLE
5
157
100
AcDbEntity
8
0
100
AcDbCircle
10
5029.225003245946
20
-88.226730240346583
30
0
40
1.1000000000069574
210
0
220
0
230
1
0
LWPOLYLINE
5
158
100
AcDbEntity
8
0
100
AcDbPolyline
90
8
70
1
43
0.0
10
5057.6250032459466
20
-15.576725248567982
10
5057.6250032459466
20
-88.726731592178098
42
-0.41421356237316787
10
5055.6250032459457
20
-90.726731592177913
10
5028.7249990513374
20
-90.726731592178709
42
-0.41421356237308721
10
5026.7249990513374
20
-88.726731592178311
10
5026.7249990513374
20
-15.576725248568053
42
-0.41421356237300266
10
5028.7249990513374
20
-13.576725248568797
10
5055.6250032459457
20
-13.576725248568131
42
-0.41421356237284007
0
CIRCLE
5
159
100
AcDbEntity
8
0
100
AcDbCircle
10
5018.874998910559
20
-16.076726814465019
30
0
40
1.1000020000039967
210
0
220
0
230
1
0
CIRCLE
5
160
100
AcDbEntity
8
0
100
AcDbCircle
10
4992.9750010969483
20
-88.226730240347706
30
0
40
1.1000000000069574
210
0
220
0
230
1
0
CIRCLE
5
161
100
AcDbEntity
8
0
100
AcDbCircle
10
4992.9749989105594
20
-16.076727240348418
30
0
40
1.1000000000018417
210
0
220
0
230
1
0
CIRCLE
5
162
100
AcDbEntity
8
0
100
AcDbCircle
10
5005.9250263557378
20
-33.101651737051725
30
0
40
9.4999999999998863
210
0
220
0
230
1
0
CIRCLE
5
163
100
AcDbEntity
8
0
100
AcDbCircle
10
5018.8750010969479
20
-88.226732814464413
30
0
40
1.1000000000001364
210
0
220
0
230
1
0
LWPOLYLINE
5
164
100
AcDbEntity
8
0
100
AcDbPolyline
90
8
70
1
43
0.0
10
5019.3750010969488
20
-13.576725248570119
42
-0.41421356237271556
10
5021.3750010969479
20
-15.576725248570256
10
5021.3750010969488
20
-88.726731592178993
42
-0.41421356237335777
10
5019.3750010969488
20
-90.726731592179547
10
4992.4749969023369
20
-90.726731592179348
42
-0.41421356237271262
10
4990.4749969023378
20
-88.726731592179235
10
4990.4749969023378
20
-15.576725248570185
42
-0.41421356237303192
10
4992.4749969023369
20
-13.576725248569591
0
CIRCLE
5
165
100
AcDbEntity
8
0
100
AcDbCircle
10
5018.8749989105609
20
66.073279529144159
30
0
40
1.1000020000039967
210
-0
220
0
230
1
0
CIRCLE
5
166
100
AcDbEntity
8
0
100
AcDbCircle
10
4992.9750010969483
20
-6.0767238967381854
30
0
40
1.1000000000069574
210
-0
220
0
230
1
0
CIRCLE
5
167
100
AcDbEntity
8
0
100
AcDbCircle
10
4992.9749989105603
20
66.073279103261086
30
0
40
1.1000000000018417
210
-0
220
0
230
1
0
CIRCLE
5
168
100
AcDbEntity
8
0
100
AcDbCircle
10
5018.8750010969479
20
-6.0767264708552338
30
0
40
1.1000000000001364
210
-0
220
0
230
1
0
LWPOLYLINE
5
169
100
AcDbEntity
8
0
100
AcDbPolyline
90
8
70
1
43
0.0
10
5019.3750010969497
20
68.57328109503905
42
-0.41421356237271911
10
5021.3750010969497
20
66.573281095038894
10
5021.3750010969488
20
-6.5767252485698275
42
-0.41421356237335777
10
5019.3750010969488
20
-8.5767252485703711
10
4992.4749969023369
20
-8.5767252485698204
42
-0.41421356237271684
10
4990.4749969023378
20
-6.5767252485696748
10
4990.4749969023387
20
66.573281095039349
42
-0.41421356237303131
10
4992.4749969023387
20
68.573281095039945
0
ENDSEC
0
SECTION
2
OBJECTS
0
DICTIONARY
5
C
100
AcDbDictionary
3
ACAD_GROUP
350
D
3
ACAD_MLINESTYLE
350
17
0
DICTIONARY
5
D
100
AcDbDictionary
0
DICTIONARY
5
1A
330
C
100
AcDbDictionary
0
DICTIONARY
5
17
100
AcDbDictionary
0
ENDSEC
0
EOF
