G04 #@! TF.GenerationSoftware,KiCad,Pcbnew,(5.1.10)-1*
G04 #@! TF.CreationDate,2022-03-21T16:41:14+02:00*
G04 #@! TF.ProjectId,Verdantrev01,56657264-616e-4747-9265-7630312e6b69,rev?*
G04 #@! TF.SameCoordinates,Original*
G04 #@! TF.FileFunction,Legend,Top*
G04 #@! TF.FilePolarity,Positive*
%FSLAX46Y46*%
G04 Gerber Fmt 4.6, Leading zero omitted, Abs format (unit mm)*
G04 Created by KiCad (PCBNEW (5.1.10)-1) date 2022-03-21 16:41:14*
%MOMM*%
%LPD*%
G01*
G04 APERTURE LIST*
%ADD10C,0.300000*%
%ADD11C,0.150000*%
%ADD12C,0.200000*%
%ADD13O,1.600000X2.000000*%
%ADD14C,2.000000*%
%ADD15O,2.000000X3.400000*%
%ADD16R,2.000000X2.000000*%
%ADD17R,1.752600X1.752600*%
%ADD18C,1.752600*%
%ADD19C,3.987800*%
%ADD20C,1.750000*%
%ADD21C,3.048000*%
%ADD22R,1.200000X1.200000*%
%ADD23R,1.600000X1.600000*%
%ADD24C,1.600000*%
%ADD25C,4.400000*%
G04 APERTURE END LIST*
D10*
X148526785Y-80141071D02*
X148241071Y-80141071D01*
X148098214Y-80212500D01*
X148026785Y-80283928D01*
X147883928Y-80498214D01*
X147812500Y-80783928D01*
X147812500Y-81355357D01*
X147883928Y-81498214D01*
X147955357Y-81569642D01*
X148098214Y-81641071D01*
X148383928Y-81641071D01*
X148526785Y-81569642D01*
X148598214Y-81498214D01*
X148669642Y-81355357D01*
X148669642Y-80998214D01*
X148598214Y-80855357D01*
X148526785Y-80783928D01*
X148383928Y-80712500D01*
X148098214Y-80712500D01*
X147955357Y-80783928D01*
X147883928Y-80855357D01*
X147812500Y-80998214D01*
X149312500Y-81498214D02*
X149383928Y-81569642D01*
X149312500Y-81641071D01*
X149241071Y-81569642D01*
X149312500Y-81498214D01*
X149312500Y-81641071D01*
X149955357Y-80283928D02*
X150026785Y-80212500D01*
X150169642Y-80141071D01*
X150526785Y-80141071D01*
X150669642Y-80212500D01*
X150741071Y-80283928D01*
X150812500Y-80426785D01*
X150812500Y-80569642D01*
X150741071Y-80783928D01*
X149883928Y-81641071D01*
X150812500Y-81641071D01*
X152169642Y-80141071D02*
X151455357Y-80141071D01*
X151383928Y-80855357D01*
X151455357Y-80783928D01*
X151598214Y-80712500D01*
X151955357Y-80712500D01*
X152098214Y-80783928D01*
X152169642Y-80855357D01*
X152241071Y-80998214D01*
X152241071Y-81355357D01*
X152169642Y-81498214D01*
X152098214Y-81569642D01*
X151955357Y-81641071D01*
X151598214Y-81641071D01*
X151455357Y-81569642D01*
X151383928Y-81498214D01*
X152883928Y-80141071D02*
X152883928Y-81355357D01*
X152955357Y-81498214D01*
X153026785Y-81569642D01*
X153169642Y-81641071D01*
X153455357Y-81641071D01*
X153598214Y-81569642D01*
X153669642Y-81498214D01*
X153741071Y-81355357D01*
X153741071Y-80141071D01*
X141589285Y-80141071D02*
X142589285Y-80141071D01*
X141946428Y-81641071D01*
X143160714Y-80141071D02*
X143160714Y-81355357D01*
X143232142Y-81498214D01*
X143303571Y-81569642D01*
X143446428Y-81641071D01*
X143732142Y-81641071D01*
X143875000Y-81569642D01*
X143946428Y-81498214D01*
X144017857Y-81355357D01*
X144017857Y-80141071D01*
X64532142Y-81641071D02*
X63675000Y-81641071D01*
X64103571Y-81641071D02*
X64103571Y-80141071D01*
X63960714Y-80355357D01*
X63817857Y-80498214D01*
X63675000Y-80569642D01*
X65175000Y-81498214D02*
X65246428Y-81569642D01*
X65175000Y-81641071D01*
X65103571Y-81569642D01*
X65175000Y-81498214D01*
X65175000Y-81641071D01*
X65817857Y-80283928D02*
X65889285Y-80212500D01*
X66032142Y-80141071D01*
X66389285Y-80141071D01*
X66532142Y-80212500D01*
X66603571Y-80283928D01*
X66675000Y-80426785D01*
X66675000Y-80569642D01*
X66603571Y-80783928D01*
X65746428Y-81641071D01*
X66675000Y-81641071D01*
X68032142Y-80141071D02*
X67317857Y-80141071D01*
X67246428Y-80855357D01*
X67317857Y-80783928D01*
X67460714Y-80712500D01*
X67817857Y-80712500D01*
X67960714Y-80783928D01*
X68032142Y-80855357D01*
X68103571Y-80998214D01*
X68103571Y-81355357D01*
X68032142Y-81498214D01*
X67960714Y-81569642D01*
X67817857Y-81641071D01*
X67460714Y-81641071D01*
X67317857Y-81569642D01*
X67246428Y-81498214D01*
X68746428Y-80141071D02*
X68746428Y-81355357D01*
X68817857Y-81498214D01*
X68889285Y-81569642D01*
X69032142Y-81641071D01*
X69317857Y-81641071D01*
X69460714Y-81569642D01*
X69532142Y-81498214D01*
X69603571Y-81355357D01*
X69603571Y-80141071D01*
X59967857Y-81641071D02*
X59110714Y-81641071D01*
X59539285Y-81641071D02*
X59539285Y-80141071D01*
X59396428Y-80355357D01*
X59253571Y-80498214D01*
X59110714Y-80569642D01*
X60610714Y-80141071D02*
X60610714Y-81355357D01*
X60682142Y-81498214D01*
X60753571Y-81569642D01*
X60896428Y-81641071D01*
X61182142Y-81641071D01*
X61325000Y-81569642D01*
X61396428Y-81498214D01*
X61467857Y-81355357D01*
X61467857Y-80141071D01*
D11*
G36*
X306606565Y-20069356D02*
G01*
X306606565Y-20269356D01*
X306506565Y-20269356D01*
X306506565Y-20069356D01*
X306606565Y-20069356D01*
G37*
X306606565Y-20069356D02*
X306606565Y-20269356D01*
X306506565Y-20269356D01*
X306506565Y-20069356D01*
X306606565Y-20069356D01*
G36*
X306206565Y-19469356D02*
G01*
X306206565Y-20269356D01*
X306106565Y-20269356D01*
X306106565Y-19469356D01*
X306206565Y-19469356D01*
G37*
X306206565Y-19469356D02*
X306206565Y-20269356D01*
X306106565Y-20269356D01*
X306106565Y-19469356D01*
X306206565Y-19469356D01*
G36*
X306606565Y-19469356D02*
G01*
X306606565Y-19569356D01*
X306106565Y-19569356D01*
X306106565Y-19469356D01*
X306606565Y-19469356D01*
G37*
X306606565Y-19469356D02*
X306606565Y-19569356D01*
X306106565Y-19569356D01*
X306106565Y-19469356D01*
X306606565Y-19469356D01*
G36*
X306406565Y-19869356D02*
G01*
X306406565Y-19969356D01*
X306306565Y-19969356D01*
X306306565Y-19869356D01*
X306406565Y-19869356D01*
G37*
X306406565Y-19869356D02*
X306406565Y-19969356D01*
X306306565Y-19969356D01*
X306306565Y-19869356D01*
X306406565Y-19869356D01*
G36*
X306606565Y-19469356D02*
G01*
X306606565Y-19769356D01*
X306506565Y-19769356D01*
X306506565Y-19469356D01*
X306606565Y-19469356D01*
G37*
X306606565Y-19469356D02*
X306606565Y-19769356D01*
X306506565Y-19769356D01*
X306506565Y-19469356D01*
X306606565Y-19469356D01*
D12*
X263137500Y-37205000D02*
X263137500Y-43005000D01*
X260737500Y-37205000D02*
X263137500Y-37205000D01*
X260737500Y-43005000D02*
X260737500Y-37205000D01*
X260737500Y-42930000D02*
X263137500Y-42930000D01*
X260737500Y-42805000D02*
X263137500Y-42805000D01*
X263137500Y-43030000D02*
X260737500Y-43030000D01*
X260737500Y-42630000D02*
X263137500Y-42630000D01*
X260737500Y-42455000D02*
X263137500Y-42455000D01*
X260737500Y-42280000D02*
X263137500Y-42280000D01*
X51187500Y-40375000D02*
X53587500Y-40375000D01*
X51187500Y-40550000D02*
X53587500Y-40550000D01*
X51187500Y-40725000D02*
X53587500Y-40725000D01*
X53587500Y-41125000D02*
X51187500Y-41125000D01*
X51187500Y-40900000D02*
X53587500Y-40900000D01*
X51187500Y-41025000D02*
X53587500Y-41025000D01*
X51187500Y-41100000D02*
X51187500Y-35300000D01*
X51187500Y-35300000D02*
X53587500Y-35300000D01*
X53587500Y-35300000D02*
X53587500Y-41100000D01*
X110242500Y-78475000D02*
X112642500Y-78475000D01*
X110242500Y-78650000D02*
X112642500Y-78650000D01*
X110242500Y-78825000D02*
X112642500Y-78825000D01*
X112642500Y-79225000D02*
X110242500Y-79225000D01*
X110242500Y-79000000D02*
X112642500Y-79000000D01*
X110242500Y-79125000D02*
X112642500Y-79125000D01*
X110242500Y-79200000D02*
X110242500Y-73400000D01*
X110242500Y-73400000D02*
X112642500Y-73400000D01*
X112642500Y-73400000D02*
X112642500Y-79200000D01*
X141675000Y-61330000D02*
X144075000Y-61330000D01*
X141675000Y-61505000D02*
X144075000Y-61505000D01*
X141675000Y-61680000D02*
X144075000Y-61680000D01*
X144075000Y-62080000D02*
X141675000Y-62080000D01*
X141675000Y-61855000D02*
X144075000Y-61855000D01*
X141675000Y-61980000D02*
X144075000Y-61980000D01*
X141675000Y-62055000D02*
X141675000Y-56255000D01*
X141675000Y-56255000D02*
X144075000Y-56255000D01*
X144075000Y-56255000D02*
X144075000Y-62055000D01*
X46425000Y-59425000D02*
X48825000Y-59425000D01*
X46425000Y-59600000D02*
X48825000Y-59600000D01*
X46425000Y-59775000D02*
X48825000Y-59775000D01*
X48825000Y-60175000D02*
X46425000Y-60175000D01*
X46425000Y-59950000D02*
X48825000Y-59950000D01*
X46425000Y-60075000D02*
X48825000Y-60075000D01*
X46425000Y-60150000D02*
X46425000Y-54350000D01*
X46425000Y-54350000D02*
X48825000Y-54350000D01*
X48825000Y-54350000D02*
X48825000Y-60150000D01*
X227400000Y-78475000D02*
X229800000Y-78475000D01*
X227400000Y-78650000D02*
X229800000Y-78650000D01*
X227400000Y-78825000D02*
X229800000Y-78825000D01*
X229800000Y-79225000D02*
X227400000Y-79225000D01*
X227400000Y-79000000D02*
X229800000Y-79000000D01*
X227400000Y-79125000D02*
X229800000Y-79125000D01*
X227400000Y-79200000D02*
X227400000Y-73400000D01*
X227400000Y-73400000D02*
X229800000Y-73400000D01*
X229800000Y-73400000D02*
X229800000Y-79200000D01*
X105975000Y-56255000D02*
X105975000Y-62055000D01*
X103575000Y-56255000D02*
X105975000Y-56255000D01*
X103575000Y-62055000D02*
X103575000Y-56255000D01*
X103575000Y-61980000D02*
X105975000Y-61980000D01*
X103575000Y-61855000D02*
X105975000Y-61855000D01*
X105975000Y-62080000D02*
X103575000Y-62080000D01*
X103575000Y-61680000D02*
X105975000Y-61680000D01*
X103575000Y-61505000D02*
X105975000Y-61505000D01*
X103575000Y-61330000D02*
X105975000Y-61330000D01*
X236925000Y-21325000D02*
X239325000Y-21325000D01*
X236925000Y-21500000D02*
X239325000Y-21500000D01*
X236925000Y-21675000D02*
X239325000Y-21675000D01*
X239325000Y-22075000D02*
X236925000Y-22075000D01*
X236925000Y-21850000D02*
X239325000Y-21850000D01*
X236925000Y-21975000D02*
X239325000Y-21975000D01*
X236925000Y-22050000D02*
X236925000Y-16250000D01*
X236925000Y-16250000D02*
X239325000Y-16250000D01*
X239325000Y-16250000D02*
X239325000Y-22050000D01*
X201225000Y-54350000D02*
X201225000Y-60150000D01*
X198825000Y-54350000D02*
X201225000Y-54350000D01*
X198825000Y-60150000D02*
X198825000Y-54350000D01*
X198825000Y-60075000D02*
X201225000Y-60075000D01*
X198825000Y-59950000D02*
X201225000Y-59950000D01*
X201225000Y-60175000D02*
X198825000Y-60175000D01*
X198825000Y-59775000D02*
X201225000Y-59775000D01*
X198825000Y-59600000D02*
X201225000Y-59600000D01*
X198825000Y-59425000D02*
X201225000Y-59425000D01*
X32137500Y-80380000D02*
X34537500Y-80380000D01*
X32137500Y-80555000D02*
X34537500Y-80555000D01*
X32137500Y-80730000D02*
X34537500Y-80730000D01*
X34537500Y-81130000D02*
X32137500Y-81130000D01*
X32137500Y-80905000D02*
X34537500Y-80905000D01*
X32137500Y-81030000D02*
X34537500Y-81030000D01*
X32137500Y-81105000D02*
X32137500Y-75305000D01*
X32137500Y-75305000D02*
X34537500Y-75305000D01*
X34537500Y-75305000D02*
X34537500Y-81105000D01*
X89287500Y-40375000D02*
X91687500Y-40375000D01*
X89287500Y-40550000D02*
X91687500Y-40550000D01*
X89287500Y-40725000D02*
X91687500Y-40725000D01*
X91687500Y-41125000D02*
X89287500Y-41125000D01*
X89287500Y-40900000D02*
X91687500Y-40900000D01*
X89287500Y-41025000D02*
X91687500Y-41025000D01*
X89287500Y-41100000D02*
X89287500Y-35300000D01*
X89287500Y-35300000D02*
X91687500Y-35300000D01*
X91687500Y-35300000D02*
X91687500Y-41100000D01*
X217875000Y-61330000D02*
X220275000Y-61330000D01*
X217875000Y-61505000D02*
X220275000Y-61505000D01*
X217875000Y-61680000D02*
X220275000Y-61680000D01*
X220275000Y-62080000D02*
X217875000Y-62080000D01*
X217875000Y-61855000D02*
X220275000Y-61855000D01*
X217875000Y-61980000D02*
X220275000Y-61980000D01*
X217875000Y-62055000D02*
X217875000Y-56255000D01*
X217875000Y-56255000D02*
X220275000Y-56255000D01*
X220275000Y-56255000D02*
X220275000Y-62055000D01*
X246450000Y-78475000D02*
X248850000Y-78475000D01*
X246450000Y-78650000D02*
X248850000Y-78650000D01*
X246450000Y-78825000D02*
X248850000Y-78825000D01*
X248850000Y-79225000D02*
X246450000Y-79225000D01*
X246450000Y-79000000D02*
X248850000Y-79000000D01*
X246450000Y-79125000D02*
X248850000Y-79125000D01*
X246450000Y-79200000D02*
X246450000Y-73400000D01*
X246450000Y-73400000D02*
X248850000Y-73400000D01*
X248850000Y-73400000D02*
X248850000Y-79200000D01*
X86925000Y-16250000D02*
X86925000Y-22050000D01*
X84525000Y-16250000D02*
X86925000Y-16250000D01*
X84525000Y-22050000D02*
X84525000Y-16250000D01*
X84525000Y-21975000D02*
X86925000Y-21975000D01*
X84525000Y-21850000D02*
X86925000Y-21850000D01*
X86925000Y-22075000D02*
X84525000Y-22075000D01*
X84525000Y-21675000D02*
X86925000Y-21675000D01*
X84525000Y-21500000D02*
X86925000Y-21500000D01*
X84525000Y-21325000D02*
X86925000Y-21325000D01*
X259785000Y-21325000D02*
X262185000Y-21325000D01*
X259785000Y-21500000D02*
X262185000Y-21500000D01*
X259785000Y-21675000D02*
X262185000Y-21675000D01*
X262185000Y-22075000D02*
X259785000Y-22075000D01*
X259785000Y-21850000D02*
X262185000Y-21850000D01*
X259785000Y-21975000D02*
X262185000Y-21975000D01*
X259785000Y-22050000D02*
X259785000Y-16250000D01*
X259785000Y-16250000D02*
X262185000Y-16250000D01*
X262185000Y-16250000D02*
X262185000Y-22050000D01*
X27375000Y-23230000D02*
X29775000Y-23230000D01*
X27375000Y-23405000D02*
X29775000Y-23405000D01*
X27375000Y-23580000D02*
X29775000Y-23580000D01*
X29775000Y-23980000D02*
X27375000Y-23980000D01*
X27375000Y-23755000D02*
X29775000Y-23755000D01*
X27375000Y-23880000D02*
X29775000Y-23880000D01*
X27375000Y-23955000D02*
X27375000Y-18155000D01*
X27375000Y-18155000D02*
X29775000Y-18155000D01*
X29775000Y-18155000D02*
X29775000Y-23955000D01*
X110737500Y-37205000D02*
X110737500Y-43005000D01*
X108337500Y-37205000D02*
X110737500Y-37205000D01*
X108337500Y-43005000D02*
X108337500Y-37205000D01*
X108337500Y-42930000D02*
X110737500Y-42930000D01*
X108337500Y-42805000D02*
X110737500Y-42805000D01*
X110737500Y-43030000D02*
X108337500Y-43030000D01*
X108337500Y-42630000D02*
X110737500Y-42630000D01*
X108337500Y-42455000D02*
X110737500Y-42455000D01*
X108337500Y-42280000D02*
X110737500Y-42280000D01*
X127387500Y-40375000D02*
X129787500Y-40375000D01*
X127387500Y-40550000D02*
X129787500Y-40550000D01*
X127387500Y-40725000D02*
X129787500Y-40725000D01*
X129787500Y-41125000D02*
X127387500Y-41125000D01*
X127387500Y-40900000D02*
X129787500Y-40900000D01*
X127387500Y-41025000D02*
X129787500Y-41025000D01*
X127387500Y-41100000D02*
X127387500Y-35300000D01*
X127387500Y-35300000D02*
X129787500Y-35300000D01*
X129787500Y-35300000D02*
X129787500Y-41100000D01*
X148837500Y-37205000D02*
X148837500Y-43005000D01*
X146437500Y-37205000D02*
X148837500Y-37205000D01*
X146437500Y-43005000D02*
X146437500Y-37205000D01*
X146437500Y-42930000D02*
X148837500Y-42930000D01*
X146437500Y-42805000D02*
X148837500Y-42805000D01*
X148837500Y-43030000D02*
X146437500Y-43030000D01*
X146437500Y-42630000D02*
X148837500Y-42630000D01*
X146437500Y-42455000D02*
X148837500Y-42455000D01*
X146437500Y-42280000D02*
X148837500Y-42280000D01*
X179775000Y-23230000D02*
X182175000Y-23230000D01*
X179775000Y-23405000D02*
X182175000Y-23405000D01*
X179775000Y-23580000D02*
X182175000Y-23580000D01*
X182175000Y-23980000D02*
X179775000Y-23980000D01*
X179775000Y-23755000D02*
X182175000Y-23755000D01*
X179775000Y-23880000D02*
X182175000Y-23880000D01*
X179775000Y-23955000D02*
X179775000Y-18155000D01*
X179775000Y-18155000D02*
X182175000Y-18155000D01*
X182175000Y-18155000D02*
X182175000Y-23955000D01*
X165487500Y-40443750D02*
X167887500Y-40443750D01*
X165487500Y-40618750D02*
X167887500Y-40618750D01*
X165487500Y-40793750D02*
X167887500Y-40793750D01*
X167887500Y-41193750D02*
X165487500Y-41193750D01*
X165487500Y-40968750D02*
X167887500Y-40968750D01*
X165487500Y-41093750D02*
X167887500Y-41093750D01*
X165487500Y-41168750D02*
X165487500Y-35368750D01*
X165487500Y-35368750D02*
X167887500Y-35368750D01*
X167887500Y-35368750D02*
X167887500Y-41168750D01*
X186937500Y-37115000D02*
X186937500Y-42915000D01*
X184537500Y-37115000D02*
X186937500Y-37115000D01*
X184537500Y-42915000D02*
X184537500Y-37115000D01*
X184537500Y-42840000D02*
X186937500Y-42840000D01*
X184537500Y-42715000D02*
X186937500Y-42715000D01*
X186937500Y-42940000D02*
X184537500Y-42940000D01*
X184537500Y-42540000D02*
X186937500Y-42540000D01*
X184537500Y-42365000D02*
X186937500Y-42365000D01*
X184537500Y-42190000D02*
X186937500Y-42190000D01*
X203587500Y-40375000D02*
X205987500Y-40375000D01*
X203587500Y-40550000D02*
X205987500Y-40550000D01*
X203587500Y-40725000D02*
X205987500Y-40725000D01*
X205987500Y-41125000D02*
X203587500Y-41125000D01*
X203587500Y-40900000D02*
X205987500Y-40900000D01*
X203587500Y-41025000D02*
X205987500Y-41025000D01*
X203587500Y-41100000D02*
X203587500Y-35300000D01*
X203587500Y-35300000D02*
X205987500Y-35300000D01*
X205987500Y-35300000D02*
X205987500Y-41100000D01*
X53587500Y-73400000D02*
X53587500Y-79200000D01*
X51187500Y-73400000D02*
X53587500Y-73400000D01*
X51187500Y-79200000D02*
X51187500Y-73400000D01*
X51187500Y-79125000D02*
X53587500Y-79125000D01*
X51187500Y-79000000D02*
X53587500Y-79000000D01*
X53587500Y-79225000D02*
X51187500Y-79225000D01*
X51187500Y-78825000D02*
X53587500Y-78825000D01*
X51187500Y-78650000D02*
X53587500Y-78650000D01*
X51187500Y-78475000D02*
X53587500Y-78475000D01*
X258832500Y-61330000D02*
X261232500Y-61330000D01*
X258832500Y-61505000D02*
X261232500Y-61505000D01*
X258832500Y-61680000D02*
X261232500Y-61680000D01*
X261232500Y-62080000D02*
X258832500Y-62080000D01*
X258832500Y-61855000D02*
X261232500Y-61855000D01*
X258832500Y-61980000D02*
X261232500Y-61980000D01*
X258832500Y-62055000D02*
X258832500Y-56255000D01*
X258832500Y-56255000D02*
X261232500Y-56255000D01*
X261232500Y-56255000D02*
X261232500Y-62055000D01*
X179775000Y-61330000D02*
X182175000Y-61330000D01*
X179775000Y-61505000D02*
X182175000Y-61505000D01*
X179775000Y-61680000D02*
X182175000Y-61680000D01*
X182175000Y-62080000D02*
X179775000Y-62080000D01*
X179775000Y-61855000D02*
X182175000Y-61855000D01*
X179775000Y-61980000D02*
X182175000Y-61980000D01*
X179775000Y-62055000D02*
X179775000Y-56255000D01*
X179775000Y-56255000D02*
X182175000Y-56255000D01*
X182175000Y-56255000D02*
X182175000Y-62055000D01*
X163125000Y-54350000D02*
X163125000Y-60150000D01*
X160725000Y-54350000D02*
X163125000Y-54350000D01*
X160725000Y-60150000D02*
X160725000Y-54350000D01*
X160725000Y-60075000D02*
X163125000Y-60075000D01*
X160725000Y-59950000D02*
X163125000Y-59950000D01*
X163125000Y-60175000D02*
X160725000Y-60175000D01*
X160725000Y-59775000D02*
X163125000Y-59775000D01*
X160725000Y-59600000D02*
X163125000Y-59600000D01*
X160725000Y-59425000D02*
X163125000Y-59425000D01*
X198825000Y-21325000D02*
X201225000Y-21325000D01*
X198825000Y-21500000D02*
X201225000Y-21500000D01*
X198825000Y-21675000D02*
X201225000Y-21675000D01*
X201225000Y-22075000D02*
X198825000Y-22075000D01*
X198825000Y-21850000D02*
X201225000Y-21850000D01*
X198825000Y-21975000D02*
X201225000Y-21975000D01*
X198825000Y-22050000D02*
X198825000Y-16250000D01*
X198825000Y-16250000D02*
X201225000Y-16250000D01*
X201225000Y-16250000D02*
X201225000Y-22050000D01*
X255975000Y-23140000D02*
X258375000Y-23140000D01*
X255975000Y-23315000D02*
X258375000Y-23315000D01*
X255975000Y-23490000D02*
X258375000Y-23490000D01*
X258375000Y-23890000D02*
X255975000Y-23890000D01*
X255975000Y-23665000D02*
X258375000Y-23665000D01*
X255975000Y-23790000D02*
X258375000Y-23790000D01*
X255975000Y-23865000D02*
X255975000Y-18065000D01*
X255975000Y-18065000D02*
X258375000Y-18065000D01*
X258375000Y-18065000D02*
X258375000Y-23865000D01*
X217875000Y-23230000D02*
X220275000Y-23230000D01*
X217875000Y-23405000D02*
X220275000Y-23405000D01*
X217875000Y-23580000D02*
X220275000Y-23580000D01*
X220275000Y-23980000D02*
X217875000Y-23980000D01*
X217875000Y-23755000D02*
X220275000Y-23755000D01*
X217875000Y-23880000D02*
X220275000Y-23880000D01*
X217875000Y-23955000D02*
X217875000Y-18155000D01*
X217875000Y-18155000D02*
X220275000Y-18155000D01*
X220275000Y-18155000D02*
X220275000Y-23955000D01*
X48825000Y-16250000D02*
X48825000Y-22050000D01*
X46425000Y-16250000D02*
X48825000Y-16250000D01*
X46425000Y-22050000D02*
X46425000Y-16250000D01*
X46425000Y-21975000D02*
X48825000Y-21975000D01*
X46425000Y-21850000D02*
X48825000Y-21850000D01*
X48825000Y-22075000D02*
X46425000Y-22075000D01*
X46425000Y-21675000D02*
X48825000Y-21675000D01*
X46425000Y-21500000D02*
X48825000Y-21500000D01*
X46425000Y-21325000D02*
X48825000Y-21325000D01*
X244087500Y-35300000D02*
X244087500Y-41100000D01*
X241687500Y-35300000D02*
X244087500Y-35300000D01*
X241687500Y-41100000D02*
X241687500Y-35300000D01*
X241687500Y-41025000D02*
X244087500Y-41025000D01*
X241687500Y-40900000D02*
X244087500Y-40900000D01*
X244087500Y-41125000D02*
X241687500Y-41125000D01*
X241687500Y-40725000D02*
X244087500Y-40725000D01*
X241687500Y-40550000D02*
X244087500Y-40550000D01*
X241687500Y-40375000D02*
X244087500Y-40375000D01*
X105975000Y-18155000D02*
X105975000Y-23955000D01*
X103575000Y-18155000D02*
X105975000Y-18155000D01*
X103575000Y-23955000D02*
X103575000Y-18155000D01*
X103575000Y-23880000D02*
X105975000Y-23880000D01*
X103575000Y-23755000D02*
X105975000Y-23755000D01*
X105975000Y-23980000D02*
X103575000Y-23980000D01*
X103575000Y-23580000D02*
X105975000Y-23580000D01*
X103575000Y-23405000D02*
X105975000Y-23405000D01*
X103575000Y-23230000D02*
X105975000Y-23230000D01*
X265042500Y-55302500D02*
X265042500Y-61102500D01*
X262642500Y-55302500D02*
X265042500Y-55302500D01*
X262642500Y-61102500D02*
X262642500Y-55302500D01*
X262642500Y-61027500D02*
X265042500Y-61027500D01*
X262642500Y-60902500D02*
X265042500Y-60902500D01*
X265042500Y-61127500D02*
X262642500Y-61127500D01*
X262642500Y-60727500D02*
X265042500Y-60727500D01*
X262642500Y-60552500D02*
X265042500Y-60552500D01*
X262642500Y-60377500D02*
X265042500Y-60377500D01*
X72637500Y-37205000D02*
X72637500Y-43005000D01*
X70237500Y-37205000D02*
X72637500Y-37205000D01*
X70237500Y-43005000D02*
X70237500Y-37205000D01*
X70237500Y-42930000D02*
X72637500Y-42930000D01*
X70237500Y-42805000D02*
X72637500Y-42805000D01*
X72637500Y-43030000D02*
X70237500Y-43030000D01*
X70237500Y-42630000D02*
X72637500Y-42630000D01*
X70237500Y-42455000D02*
X72637500Y-42455000D01*
X70237500Y-42280000D02*
X72637500Y-42280000D01*
X225037500Y-37115000D02*
X225037500Y-42915000D01*
X222637500Y-37115000D02*
X225037500Y-37115000D01*
X222637500Y-42915000D02*
X222637500Y-37115000D01*
X222637500Y-42840000D02*
X225037500Y-42840000D01*
X222637500Y-42715000D02*
X225037500Y-42715000D01*
X225037500Y-42940000D02*
X222637500Y-42940000D01*
X222637500Y-42540000D02*
X225037500Y-42540000D01*
X222637500Y-42365000D02*
X225037500Y-42365000D01*
X222637500Y-42190000D02*
X225037500Y-42190000D01*
X286950000Y-25775000D02*
X286950000Y-31575000D01*
X284550000Y-25775000D02*
X286950000Y-25775000D01*
X284550000Y-31575000D02*
X284550000Y-25775000D01*
X284550000Y-31500000D02*
X286950000Y-31500000D01*
X284550000Y-31375000D02*
X286950000Y-31375000D01*
X286950000Y-31600000D02*
X284550000Y-31600000D01*
X284550000Y-31200000D02*
X286950000Y-31200000D01*
X284550000Y-31025000D02*
X286950000Y-31025000D01*
X284550000Y-30850000D02*
X286950000Y-30850000D01*
X29775000Y-56255000D02*
X29775000Y-62055000D01*
X27375000Y-56255000D02*
X29775000Y-56255000D01*
X27375000Y-62055000D02*
X27375000Y-56255000D01*
X27375000Y-61980000D02*
X29775000Y-61980000D01*
X27375000Y-61855000D02*
X29775000Y-61855000D01*
X29775000Y-62080000D02*
X27375000Y-62080000D01*
X27375000Y-61680000D02*
X29775000Y-61680000D01*
X27375000Y-61505000D02*
X29775000Y-61505000D01*
X27375000Y-61330000D02*
X29775000Y-61330000D01*
X239325000Y-54350000D02*
X239325000Y-60150000D01*
X236925000Y-54350000D02*
X239325000Y-54350000D01*
X236925000Y-60150000D02*
X236925000Y-54350000D01*
X236925000Y-60075000D02*
X239325000Y-60075000D01*
X236925000Y-59950000D02*
X239325000Y-59950000D01*
X239325000Y-60175000D02*
X236925000Y-60175000D01*
X236925000Y-59775000D02*
X239325000Y-59775000D01*
X236925000Y-59600000D02*
X239325000Y-59600000D01*
X236925000Y-59425000D02*
X239325000Y-59425000D01*
X163125000Y-69590000D02*
X163125000Y-75390000D01*
X160725000Y-69590000D02*
X163125000Y-69590000D01*
X160725000Y-75390000D02*
X160725000Y-69590000D01*
X160725000Y-75315000D02*
X163125000Y-75315000D01*
X160725000Y-75190000D02*
X163125000Y-75190000D01*
X163125000Y-75415000D02*
X160725000Y-75415000D01*
X160725000Y-75015000D02*
X163125000Y-75015000D01*
X160725000Y-74840000D02*
X163125000Y-74840000D01*
X160725000Y-74665000D02*
X163125000Y-74665000D01*
X125025000Y-16250000D02*
X125025000Y-22050000D01*
X122625000Y-16250000D02*
X125025000Y-16250000D01*
X122625000Y-22050000D02*
X122625000Y-16250000D01*
X122625000Y-21975000D02*
X125025000Y-21975000D01*
X122625000Y-21850000D02*
X125025000Y-21850000D01*
X125025000Y-22075000D02*
X122625000Y-22075000D01*
X122625000Y-21675000D02*
X125025000Y-21675000D01*
X122625000Y-21500000D02*
X125025000Y-21500000D01*
X122625000Y-21325000D02*
X125025000Y-21325000D01*
X32137500Y-42280000D02*
X34537500Y-42280000D01*
X32137500Y-42455000D02*
X34537500Y-42455000D01*
X32137500Y-42630000D02*
X34537500Y-42630000D01*
X34537500Y-43030000D02*
X32137500Y-43030000D01*
X32137500Y-42805000D02*
X34537500Y-42805000D01*
X32137500Y-42930000D02*
X34537500Y-42930000D01*
X32137500Y-43005000D02*
X32137500Y-37205000D01*
X32137500Y-37205000D02*
X34537500Y-37205000D01*
X34537500Y-37205000D02*
X34537500Y-43005000D01*
X163125000Y-16250000D02*
X163125000Y-22050000D01*
X160725000Y-16250000D02*
X163125000Y-16250000D01*
X160725000Y-22050000D02*
X160725000Y-16250000D01*
X160725000Y-21975000D02*
X163125000Y-21975000D01*
X160725000Y-21850000D02*
X163125000Y-21850000D01*
X163125000Y-22075000D02*
X160725000Y-22075000D01*
X160725000Y-21675000D02*
X163125000Y-21675000D01*
X160725000Y-21500000D02*
X163125000Y-21500000D01*
X160725000Y-21325000D02*
X163125000Y-21325000D01*
X267900000Y-73400000D02*
X267900000Y-79200000D01*
X265500000Y-73400000D02*
X267900000Y-73400000D01*
X265500000Y-79200000D02*
X265500000Y-73400000D01*
X265500000Y-79125000D02*
X267900000Y-79125000D01*
X265500000Y-79000000D02*
X267900000Y-79000000D01*
X267900000Y-79225000D02*
X265500000Y-79225000D01*
X265500000Y-78825000D02*
X267900000Y-78825000D01*
X265500000Y-78650000D02*
X267900000Y-78650000D01*
X265500000Y-78475000D02*
X267900000Y-78475000D01*
X122625000Y-59425000D02*
X125025000Y-59425000D01*
X122625000Y-59600000D02*
X125025000Y-59600000D01*
X122625000Y-59775000D02*
X125025000Y-59775000D01*
X125025000Y-60175000D02*
X122625000Y-60175000D01*
X122625000Y-59950000D02*
X125025000Y-59950000D01*
X122625000Y-60075000D02*
X125025000Y-60075000D01*
X122625000Y-60150000D02*
X122625000Y-54350000D01*
X122625000Y-54350000D02*
X125025000Y-54350000D01*
X125025000Y-54350000D02*
X125025000Y-60150000D01*
X67875000Y-18155000D02*
X67875000Y-23955000D01*
X65475000Y-18155000D02*
X67875000Y-18155000D01*
X65475000Y-23955000D02*
X65475000Y-18155000D01*
X65475000Y-23880000D02*
X67875000Y-23880000D01*
X65475000Y-23755000D02*
X67875000Y-23755000D01*
X67875000Y-23980000D02*
X65475000Y-23980000D01*
X65475000Y-23580000D02*
X67875000Y-23580000D01*
X65475000Y-23405000D02*
X67875000Y-23405000D01*
X65475000Y-23230000D02*
X67875000Y-23230000D01*
X84525000Y-59425000D02*
X86925000Y-59425000D01*
X84525000Y-59600000D02*
X86925000Y-59600000D01*
X84525000Y-59775000D02*
X86925000Y-59775000D01*
X86925000Y-60175000D02*
X84525000Y-60175000D01*
X84525000Y-59950000D02*
X86925000Y-59950000D01*
X84525000Y-60075000D02*
X86925000Y-60075000D01*
X84525000Y-60150000D02*
X84525000Y-54350000D01*
X84525000Y-54350000D02*
X86925000Y-54350000D01*
X86925000Y-54350000D02*
X86925000Y-60150000D01*
X144075000Y-18167500D02*
X144075000Y-23967500D01*
X141675000Y-18167500D02*
X144075000Y-18167500D01*
X141675000Y-23967500D02*
X141675000Y-18167500D01*
X141675000Y-23892500D02*
X144075000Y-23892500D01*
X141675000Y-23767500D02*
X144075000Y-23767500D01*
X144075000Y-23992500D02*
X141675000Y-23992500D01*
X141675000Y-23592500D02*
X144075000Y-23592500D01*
X141675000Y-23417500D02*
X144075000Y-23417500D01*
X141675000Y-23242500D02*
X144075000Y-23242500D01*
X67875000Y-56255000D02*
X67875000Y-62055000D01*
X65475000Y-56255000D02*
X67875000Y-56255000D01*
X65475000Y-62055000D02*
X65475000Y-56255000D01*
X65475000Y-61980000D02*
X67875000Y-61980000D01*
X65475000Y-61855000D02*
X67875000Y-61855000D01*
X67875000Y-62080000D02*
X65475000Y-62080000D01*
X65475000Y-61680000D02*
X67875000Y-61680000D01*
X65475000Y-61505000D02*
X67875000Y-61505000D01*
X65475000Y-61330000D02*
X67875000Y-61330000D01*
X273425000Y-65475000D02*
X279225000Y-65475000D01*
X273425000Y-67875000D02*
X273425000Y-65475000D01*
X279225000Y-67875000D02*
X273425000Y-67875000D01*
X279150000Y-67875000D02*
X279150000Y-65475000D01*
X279025000Y-67875000D02*
X279025000Y-65475000D01*
X279250000Y-65475000D02*
X279250000Y-67875000D01*
X278850000Y-67875000D02*
X278850000Y-65475000D01*
X278675000Y-67875000D02*
X278675000Y-65475000D01*
X278500000Y-67875000D02*
X278500000Y-65475000D01*
X115957500Y-76570000D02*
X118357500Y-76570000D01*
X115957500Y-76745000D02*
X118357500Y-76745000D01*
X115957500Y-76920000D02*
X118357500Y-76920000D01*
X118357500Y-77320000D02*
X115957500Y-77320000D01*
X115957500Y-77095000D02*
X118357500Y-77095000D01*
X115957500Y-77220000D02*
X118357500Y-77220000D01*
X115957500Y-77295000D02*
X115957500Y-71495000D01*
X115957500Y-71495000D02*
X118357500Y-71495000D01*
X118357500Y-71495000D02*
X118357500Y-77295000D01*
D11*
X306812187Y-40202853D02*
X306926473Y-40240948D01*
X306964568Y-40279043D01*
X307002663Y-40355234D01*
X307002663Y-40469519D01*
X306964568Y-40545710D01*
X306926473Y-40583805D01*
X306850282Y-40621900D01*
X306545520Y-40621900D01*
X306545520Y-39821900D01*
X306812187Y-39821900D01*
X306888377Y-39859996D01*
X306926473Y-39898091D01*
X306964568Y-39974281D01*
X306964568Y-40050472D01*
X306926473Y-40126662D01*
X306888377Y-40164757D01*
X306812187Y-40202853D01*
X306545520Y-40202853D01*
X307307425Y-39898091D02*
X307345520Y-39859996D01*
X307421711Y-39821900D01*
X307612187Y-39821900D01*
X307688377Y-39859996D01*
X307726473Y-39898091D01*
X307764568Y-39974281D01*
X307764568Y-40050472D01*
X307726473Y-40164757D01*
X307269330Y-40621900D01*
X307764568Y-40621900D01*
X306869330Y-32582853D02*
X306602663Y-32582853D01*
X306602663Y-33001900D02*
X306602663Y-32201900D01*
X306983616Y-32201900D01*
X307212187Y-32201900D02*
X307745520Y-32201900D01*
X307402663Y-33001900D01*
X306869330Y-30042853D02*
X306602663Y-30042853D01*
X306602663Y-30461900D02*
X306602663Y-29661900D01*
X306983616Y-29661900D01*
X307631235Y-29661900D02*
X307478854Y-29661900D01*
X307402663Y-29699996D01*
X307364568Y-29738091D01*
X307288377Y-29852376D01*
X307250282Y-30004757D01*
X307250282Y-30309519D01*
X307288377Y-30385710D01*
X307326473Y-30423805D01*
X307402663Y-30461900D01*
X307555044Y-30461900D01*
X307631235Y-30423805D01*
X307669330Y-30385710D01*
X307707425Y-30309519D01*
X307707425Y-30119043D01*
X307669330Y-30042853D01*
X307631235Y-30004757D01*
X307555044Y-29966662D01*
X307402663Y-29966662D01*
X307326473Y-30004757D01*
X307288377Y-30042853D01*
X307250282Y-30119043D01*
X306869330Y-27502853D02*
X306602663Y-27502853D01*
X306602663Y-27921900D02*
X306602663Y-27121900D01*
X306983616Y-27121900D01*
X307669330Y-27121900D02*
X307288377Y-27121900D01*
X307250282Y-27502853D01*
X307288377Y-27464757D01*
X307364568Y-27426662D01*
X307555044Y-27426662D01*
X307631235Y-27464757D01*
X307669330Y-27502853D01*
X307707425Y-27579043D01*
X307707425Y-27769519D01*
X307669330Y-27845710D01*
X307631235Y-27883805D01*
X307555044Y-27921900D01*
X307364568Y-27921900D01*
X307288377Y-27883805D01*
X307250282Y-27845710D01*
X306583616Y-15221900D02*
X306316949Y-14840948D01*
X306126473Y-15221900D02*
X306126473Y-14421900D01*
X306431235Y-14421900D01*
X306507425Y-14459996D01*
X306545520Y-14498091D01*
X306583616Y-14574281D01*
X306583616Y-14688567D01*
X306545520Y-14764757D01*
X306507425Y-14802853D01*
X306431235Y-14840948D01*
X306126473Y-14840948D01*
X306888377Y-14993329D02*
X307269330Y-14993329D01*
X306812187Y-15221900D02*
X307078854Y-14421900D01*
X307345520Y-15221900D01*
X307535997Y-14421900D02*
X307726473Y-15221900D01*
X307878854Y-14650472D01*
X308031235Y-15221900D01*
X308221711Y-14421900D01*
X306526473Y-16999996D02*
X306450282Y-16961900D01*
X306335997Y-16961900D01*
X306221711Y-16999996D01*
X306145520Y-17076186D01*
X306107425Y-17152376D01*
X306069330Y-17304757D01*
X306069330Y-17419043D01*
X306107425Y-17571424D01*
X306145520Y-17647615D01*
X306221711Y-17723805D01*
X306335997Y-17761900D01*
X306412187Y-17761900D01*
X306526473Y-17723805D01*
X306564568Y-17685710D01*
X306564568Y-17419043D01*
X306412187Y-17419043D01*
X306907425Y-17761900D02*
X306907425Y-16961900D01*
X307364568Y-17761900D01*
X307364568Y-16961900D01*
X307745520Y-17761900D02*
X307745520Y-16961900D01*
X307935997Y-16961900D01*
X308050282Y-16999996D01*
X308126473Y-17076186D01*
X308164568Y-17152376D01*
X308202663Y-17304757D01*
X308202663Y-17419043D01*
X308164568Y-17571424D01*
X308126473Y-17647615D01*
X308050282Y-17723805D01*
X307935997Y-17761900D01*
X307745520Y-17761900D01*
X306874783Y-20233805D02*
X306989069Y-20271900D01*
X307179545Y-20271900D01*
X307255736Y-20233805D01*
X307293831Y-20195710D01*
X307331926Y-20119519D01*
X307331926Y-20043329D01*
X307293831Y-19967138D01*
X307255736Y-19929043D01*
X307179545Y-19890948D01*
X307027164Y-19852853D01*
X306950974Y-19814757D01*
X306912878Y-19776662D01*
X306874783Y-19700472D01*
X306874783Y-19624281D01*
X306912878Y-19548091D01*
X306950974Y-19509996D01*
X307027164Y-19471900D01*
X307217640Y-19471900D01*
X307331926Y-19509996D01*
X307560497Y-19471900D02*
X308017640Y-19471900D01*
X307789069Y-20271900D02*
X307789069Y-19471900D01*
X306069330Y-22041900D02*
X306335997Y-22841900D01*
X306602663Y-22041900D01*
X307326473Y-22765710D02*
X307288377Y-22803805D01*
X307174092Y-22841900D01*
X307097901Y-22841900D01*
X306983616Y-22803805D01*
X306907425Y-22727615D01*
X306869330Y-22651424D01*
X306831235Y-22499043D01*
X306831235Y-22384757D01*
X306869330Y-22232376D01*
X306907425Y-22156186D01*
X306983616Y-22079996D01*
X307097901Y-22041900D01*
X307174092Y-22041900D01*
X307288377Y-22079996D01*
X307326473Y-22118091D01*
X308126473Y-22765710D02*
X308088377Y-22803805D01*
X307974092Y-22841900D01*
X307897901Y-22841900D01*
X307783616Y-22803805D01*
X307707425Y-22727615D01*
X307669330Y-22651424D01*
X307631235Y-22499043D01*
X307631235Y-22384757D01*
X307669330Y-22232376D01*
X307707425Y-22156186D01*
X307783616Y-22079996D01*
X307897901Y-22041900D01*
X307974092Y-22041900D01*
X308088377Y-22079996D01*
X308126473Y-22118091D01*
X306869330Y-24962853D02*
X306602663Y-24962853D01*
X306602663Y-25381900D02*
X306602663Y-24581900D01*
X306983616Y-24581900D01*
X307631235Y-24848567D02*
X307631235Y-25381900D01*
X307440758Y-24543805D02*
X307250282Y-25115234D01*
X307745520Y-25115234D01*
X306812187Y-35122853D02*
X306926473Y-35160948D01*
X306964568Y-35199043D01*
X307002663Y-35275234D01*
X307002663Y-35389519D01*
X306964568Y-35465710D01*
X306926473Y-35503805D01*
X306850282Y-35541900D01*
X306545520Y-35541900D01*
X306545520Y-34741900D01*
X306812187Y-34741900D01*
X306888377Y-34779996D01*
X306926473Y-34818091D01*
X306964568Y-34894281D01*
X306964568Y-34970472D01*
X306926473Y-35046662D01*
X306888377Y-35084757D01*
X306812187Y-35122853D01*
X306545520Y-35122853D01*
X307764568Y-35541900D02*
X307307425Y-35541900D01*
X307535997Y-35541900D02*
X307535997Y-34741900D01*
X307459806Y-34856186D01*
X307383616Y-34932376D01*
X307307425Y-34970472D01*
X306812187Y-37662853D02*
X306926473Y-37700948D01*
X306964568Y-37739043D01*
X307002663Y-37815234D01*
X307002663Y-37929519D01*
X306964568Y-38005710D01*
X306926473Y-38043805D01*
X306850282Y-38081900D01*
X306545520Y-38081900D01*
X306545520Y-37281900D01*
X306812187Y-37281900D01*
X306888377Y-37319996D01*
X306926473Y-37358091D01*
X306964568Y-37434281D01*
X306964568Y-37510472D01*
X306926473Y-37586662D01*
X306888377Y-37624757D01*
X306812187Y-37662853D01*
X306545520Y-37662853D01*
X307269330Y-37281900D02*
X307764568Y-37281900D01*
X307497901Y-37586662D01*
X307612187Y-37586662D01*
X307688377Y-37624757D01*
X307726473Y-37662853D01*
X307764568Y-37739043D01*
X307764568Y-37929519D01*
X307726473Y-38005710D01*
X307688377Y-38043805D01*
X307612187Y-38081900D01*
X307383616Y-38081900D01*
X307307425Y-38043805D01*
X307269330Y-38005710D01*
X306812187Y-42742853D02*
X306926473Y-42780948D01*
X306964568Y-42819043D01*
X307002663Y-42895234D01*
X307002663Y-43009519D01*
X306964568Y-43085710D01*
X306926473Y-43123805D01*
X306850282Y-43161900D01*
X306545520Y-43161900D01*
X306545520Y-42361900D01*
X306812187Y-42361900D01*
X306888377Y-42399996D01*
X306926473Y-42438091D01*
X306964568Y-42514281D01*
X306964568Y-42590472D01*
X306926473Y-42666662D01*
X306888377Y-42704757D01*
X306812187Y-42742853D01*
X306545520Y-42742853D01*
X307688377Y-42361900D02*
X307535997Y-42361900D01*
X307459806Y-42399996D01*
X307421711Y-42438091D01*
X307345520Y-42552376D01*
X307307425Y-42704757D01*
X307307425Y-43009519D01*
X307345520Y-43085710D01*
X307383616Y-43123805D01*
X307459806Y-43161900D01*
X307612187Y-43161900D01*
X307688377Y-43123805D01*
X307726473Y-43085710D01*
X307764568Y-43009519D01*
X307764568Y-42819043D01*
X307726473Y-42742853D01*
X307688377Y-42704757D01*
X307612187Y-42666662D01*
X307459806Y-42666662D01*
X307383616Y-42704757D01*
X307345520Y-42742853D01*
X307307425Y-42819043D01*
X295890187Y-42742853D02*
X296004473Y-42780948D01*
X296042568Y-42819043D01*
X296080663Y-42895234D01*
X296080663Y-43009519D01*
X296042568Y-43085710D01*
X296004473Y-43123805D01*
X295928282Y-43161900D01*
X295623520Y-43161900D01*
X295623520Y-42361900D01*
X295890187Y-42361900D01*
X295966377Y-42399996D01*
X296004473Y-42438091D01*
X296042568Y-42514281D01*
X296042568Y-42590472D01*
X296004473Y-42666662D01*
X295966377Y-42704757D01*
X295890187Y-42742853D01*
X295623520Y-42742853D01*
X296804473Y-42361900D02*
X296423520Y-42361900D01*
X296385425Y-42742853D01*
X296423520Y-42704757D01*
X296499711Y-42666662D01*
X296690187Y-42666662D01*
X296766377Y-42704757D01*
X296804473Y-42742853D01*
X296842568Y-42819043D01*
X296842568Y-43009519D01*
X296804473Y-43085710D01*
X296766377Y-43123805D01*
X296690187Y-43161900D01*
X296499711Y-43161900D01*
X296423520Y-43123805D01*
X296385425Y-43085710D01*
X295890187Y-40202853D02*
X296004473Y-40240948D01*
X296042568Y-40279043D01*
X296080663Y-40355234D01*
X296080663Y-40469519D01*
X296042568Y-40545710D01*
X296004473Y-40583805D01*
X295928282Y-40621900D01*
X295623520Y-40621900D01*
X295623520Y-39821900D01*
X295890187Y-39821900D01*
X295966377Y-39859996D01*
X296004473Y-39898091D01*
X296042568Y-39974281D01*
X296042568Y-40050472D01*
X296004473Y-40126662D01*
X295966377Y-40164757D01*
X295890187Y-40202853D01*
X295623520Y-40202853D01*
X296766377Y-40088567D02*
X296766377Y-40621900D01*
X296575901Y-39783805D02*
X296385425Y-40355234D01*
X296880663Y-40355234D01*
X295661616Y-37662853D02*
X295928282Y-37662853D01*
X296042568Y-38081900D02*
X295661616Y-38081900D01*
X295661616Y-37281900D01*
X296042568Y-37281900D01*
X296728282Y-37281900D02*
X296575901Y-37281900D01*
X296499711Y-37319996D01*
X296461616Y-37358091D01*
X296385425Y-37472376D01*
X296347330Y-37624757D01*
X296347330Y-37929519D01*
X296385425Y-38005710D01*
X296423520Y-38043805D01*
X296499711Y-38081900D01*
X296652092Y-38081900D01*
X296728282Y-38043805D01*
X296766377Y-38005710D01*
X296804473Y-37929519D01*
X296804473Y-37739043D01*
X296766377Y-37662853D01*
X296728282Y-37624757D01*
X296652092Y-37586662D01*
X296499711Y-37586662D01*
X296423520Y-37624757D01*
X296385425Y-37662853D01*
X296347330Y-37739043D01*
X295623520Y-35541900D02*
X295623520Y-34741900D01*
X295813997Y-34741900D01*
X295928282Y-34779996D01*
X296004473Y-34856186D01*
X296042568Y-34932376D01*
X296080663Y-35084757D01*
X296080663Y-35199043D01*
X296042568Y-35351424D01*
X296004473Y-35427615D01*
X295928282Y-35503805D01*
X295813997Y-35541900D01*
X295623520Y-35541900D01*
X296347330Y-34741900D02*
X296880663Y-34741900D01*
X296537806Y-35541900D01*
X296080663Y-32925710D02*
X296042568Y-32963805D01*
X295928282Y-33001900D01*
X295852092Y-33001900D01*
X295737806Y-32963805D01*
X295661616Y-32887615D01*
X295623520Y-32811424D01*
X295585425Y-32659043D01*
X295585425Y-32544757D01*
X295623520Y-32392376D01*
X295661616Y-32316186D01*
X295737806Y-32239996D01*
X295852092Y-32201900D01*
X295928282Y-32201900D01*
X296042568Y-32239996D01*
X296080663Y-32278091D01*
X296766377Y-32201900D02*
X296613997Y-32201900D01*
X296537806Y-32239996D01*
X296499711Y-32278091D01*
X296423520Y-32392376D01*
X296385425Y-32544757D01*
X296385425Y-32849519D01*
X296423520Y-32925710D01*
X296461616Y-32963805D01*
X296537806Y-33001900D01*
X296690187Y-33001900D01*
X296766377Y-32963805D01*
X296804473Y-32925710D01*
X296842568Y-32849519D01*
X296842568Y-32659043D01*
X296804473Y-32582853D01*
X296766377Y-32544757D01*
X296690187Y-32506662D01*
X296537806Y-32506662D01*
X296461616Y-32544757D01*
X296423520Y-32582853D01*
X296385425Y-32659043D01*
X295623520Y-30461900D02*
X295623520Y-29661900D01*
X295813997Y-29661900D01*
X295928282Y-29699996D01*
X296004473Y-29776186D01*
X296042568Y-29852376D01*
X296080663Y-30004757D01*
X296080663Y-30119043D01*
X296042568Y-30271424D01*
X296004473Y-30347615D01*
X295928282Y-30423805D01*
X295813997Y-30461900D01*
X295623520Y-30461900D01*
X296766377Y-29928567D02*
X296766377Y-30461900D01*
X296575901Y-29623805D02*
X296385425Y-30195234D01*
X296880663Y-30195234D01*
X295604473Y-19539996D02*
X295528282Y-19501900D01*
X295413997Y-19501900D01*
X295299711Y-19539996D01*
X295223520Y-19616186D01*
X295185425Y-19692376D01*
X295147330Y-19844757D01*
X295147330Y-19959043D01*
X295185425Y-20111424D01*
X295223520Y-20187615D01*
X295299711Y-20263805D01*
X295413997Y-20301900D01*
X295490187Y-20301900D01*
X295604473Y-20263805D01*
X295642568Y-20225710D01*
X295642568Y-19959043D01*
X295490187Y-19959043D01*
X295985425Y-20301900D02*
X295985425Y-19501900D01*
X296442568Y-20301900D01*
X296442568Y-19501900D01*
X296823520Y-20301900D02*
X296823520Y-19501900D01*
X297013997Y-19501900D01*
X297128282Y-19539996D01*
X297204473Y-19616186D01*
X297242568Y-19692376D01*
X297280663Y-19844757D01*
X297280663Y-19959043D01*
X297242568Y-20111424D01*
X297204473Y-20187615D01*
X297128282Y-20263805D01*
X297013997Y-20301900D01*
X296823520Y-20301900D01*
X295604473Y-22079996D02*
X295528282Y-22041900D01*
X295413997Y-22041900D01*
X295299711Y-22079996D01*
X295223520Y-22156186D01*
X295185425Y-22232376D01*
X295147330Y-22384757D01*
X295147330Y-22499043D01*
X295185425Y-22651424D01*
X295223520Y-22727615D01*
X295299711Y-22803805D01*
X295413997Y-22841900D01*
X295490187Y-22841900D01*
X295604473Y-22803805D01*
X295642568Y-22765710D01*
X295642568Y-22499043D01*
X295490187Y-22499043D01*
X295985425Y-22841900D02*
X295985425Y-22041900D01*
X296442568Y-22841900D01*
X296442568Y-22041900D01*
X296823520Y-22841900D02*
X296823520Y-22041900D01*
X297013997Y-22041900D01*
X297128282Y-22079996D01*
X297204473Y-22156186D01*
X297242568Y-22232376D01*
X297280663Y-22384757D01*
X297280663Y-22499043D01*
X297242568Y-22651424D01*
X297204473Y-22727615D01*
X297128282Y-22803805D01*
X297013997Y-22841900D01*
X296823520Y-22841900D01*
X295623520Y-25381900D02*
X295623520Y-24581900D01*
X295813997Y-24581900D01*
X295928282Y-24619996D01*
X296004473Y-24696186D01*
X296042568Y-24772376D01*
X296080663Y-24924757D01*
X296080663Y-25039043D01*
X296042568Y-25191424D01*
X296004473Y-25267615D01*
X295928282Y-25343805D01*
X295813997Y-25381900D01*
X295623520Y-25381900D01*
X296842568Y-25381900D02*
X296385425Y-25381900D01*
X296613997Y-25381900D02*
X296613997Y-24581900D01*
X296537806Y-24696186D01*
X296461616Y-24772376D01*
X296385425Y-24810472D01*
X295623520Y-27921900D02*
X295623520Y-27121900D01*
X295813997Y-27121900D01*
X295928282Y-27159996D01*
X296004473Y-27236186D01*
X296042568Y-27312376D01*
X296080663Y-27464757D01*
X296080663Y-27579043D01*
X296042568Y-27731424D01*
X296004473Y-27807615D01*
X295928282Y-27883805D01*
X295813997Y-27921900D01*
X295623520Y-27921900D01*
X296575901Y-27121900D02*
X296652092Y-27121900D01*
X296728282Y-27159996D01*
X296766377Y-27198091D01*
X296804473Y-27274281D01*
X296842568Y-27426662D01*
X296842568Y-27617138D01*
X296804473Y-27769519D01*
X296766377Y-27845710D01*
X296728282Y-27883805D01*
X296652092Y-27921900D01*
X296575901Y-27921900D01*
X296499711Y-27883805D01*
X296461616Y-27845710D01*
X296423520Y-27769519D01*
X296385425Y-27617138D01*
X296385425Y-27426662D01*
X296423520Y-27274281D01*
X296461616Y-27198091D01*
X296499711Y-27159996D01*
X296575901Y-27121900D01*
X295623520Y-17761900D02*
X295623520Y-16961900D01*
X295813997Y-16961900D01*
X295928282Y-16999996D01*
X296004473Y-17076186D01*
X296042568Y-17152376D01*
X296080663Y-17304757D01*
X296080663Y-17419043D01*
X296042568Y-17571424D01*
X296004473Y-17647615D01*
X295928282Y-17723805D01*
X295813997Y-17761900D01*
X295623520Y-17761900D01*
X296385425Y-17038091D02*
X296423520Y-16999996D01*
X296499711Y-16961900D01*
X296690187Y-16961900D01*
X296766377Y-16999996D01*
X296804473Y-17038091D01*
X296842568Y-17114281D01*
X296842568Y-17190472D01*
X296804473Y-17304757D01*
X296347330Y-17761900D01*
X296842568Y-17761900D01*
X295912648Y-14421900D02*
X296369791Y-14421900D01*
X296141220Y-15221900D02*
X296141220Y-14421900D01*
X296560267Y-14421900D02*
X297093601Y-15221900D01*
X297093601Y-14421900D02*
X296560267Y-15221900D01*
X297550744Y-14421900D02*
X297626934Y-14421900D01*
X297703125Y-14459996D01*
X297741220Y-14498091D01*
X297779315Y-14574281D01*
X297817410Y-14726662D01*
X297817410Y-14917138D01*
X297779315Y-15069519D01*
X297741220Y-15145710D01*
X297703125Y-15183805D01*
X297626934Y-15221900D01*
X297550744Y-15221900D01*
X297474553Y-15183805D01*
X297436458Y-15145710D01*
X297398363Y-15069519D01*
X297360267Y-14917138D01*
X297360267Y-14726662D01*
X297398363Y-14574281D01*
X297436458Y-14498091D01*
X297474553Y-14459996D01*
X297550744Y-14421900D01*
X298731696Y-14383805D02*
X298045982Y-15412376D01*
X298998363Y-15221900D02*
X298998363Y-14421900D01*
X299188839Y-14421900D01*
X299303125Y-14459996D01*
X299379315Y-14536186D01*
X299417410Y-14612376D01*
X299455505Y-14764757D01*
X299455505Y-14879043D01*
X299417410Y-15031424D01*
X299379315Y-15107615D01*
X299303125Y-15183805D01*
X299188839Y-15221900D01*
X298998363Y-15221900D01*
X299722172Y-14421900D02*
X300217410Y-14421900D01*
X299950744Y-14726662D01*
X300065029Y-14726662D01*
X300141220Y-14764757D01*
X300179315Y-14802853D01*
X300217410Y-14879043D01*
X300217410Y-15069519D01*
X300179315Y-15145710D01*
X300141220Y-15183805D01*
X300065029Y-15221900D01*
X299836458Y-15221900D01*
X299760267Y-15183805D01*
X299722172Y-15145710D01*
X264224404Y-41300238D02*
X263424404Y-41300238D01*
X263424404Y-41109761D01*
X263462500Y-40995476D01*
X263538690Y-40919285D01*
X263614880Y-40881190D01*
X263767261Y-40843095D01*
X263881547Y-40843095D01*
X264033928Y-40881190D01*
X264110119Y-40919285D01*
X264186309Y-40995476D01*
X264224404Y-41109761D01*
X264224404Y-41300238D01*
X264300595Y-40690714D02*
X264300595Y-40081190D01*
X263691071Y-39928809D02*
X263691071Y-39357380D01*
X263348214Y-39700238D02*
X264376785Y-39928809D01*
X264033928Y-39433571D02*
X264033928Y-40005000D01*
X264376785Y-39662142D02*
X263348214Y-39433571D01*
X264224404Y-38671666D02*
X264224404Y-39128809D01*
X264224404Y-38900238D02*
X263424404Y-38900238D01*
X263538690Y-38976428D01*
X263614880Y-39052619D01*
X263652976Y-39128809D01*
X54674404Y-39338095D02*
X53874404Y-39338095D01*
X53874404Y-39147619D01*
X53912500Y-39033333D01*
X53988690Y-38957142D01*
X54064880Y-38919047D01*
X54217261Y-38880952D01*
X54331547Y-38880952D01*
X54483928Y-38919047D01*
X54560119Y-38957142D01*
X54636309Y-39033333D01*
X54674404Y-39147619D01*
X54674404Y-39338095D01*
X54750595Y-38728571D02*
X54750595Y-38119047D01*
X54445833Y-37966666D02*
X54445833Y-37585714D01*
X54674404Y-38042857D02*
X53874404Y-37776190D01*
X54674404Y-37509523D01*
X54674404Y-36823809D02*
X54674404Y-37280952D01*
X54674404Y-37052380D02*
X53874404Y-37052380D01*
X53988690Y-37128571D01*
X54064880Y-37204761D01*
X54102976Y-37280952D01*
X113729404Y-78066666D02*
X112929404Y-78066666D01*
X112929404Y-77876190D01*
X112967500Y-77761904D01*
X113043690Y-77685714D01*
X113119880Y-77647619D01*
X113272261Y-77609523D01*
X113386547Y-77609523D01*
X113538928Y-77647619D01*
X113615119Y-77685714D01*
X113691309Y-77761904D01*
X113729404Y-77876190D01*
X113729404Y-78066666D01*
X113805595Y-77457142D02*
X113805595Y-76847619D01*
X113500833Y-76695238D02*
X113500833Y-76314285D01*
X113729404Y-76771428D02*
X112929404Y-76504761D01*
X113729404Y-76238095D01*
X113729404Y-75590476D02*
X113729404Y-75971428D01*
X112929404Y-75971428D01*
X112929404Y-75438095D02*
X112929404Y-74980952D01*
X113729404Y-75209523D02*
X112929404Y-75209523D01*
X113729404Y-74295238D02*
X113729404Y-74752380D01*
X113729404Y-74523809D02*
X112929404Y-74523809D01*
X113043690Y-74600000D01*
X113119880Y-74676190D01*
X113157976Y-74752380D01*
X145161904Y-60350238D02*
X144361904Y-60350238D01*
X144361904Y-60159761D01*
X144400000Y-60045476D01*
X144476190Y-59969285D01*
X144552380Y-59931190D01*
X144704761Y-59893095D01*
X144819047Y-59893095D01*
X144971428Y-59931190D01*
X145047619Y-59969285D01*
X145123809Y-60045476D01*
X145161904Y-60159761D01*
X145161904Y-60350238D01*
X145238095Y-59740714D02*
X145238095Y-59131190D01*
X144742857Y-58674047D02*
X144780952Y-58559761D01*
X144819047Y-58521666D01*
X144895238Y-58483571D01*
X145009523Y-58483571D01*
X145085714Y-58521666D01*
X145123809Y-58559761D01*
X145161904Y-58635952D01*
X145161904Y-58940714D01*
X144361904Y-58940714D01*
X144361904Y-58674047D01*
X144400000Y-58597857D01*
X144438095Y-58559761D01*
X144514285Y-58521666D01*
X144590476Y-58521666D01*
X144666666Y-58559761D01*
X144704761Y-58597857D01*
X144742857Y-58674047D01*
X144742857Y-58940714D01*
X145161904Y-57721666D02*
X145161904Y-58178809D01*
X145161904Y-57950238D02*
X144361904Y-57950238D01*
X144476190Y-58026428D01*
X144552380Y-58102619D01*
X144590476Y-58178809D01*
X49911904Y-59950000D02*
X49111904Y-59950000D01*
X49111904Y-59759523D01*
X49150000Y-59645238D01*
X49226190Y-59569047D01*
X49302380Y-59530952D01*
X49454761Y-59492857D01*
X49569047Y-59492857D01*
X49721428Y-59530952D01*
X49797619Y-59569047D01*
X49873809Y-59645238D01*
X49911904Y-59759523D01*
X49911904Y-59950000D01*
X49988095Y-59340476D02*
X49988095Y-58730952D01*
X49492857Y-58273809D02*
X49530952Y-58159523D01*
X49569047Y-58121428D01*
X49645238Y-58083333D01*
X49759523Y-58083333D01*
X49835714Y-58121428D01*
X49873809Y-58159523D01*
X49911904Y-58235714D01*
X49911904Y-58540476D01*
X49111904Y-58540476D01*
X49111904Y-58273809D01*
X49150000Y-58197619D01*
X49188095Y-58159523D01*
X49264285Y-58121428D01*
X49340476Y-58121428D01*
X49416666Y-58159523D01*
X49454761Y-58197619D01*
X49492857Y-58273809D01*
X49492857Y-58540476D01*
X49873809Y-57778571D02*
X49911904Y-57664285D01*
X49911904Y-57473809D01*
X49873809Y-57397619D01*
X49835714Y-57359523D01*
X49759523Y-57321428D01*
X49683333Y-57321428D01*
X49607142Y-57359523D01*
X49569047Y-57397619D01*
X49530952Y-57473809D01*
X49492857Y-57626190D01*
X49454761Y-57702380D01*
X49416666Y-57740476D01*
X49340476Y-57778571D01*
X49264285Y-57778571D01*
X49188095Y-57740476D01*
X49150000Y-57702380D01*
X49111904Y-57626190D01*
X49111904Y-57435714D01*
X49150000Y-57321428D01*
X49911904Y-56597619D02*
X49911904Y-56978571D01*
X49111904Y-56978571D01*
X49873809Y-56369047D02*
X49911904Y-56254761D01*
X49911904Y-56064285D01*
X49873809Y-55988095D01*
X49835714Y-55950000D01*
X49759523Y-55911904D01*
X49683333Y-55911904D01*
X49607142Y-55950000D01*
X49569047Y-55988095D01*
X49530952Y-56064285D01*
X49492857Y-56216666D01*
X49454761Y-56292857D01*
X49416666Y-56330952D01*
X49340476Y-56369047D01*
X49264285Y-56369047D01*
X49188095Y-56330952D01*
X49150000Y-56292857D01*
X49111904Y-56216666D01*
X49111904Y-56026190D01*
X49150000Y-55911904D01*
X49911904Y-55569047D02*
X49111904Y-55569047D01*
X49492857Y-55569047D02*
X49492857Y-55111904D01*
X49911904Y-55111904D02*
X49111904Y-55111904D01*
X49911904Y-54311904D02*
X49911904Y-54769047D01*
X49911904Y-54540476D02*
X49111904Y-54540476D01*
X49226190Y-54616666D01*
X49302380Y-54692857D01*
X49340476Y-54769047D01*
X230886904Y-78428571D02*
X230086904Y-78428571D01*
X230086904Y-78238095D01*
X230125000Y-78123809D01*
X230201190Y-78047619D01*
X230277380Y-78009523D01*
X230429761Y-77971428D01*
X230544047Y-77971428D01*
X230696428Y-78009523D01*
X230772619Y-78047619D01*
X230848809Y-78123809D01*
X230886904Y-78238095D01*
X230886904Y-78428571D01*
X230963095Y-77819047D02*
X230963095Y-77209523D01*
X230886904Y-76638095D02*
X230886904Y-77019047D01*
X230086904Y-77019047D01*
X230467857Y-76371428D02*
X230467857Y-76104761D01*
X230886904Y-75990476D02*
X230886904Y-76371428D01*
X230086904Y-76371428D01*
X230086904Y-75990476D01*
X230467857Y-75380952D02*
X230467857Y-75647619D01*
X230886904Y-75647619D02*
X230086904Y-75647619D01*
X230086904Y-75266666D01*
X230086904Y-75076190D02*
X230086904Y-74619047D01*
X230886904Y-74847619D02*
X230086904Y-74847619D01*
X230886904Y-73933333D02*
X230886904Y-74390476D01*
X230886904Y-74161904D02*
X230086904Y-74161904D01*
X230201190Y-74238095D01*
X230277380Y-74314285D01*
X230315476Y-74390476D01*
X107061904Y-60350238D02*
X106261904Y-60350238D01*
X106261904Y-60159761D01*
X106300000Y-60045476D01*
X106376190Y-59969285D01*
X106452380Y-59931190D01*
X106604761Y-59893095D01*
X106719047Y-59893095D01*
X106871428Y-59931190D01*
X106947619Y-59969285D01*
X107023809Y-60045476D01*
X107061904Y-60159761D01*
X107061904Y-60350238D01*
X107138095Y-59740714D02*
X107138095Y-59131190D01*
X106985714Y-58483571D02*
X107023809Y-58521666D01*
X107061904Y-58635952D01*
X107061904Y-58712142D01*
X107023809Y-58826428D01*
X106947619Y-58902619D01*
X106871428Y-58940714D01*
X106719047Y-58978809D01*
X106604761Y-58978809D01*
X106452380Y-58940714D01*
X106376190Y-58902619D01*
X106300000Y-58826428D01*
X106261904Y-58712142D01*
X106261904Y-58635952D01*
X106300000Y-58521666D01*
X106338095Y-58483571D01*
X107061904Y-57721666D02*
X107061904Y-58178809D01*
X107061904Y-57950238D02*
X106261904Y-57950238D01*
X106376190Y-58026428D01*
X106452380Y-58102619D01*
X106490476Y-58178809D01*
X240411904Y-21888095D02*
X239611904Y-21888095D01*
X239611904Y-21697619D01*
X239650000Y-21583333D01*
X239726190Y-21507142D01*
X239802380Y-21469047D01*
X239954761Y-21430952D01*
X240069047Y-21430952D01*
X240221428Y-21469047D01*
X240297619Y-21507142D01*
X240373809Y-21583333D01*
X240411904Y-21697619D01*
X240411904Y-21888095D01*
X240488095Y-21278571D02*
X240488095Y-20669047D01*
X240335714Y-20021428D02*
X240373809Y-20059523D01*
X240411904Y-20173809D01*
X240411904Y-20250000D01*
X240373809Y-20364285D01*
X240297619Y-20440476D01*
X240221428Y-20478571D01*
X240069047Y-20516666D01*
X239954761Y-20516666D01*
X239802380Y-20478571D01*
X239726190Y-20440476D01*
X239650000Y-20364285D01*
X239611904Y-20250000D01*
X239611904Y-20173809D01*
X239650000Y-20059523D01*
X239688095Y-20021428D01*
X239992857Y-19411904D02*
X240030952Y-19297619D01*
X240069047Y-19259523D01*
X240145238Y-19221428D01*
X240259523Y-19221428D01*
X240335714Y-19259523D01*
X240373809Y-19297619D01*
X240411904Y-19373809D01*
X240411904Y-19678571D01*
X239611904Y-19678571D01*
X239611904Y-19411904D01*
X239650000Y-19335714D01*
X239688095Y-19297619D01*
X239764285Y-19259523D01*
X239840476Y-19259523D01*
X239916666Y-19297619D01*
X239954761Y-19335714D01*
X239992857Y-19411904D01*
X239992857Y-19678571D01*
X240411904Y-18421428D02*
X240030952Y-18688095D01*
X240411904Y-18878571D02*
X239611904Y-18878571D01*
X239611904Y-18573809D01*
X239650000Y-18497619D01*
X239688095Y-18459523D01*
X239764285Y-18421428D01*
X239878571Y-18421428D01*
X239954761Y-18459523D01*
X239992857Y-18497619D01*
X240030952Y-18573809D01*
X240030952Y-18878571D01*
X240183333Y-18116666D02*
X240183333Y-17735714D01*
X240411904Y-18192857D02*
X239611904Y-17926190D01*
X240411904Y-17659523D01*
X240335714Y-16935714D02*
X240373809Y-16973809D01*
X240411904Y-17088095D01*
X240411904Y-17164285D01*
X240373809Y-17278571D01*
X240297619Y-17354761D01*
X240221428Y-17392857D01*
X240069047Y-17430952D01*
X239954761Y-17430952D01*
X239802380Y-17392857D01*
X239726190Y-17354761D01*
X239650000Y-17278571D01*
X239611904Y-17164285D01*
X239611904Y-17088095D01*
X239650000Y-16973809D01*
X239688095Y-16935714D01*
X240411904Y-16173809D02*
X240411904Y-16630952D01*
X240411904Y-16402380D02*
X239611904Y-16402380D01*
X239726190Y-16478571D01*
X239802380Y-16554761D01*
X239840476Y-16630952D01*
X202311904Y-60121428D02*
X201511904Y-60121428D01*
X201511904Y-59930952D01*
X201550000Y-59816666D01*
X201626190Y-59740476D01*
X201702380Y-59702380D01*
X201854761Y-59664285D01*
X201969047Y-59664285D01*
X202121428Y-59702380D01*
X202197619Y-59740476D01*
X202273809Y-59816666D01*
X202311904Y-59930952D01*
X202311904Y-60121428D01*
X202388095Y-59511904D02*
X202388095Y-58902380D01*
X202235714Y-58254761D02*
X202273809Y-58292857D01*
X202311904Y-58407142D01*
X202311904Y-58483333D01*
X202273809Y-58597619D01*
X202197619Y-58673809D01*
X202121428Y-58711904D01*
X201969047Y-58750000D01*
X201854761Y-58750000D01*
X201702380Y-58711904D01*
X201626190Y-58673809D01*
X201550000Y-58597619D01*
X201511904Y-58483333D01*
X201511904Y-58407142D01*
X201550000Y-58292857D01*
X201588095Y-58254761D01*
X201511904Y-57759523D02*
X201511904Y-57607142D01*
X201550000Y-57530952D01*
X201626190Y-57454761D01*
X201778571Y-57416666D01*
X202045238Y-57416666D01*
X202197619Y-57454761D01*
X202273809Y-57530952D01*
X202311904Y-57607142D01*
X202311904Y-57759523D01*
X202273809Y-57835714D01*
X202197619Y-57911904D01*
X202045238Y-57950000D01*
X201778571Y-57950000D01*
X201626190Y-57911904D01*
X201550000Y-57835714D01*
X201511904Y-57759523D01*
X202311904Y-57073809D02*
X201511904Y-57073809D01*
X202083333Y-56807142D01*
X201511904Y-56540476D01*
X202311904Y-56540476D01*
X202311904Y-56159523D02*
X201511904Y-56159523D01*
X202083333Y-55892857D01*
X201511904Y-55626190D01*
X202311904Y-55626190D01*
X202083333Y-55283333D02*
X202083333Y-54902380D01*
X202311904Y-55359523D02*
X201511904Y-55092857D01*
X202311904Y-54826190D01*
X202311904Y-54140476D02*
X202311904Y-54597619D01*
X202311904Y-54369047D02*
X201511904Y-54369047D01*
X201626190Y-54445238D01*
X201702380Y-54521428D01*
X201740476Y-54597619D01*
X35624404Y-80428809D02*
X34824404Y-80428809D01*
X34824404Y-80238333D01*
X34862500Y-80124047D01*
X34938690Y-80047857D01*
X35014880Y-80009761D01*
X35167261Y-79971666D01*
X35281547Y-79971666D01*
X35433928Y-80009761D01*
X35510119Y-80047857D01*
X35586309Y-80124047D01*
X35624404Y-80238333D01*
X35624404Y-80428809D01*
X35700595Y-79819285D02*
X35700595Y-79209761D01*
X35548214Y-78562142D02*
X35586309Y-78600238D01*
X35624404Y-78714523D01*
X35624404Y-78790714D01*
X35586309Y-78905000D01*
X35510119Y-78981190D01*
X35433928Y-79019285D01*
X35281547Y-79057380D01*
X35167261Y-79057380D01*
X35014880Y-79019285D01*
X34938690Y-78981190D01*
X34862500Y-78905000D01*
X34824404Y-78790714D01*
X34824404Y-78714523D01*
X34862500Y-78600238D01*
X34900595Y-78562142D01*
X34824404Y-78333571D02*
X34824404Y-77876428D01*
X35624404Y-78105000D02*
X34824404Y-78105000D01*
X35624404Y-77152619D02*
X35243452Y-77419285D01*
X35624404Y-77609761D02*
X34824404Y-77609761D01*
X34824404Y-77305000D01*
X34862500Y-77228809D01*
X34900595Y-77190714D01*
X34976785Y-77152619D01*
X35091071Y-77152619D01*
X35167261Y-77190714D01*
X35205357Y-77228809D01*
X35243452Y-77305000D01*
X35243452Y-77609761D01*
X35624404Y-76428809D02*
X35624404Y-76809761D01*
X34824404Y-76809761D01*
X35624404Y-75743095D02*
X35624404Y-76200238D01*
X35624404Y-75971666D02*
X34824404Y-75971666D01*
X34938690Y-76047857D01*
X35014880Y-76124047D01*
X35052976Y-76200238D01*
X92774404Y-39395238D02*
X91974404Y-39395238D01*
X91974404Y-39204761D01*
X92012500Y-39090476D01*
X92088690Y-39014285D01*
X92164880Y-38976190D01*
X92317261Y-38938095D01*
X92431547Y-38938095D01*
X92583928Y-38976190D01*
X92660119Y-39014285D01*
X92736309Y-39090476D01*
X92774404Y-39204761D01*
X92774404Y-39395238D01*
X92850595Y-38785714D02*
X92850595Y-38176190D01*
X92774404Y-37985714D02*
X91974404Y-37985714D01*
X91974404Y-37795238D01*
X92012500Y-37680952D01*
X92088690Y-37604761D01*
X92164880Y-37566666D01*
X92317261Y-37528571D01*
X92431547Y-37528571D01*
X92583928Y-37566666D01*
X92660119Y-37604761D01*
X92736309Y-37680952D01*
X92774404Y-37795238D01*
X92774404Y-37985714D01*
X92774404Y-36766666D02*
X92774404Y-37223809D01*
X92774404Y-36995238D02*
X91974404Y-36995238D01*
X92088690Y-37071428D01*
X92164880Y-37147619D01*
X92202976Y-37223809D01*
X221361904Y-61074047D02*
X220561904Y-61074047D01*
X220561904Y-60883571D01*
X220600000Y-60769285D01*
X220676190Y-60693095D01*
X220752380Y-60655000D01*
X220904761Y-60616904D01*
X221019047Y-60616904D01*
X221171428Y-60655000D01*
X221247619Y-60693095D01*
X221323809Y-60769285D01*
X221361904Y-60883571D01*
X221361904Y-61074047D01*
X221438095Y-60464523D02*
X221438095Y-59855000D01*
X221361904Y-59664523D02*
X220561904Y-59664523D01*
X220561904Y-59474047D01*
X220600000Y-59359761D01*
X220676190Y-59283571D01*
X220752380Y-59245476D01*
X220904761Y-59207380D01*
X221019047Y-59207380D01*
X221171428Y-59245476D01*
X221247619Y-59283571D01*
X221323809Y-59359761D01*
X221361904Y-59474047D01*
X221361904Y-59664523D01*
X220561904Y-58712142D02*
X220561904Y-58559761D01*
X220600000Y-58483571D01*
X220676190Y-58407380D01*
X220828571Y-58369285D01*
X221095238Y-58369285D01*
X221247619Y-58407380D01*
X221323809Y-58483571D01*
X221361904Y-58559761D01*
X221361904Y-58712142D01*
X221323809Y-58788333D01*
X221247619Y-58864523D01*
X221095238Y-58902619D01*
X220828571Y-58902619D01*
X220676190Y-58864523D01*
X220600000Y-58788333D01*
X220561904Y-58712142D01*
X220561904Y-58140714D02*
X220561904Y-57683571D01*
X221361904Y-57912142D02*
X220561904Y-57912142D01*
X221361904Y-56997857D02*
X221361904Y-57455000D01*
X221361904Y-57226428D02*
X220561904Y-57226428D01*
X220676190Y-57302619D01*
X220752380Y-57378809D01*
X220790476Y-57455000D01*
X249936904Y-78790476D02*
X249136904Y-78790476D01*
X249136904Y-78600000D01*
X249175000Y-78485714D01*
X249251190Y-78409523D01*
X249327380Y-78371428D01*
X249479761Y-78333333D01*
X249594047Y-78333333D01*
X249746428Y-78371428D01*
X249822619Y-78409523D01*
X249898809Y-78485714D01*
X249936904Y-78600000D01*
X249936904Y-78790476D01*
X250013095Y-78180952D02*
X250013095Y-77571428D01*
X249936904Y-77380952D02*
X249136904Y-77380952D01*
X249136904Y-77190476D01*
X249175000Y-77076190D01*
X249251190Y-77000000D01*
X249327380Y-76961904D01*
X249479761Y-76923809D01*
X249594047Y-76923809D01*
X249746428Y-76961904D01*
X249822619Y-77000000D01*
X249898809Y-77076190D01*
X249936904Y-77190476D01*
X249936904Y-77380952D01*
X249136904Y-76428571D02*
X249136904Y-76276190D01*
X249175000Y-76200000D01*
X249251190Y-76123809D01*
X249403571Y-76085714D01*
X249670238Y-76085714D01*
X249822619Y-76123809D01*
X249898809Y-76200000D01*
X249936904Y-76276190D01*
X249936904Y-76428571D01*
X249898809Y-76504761D01*
X249822619Y-76580952D01*
X249670238Y-76619047D01*
X249403571Y-76619047D01*
X249251190Y-76580952D01*
X249175000Y-76504761D01*
X249136904Y-76428571D01*
X249136904Y-75819047D02*
X249936904Y-75628571D01*
X249365476Y-75476190D01*
X249936904Y-75323809D01*
X249136904Y-75133333D01*
X249936904Y-74828571D02*
X249136904Y-74828571D01*
X249936904Y-74371428D01*
X249136904Y-74371428D01*
X249936904Y-73571428D02*
X249936904Y-74028571D01*
X249936904Y-73800000D02*
X249136904Y-73800000D01*
X249251190Y-73876190D01*
X249327380Y-73952380D01*
X249365476Y-74028571D01*
X88011904Y-20307142D02*
X87211904Y-20307142D01*
X87211904Y-20116666D01*
X87250000Y-20002380D01*
X87326190Y-19926190D01*
X87402380Y-19888095D01*
X87554761Y-19850000D01*
X87669047Y-19850000D01*
X87821428Y-19888095D01*
X87897619Y-19926190D01*
X87973809Y-20002380D01*
X88011904Y-20116666D01*
X88011904Y-20307142D01*
X88088095Y-19697619D02*
X88088095Y-19088095D01*
X87592857Y-18897619D02*
X87592857Y-18630952D01*
X88011904Y-18516666D02*
X88011904Y-18897619D01*
X87211904Y-18897619D01*
X87211904Y-18516666D01*
X88011904Y-17754761D02*
X88011904Y-18211904D01*
X88011904Y-17983333D02*
X87211904Y-17983333D01*
X87326190Y-18059523D01*
X87402380Y-18135714D01*
X87440476Y-18211904D01*
X263271904Y-21792857D02*
X262471904Y-21792857D01*
X262471904Y-21602380D01*
X262510000Y-21488095D01*
X262586190Y-21411904D01*
X262662380Y-21373809D01*
X262814761Y-21335714D01*
X262929047Y-21335714D01*
X263081428Y-21373809D01*
X263157619Y-21411904D01*
X263233809Y-21488095D01*
X263271904Y-21602380D01*
X263271904Y-21792857D01*
X263348095Y-21183333D02*
X263348095Y-20573809D01*
X262852857Y-20383333D02*
X262852857Y-20116666D01*
X263271904Y-20002380D02*
X263271904Y-20383333D01*
X262471904Y-20383333D01*
X262471904Y-20002380D01*
X263271904Y-19659523D02*
X262471904Y-19659523D01*
X263271904Y-19202380D01*
X262471904Y-19202380D01*
X262471904Y-18935714D02*
X262471904Y-18478571D01*
X263271904Y-18707142D02*
X262471904Y-18707142D01*
X262852857Y-18211904D02*
X262852857Y-17945238D01*
X263271904Y-17830952D02*
X263271904Y-18211904D01*
X262471904Y-18211904D01*
X262471904Y-17830952D01*
X263271904Y-17030952D02*
X262890952Y-17297619D01*
X263271904Y-17488095D02*
X262471904Y-17488095D01*
X262471904Y-17183333D01*
X262510000Y-17107142D01*
X262548095Y-17069047D01*
X262624285Y-17030952D01*
X262738571Y-17030952D01*
X262814761Y-17069047D01*
X262852857Y-17107142D01*
X262890952Y-17183333D01*
X262890952Y-17488095D01*
X263271904Y-16269047D02*
X263271904Y-16726190D01*
X263271904Y-16497619D02*
X262471904Y-16497619D01*
X262586190Y-16573809D01*
X262662380Y-16650000D01*
X262700476Y-16726190D01*
X30861904Y-22993095D02*
X30061904Y-22993095D01*
X30061904Y-22802619D01*
X30100000Y-22688333D01*
X30176190Y-22612142D01*
X30252380Y-22574047D01*
X30404761Y-22535952D01*
X30519047Y-22535952D01*
X30671428Y-22574047D01*
X30747619Y-22612142D01*
X30823809Y-22688333D01*
X30861904Y-22802619D01*
X30861904Y-22993095D01*
X30938095Y-22383571D02*
X30938095Y-21774047D01*
X30442857Y-21583571D02*
X30442857Y-21316904D01*
X30861904Y-21202619D02*
X30861904Y-21583571D01*
X30061904Y-21583571D01*
X30061904Y-21202619D01*
X30823809Y-20897857D02*
X30861904Y-20783571D01*
X30861904Y-20593095D01*
X30823809Y-20516904D01*
X30785714Y-20478809D01*
X30709523Y-20440714D01*
X30633333Y-20440714D01*
X30557142Y-20478809D01*
X30519047Y-20516904D01*
X30480952Y-20593095D01*
X30442857Y-20745476D01*
X30404761Y-20821666D01*
X30366666Y-20859761D01*
X30290476Y-20897857D01*
X30214285Y-20897857D01*
X30138095Y-20859761D01*
X30100000Y-20821666D01*
X30061904Y-20745476D01*
X30061904Y-20555000D01*
X30100000Y-20440714D01*
X30785714Y-19640714D02*
X30823809Y-19678809D01*
X30861904Y-19793095D01*
X30861904Y-19869285D01*
X30823809Y-19983571D01*
X30747619Y-20059761D01*
X30671428Y-20097857D01*
X30519047Y-20135952D01*
X30404761Y-20135952D01*
X30252380Y-20097857D01*
X30176190Y-20059761D01*
X30100000Y-19983571D01*
X30061904Y-19869285D01*
X30061904Y-19793095D01*
X30100000Y-19678809D01*
X30138095Y-19640714D01*
X30861904Y-18878809D02*
X30861904Y-19335952D01*
X30861904Y-19107380D02*
X30061904Y-19107380D01*
X30176190Y-19183571D01*
X30252380Y-19259761D01*
X30290476Y-19335952D01*
X111824404Y-41243095D02*
X111024404Y-41243095D01*
X111024404Y-41052619D01*
X111062500Y-40938333D01*
X111138690Y-40862142D01*
X111214880Y-40824047D01*
X111367261Y-40785952D01*
X111481547Y-40785952D01*
X111633928Y-40824047D01*
X111710119Y-40862142D01*
X111786309Y-40938333D01*
X111824404Y-41052619D01*
X111824404Y-41243095D01*
X111900595Y-40633571D02*
X111900595Y-40024047D01*
X111405357Y-39566904D02*
X111405357Y-39833571D01*
X111824404Y-39833571D02*
X111024404Y-39833571D01*
X111024404Y-39452619D01*
X111824404Y-38728809D02*
X111824404Y-39185952D01*
X111824404Y-38957380D02*
X111024404Y-38957380D01*
X111138690Y-39033571D01*
X111214880Y-39109761D01*
X111252976Y-39185952D01*
X130874404Y-39395238D02*
X130074404Y-39395238D01*
X130074404Y-39204761D01*
X130112500Y-39090476D01*
X130188690Y-39014285D01*
X130264880Y-38976190D01*
X130417261Y-38938095D01*
X130531547Y-38938095D01*
X130683928Y-38976190D01*
X130760119Y-39014285D01*
X130836309Y-39090476D01*
X130874404Y-39204761D01*
X130874404Y-39395238D01*
X130950595Y-38785714D02*
X130950595Y-38176190D01*
X130112500Y-37566666D02*
X130074404Y-37642857D01*
X130074404Y-37757142D01*
X130112500Y-37871428D01*
X130188690Y-37947619D01*
X130264880Y-37985714D01*
X130417261Y-38023809D01*
X130531547Y-38023809D01*
X130683928Y-37985714D01*
X130760119Y-37947619D01*
X130836309Y-37871428D01*
X130874404Y-37757142D01*
X130874404Y-37680952D01*
X130836309Y-37566666D01*
X130798214Y-37528571D01*
X130531547Y-37528571D01*
X130531547Y-37680952D01*
X130874404Y-36766666D02*
X130874404Y-37223809D01*
X130874404Y-36995238D02*
X130074404Y-36995238D01*
X130188690Y-37071428D01*
X130264880Y-37147619D01*
X130302976Y-37223809D01*
X149924404Y-41319285D02*
X149124404Y-41319285D01*
X149124404Y-41128809D01*
X149162500Y-41014523D01*
X149238690Y-40938333D01*
X149314880Y-40900238D01*
X149467261Y-40862142D01*
X149581547Y-40862142D01*
X149733928Y-40900238D01*
X149810119Y-40938333D01*
X149886309Y-41014523D01*
X149924404Y-41128809D01*
X149924404Y-41319285D01*
X150000595Y-40709761D02*
X150000595Y-40100238D01*
X149924404Y-39909761D02*
X149124404Y-39909761D01*
X149505357Y-39909761D02*
X149505357Y-39452619D01*
X149924404Y-39452619D02*
X149124404Y-39452619D01*
X149924404Y-38652619D02*
X149924404Y-39109761D01*
X149924404Y-38881190D02*
X149124404Y-38881190D01*
X149238690Y-38957380D01*
X149314880Y-39033571D01*
X149352976Y-39109761D01*
X183261904Y-22040714D02*
X182461904Y-22040714D01*
X182461904Y-21850238D01*
X182500000Y-21735952D01*
X182576190Y-21659761D01*
X182652380Y-21621666D01*
X182804761Y-21583571D01*
X182919047Y-21583571D01*
X183071428Y-21621666D01*
X183147619Y-21659761D01*
X183223809Y-21735952D01*
X183261904Y-21850238D01*
X183261904Y-22040714D01*
X183338095Y-21431190D02*
X183338095Y-20821666D01*
X183261904Y-20631190D02*
X182461904Y-20631190D01*
X183261904Y-19831190D02*
X183261904Y-20288333D01*
X183261904Y-20059761D02*
X182461904Y-20059761D01*
X182576190Y-20135952D01*
X182652380Y-20212142D01*
X182690476Y-20288333D01*
X168974404Y-39368750D02*
X168174404Y-39368750D01*
X168174404Y-39178273D01*
X168212500Y-39063988D01*
X168288690Y-38987797D01*
X168364880Y-38949702D01*
X168517261Y-38911607D01*
X168631547Y-38911607D01*
X168783928Y-38949702D01*
X168860119Y-38987797D01*
X168936309Y-39063988D01*
X168974404Y-39178273D01*
X168974404Y-39368750D01*
X169050595Y-38759226D02*
X169050595Y-38149702D01*
X168174404Y-37730654D02*
X168745833Y-37730654D01*
X168860119Y-37768750D01*
X168936309Y-37844940D01*
X168974404Y-37959226D01*
X168974404Y-38035416D01*
X168974404Y-36930654D02*
X168974404Y-37387797D01*
X168974404Y-37159226D02*
X168174404Y-37159226D01*
X168288690Y-37235416D01*
X168364880Y-37311607D01*
X168402976Y-37387797D01*
X188024404Y-41210238D02*
X187224404Y-41210238D01*
X187224404Y-41019761D01*
X187262500Y-40905476D01*
X187338690Y-40829285D01*
X187414880Y-40791190D01*
X187567261Y-40753095D01*
X187681547Y-40753095D01*
X187833928Y-40791190D01*
X187910119Y-40829285D01*
X187986309Y-40905476D01*
X188024404Y-41019761D01*
X188024404Y-41210238D01*
X188100595Y-40600714D02*
X188100595Y-39991190D01*
X188024404Y-39800714D02*
X187224404Y-39800714D01*
X188024404Y-39343571D02*
X187567261Y-39686428D01*
X187224404Y-39343571D02*
X187681547Y-39800714D01*
X188024404Y-38581666D02*
X188024404Y-39038809D01*
X188024404Y-38810238D02*
X187224404Y-38810238D01*
X187338690Y-38886428D01*
X187414880Y-38962619D01*
X187452976Y-39038809D01*
X207074404Y-39319047D02*
X206274404Y-39319047D01*
X206274404Y-39128571D01*
X206312500Y-39014285D01*
X206388690Y-38938095D01*
X206464880Y-38900000D01*
X206617261Y-38861904D01*
X206731547Y-38861904D01*
X206883928Y-38900000D01*
X206960119Y-38938095D01*
X207036309Y-39014285D01*
X207074404Y-39128571D01*
X207074404Y-39319047D01*
X207150595Y-38709523D02*
X207150595Y-38100000D01*
X207074404Y-37528571D02*
X207074404Y-37909523D01*
X206274404Y-37909523D01*
X207074404Y-36842857D02*
X207074404Y-37300000D01*
X207074404Y-37071428D02*
X206274404Y-37071428D01*
X206388690Y-37147619D01*
X206464880Y-37223809D01*
X206502976Y-37300000D01*
X54674404Y-78866666D02*
X53874404Y-78866666D01*
X53874404Y-78676190D01*
X53912500Y-78561904D01*
X53988690Y-78485714D01*
X54064880Y-78447619D01*
X54217261Y-78409523D01*
X54331547Y-78409523D01*
X54483928Y-78447619D01*
X54560119Y-78485714D01*
X54636309Y-78561904D01*
X54674404Y-78676190D01*
X54674404Y-78866666D01*
X54750595Y-78257142D02*
X54750595Y-77647619D01*
X54674404Y-77076190D02*
X54674404Y-77457142D01*
X53874404Y-77457142D01*
X54445833Y-76847619D02*
X54445833Y-76466666D01*
X54674404Y-76923809D02*
X53874404Y-76657142D01*
X54674404Y-76390476D01*
X54293452Y-75971428D02*
X54674404Y-75971428D01*
X53874404Y-76238095D02*
X54293452Y-75971428D01*
X53874404Y-75704761D01*
X54255357Y-75438095D02*
X54255357Y-75171428D01*
X54674404Y-75057142D02*
X54674404Y-75438095D01*
X53874404Y-75438095D01*
X53874404Y-75057142D01*
X54674404Y-74257142D02*
X54293452Y-74523809D01*
X54674404Y-74714285D02*
X53874404Y-74714285D01*
X53874404Y-74409523D01*
X53912500Y-74333333D01*
X53950595Y-74295238D01*
X54026785Y-74257142D01*
X54141071Y-74257142D01*
X54217261Y-74295238D01*
X54255357Y-74333333D01*
X54293452Y-74409523D01*
X54293452Y-74714285D01*
X54674404Y-73495238D02*
X54674404Y-73952380D01*
X54674404Y-73723809D02*
X53874404Y-73723809D01*
X53988690Y-73800000D01*
X54064880Y-73876190D01*
X54102976Y-73952380D01*
X262319404Y-61721666D02*
X261519404Y-61721666D01*
X261519404Y-61531190D01*
X261557500Y-61416904D01*
X261633690Y-61340714D01*
X261709880Y-61302619D01*
X261862261Y-61264523D01*
X261976547Y-61264523D01*
X262128928Y-61302619D01*
X262205119Y-61340714D01*
X262281309Y-61416904D01*
X262319404Y-61531190D01*
X262319404Y-61721666D01*
X262395595Y-61112142D02*
X262395595Y-60502619D01*
X262319404Y-59931190D02*
X262319404Y-60312142D01*
X261519404Y-60312142D01*
X262090833Y-59702619D02*
X262090833Y-59321666D01*
X262319404Y-59778809D02*
X261519404Y-59512142D01*
X262319404Y-59245476D01*
X261938452Y-58826428D02*
X262319404Y-58826428D01*
X261519404Y-59093095D02*
X261938452Y-58826428D01*
X261519404Y-58559761D01*
X261900357Y-58293095D02*
X261900357Y-58026428D01*
X262319404Y-57912142D02*
X262319404Y-58293095D01*
X261519404Y-58293095D01*
X261519404Y-57912142D01*
X262319404Y-57112142D02*
X261938452Y-57378809D01*
X262319404Y-57569285D02*
X261519404Y-57569285D01*
X261519404Y-57264523D01*
X261557500Y-57188333D01*
X261595595Y-57150238D01*
X261671785Y-57112142D01*
X261786071Y-57112142D01*
X261862261Y-57150238D01*
X261900357Y-57188333D01*
X261938452Y-57264523D01*
X261938452Y-57569285D01*
X261519404Y-56845476D02*
X261519404Y-56350238D01*
X261824166Y-56616904D01*
X261824166Y-56502619D01*
X261862261Y-56426428D01*
X261900357Y-56388333D01*
X261976547Y-56350238D01*
X262167023Y-56350238D01*
X262243214Y-56388333D01*
X262281309Y-56426428D01*
X262319404Y-56502619D01*
X262319404Y-56731190D01*
X262281309Y-56807380D01*
X262243214Y-56845476D01*
X183261904Y-60407380D02*
X182461904Y-60407380D01*
X182461904Y-60216904D01*
X182500000Y-60102619D01*
X182576190Y-60026428D01*
X182652380Y-59988333D01*
X182804761Y-59950238D01*
X182919047Y-59950238D01*
X183071428Y-59988333D01*
X183147619Y-60026428D01*
X183223809Y-60102619D01*
X183261904Y-60216904D01*
X183261904Y-60407380D01*
X183338095Y-59797857D02*
X183338095Y-59188333D01*
X183261904Y-58997857D02*
X182461904Y-58997857D01*
X183033333Y-58731190D01*
X182461904Y-58464523D01*
X183261904Y-58464523D01*
X183261904Y-57664523D02*
X183261904Y-58121666D01*
X183261904Y-57893095D02*
X182461904Y-57893095D01*
X182576190Y-57969285D01*
X182652380Y-58045476D01*
X182690476Y-58121666D01*
X164211904Y-58464285D02*
X163411904Y-58464285D01*
X163411904Y-58273809D01*
X163450000Y-58159523D01*
X163526190Y-58083333D01*
X163602380Y-58045238D01*
X163754761Y-58007142D01*
X163869047Y-58007142D01*
X164021428Y-58045238D01*
X164097619Y-58083333D01*
X164173809Y-58159523D01*
X164211904Y-58273809D01*
X164211904Y-58464285D01*
X164288095Y-57854761D02*
X164288095Y-57245238D01*
X164211904Y-57054761D02*
X163411904Y-57054761D01*
X164211904Y-56597619D01*
X163411904Y-56597619D01*
X164211904Y-55797619D02*
X164211904Y-56254761D01*
X164211904Y-56026190D02*
X163411904Y-56026190D01*
X163526190Y-56102380D01*
X163602380Y-56178571D01*
X163640476Y-56254761D01*
X202311904Y-20364285D02*
X201511904Y-20364285D01*
X201511904Y-20173809D01*
X201550000Y-20059523D01*
X201626190Y-19983333D01*
X201702380Y-19945238D01*
X201854761Y-19907142D01*
X201969047Y-19907142D01*
X202121428Y-19945238D01*
X202197619Y-19983333D01*
X202273809Y-20059523D01*
X202311904Y-20173809D01*
X202311904Y-20364285D01*
X202388095Y-19754761D02*
X202388095Y-19145238D01*
X201511904Y-18802380D02*
X201511904Y-18650000D01*
X201550000Y-18573809D01*
X201626190Y-18497619D01*
X201778571Y-18459523D01*
X202045238Y-18459523D01*
X202197619Y-18497619D01*
X202273809Y-18573809D01*
X202311904Y-18650000D01*
X202311904Y-18802380D01*
X202273809Y-18878571D01*
X202197619Y-18954761D01*
X202045238Y-18992857D01*
X201778571Y-18992857D01*
X201626190Y-18954761D01*
X201550000Y-18878571D01*
X201511904Y-18802380D01*
X202311904Y-17697619D02*
X202311904Y-18154761D01*
X202311904Y-17926190D02*
X201511904Y-17926190D01*
X201626190Y-18002380D01*
X201702380Y-18078571D01*
X201740476Y-18154761D01*
X259461904Y-23722142D02*
X258661904Y-23722142D01*
X258661904Y-23531666D01*
X258700000Y-23417380D01*
X258776190Y-23341190D01*
X258852380Y-23303095D01*
X259004761Y-23265000D01*
X259119047Y-23265000D01*
X259271428Y-23303095D01*
X259347619Y-23341190D01*
X259423809Y-23417380D01*
X259461904Y-23531666D01*
X259461904Y-23722142D01*
X259538095Y-23112619D02*
X259538095Y-22503095D01*
X258661904Y-22160238D02*
X258661904Y-22007857D01*
X258700000Y-21931666D01*
X258776190Y-21855476D01*
X258928571Y-21817380D01*
X259195238Y-21817380D01*
X259347619Y-21855476D01*
X259423809Y-21931666D01*
X259461904Y-22007857D01*
X259461904Y-22160238D01*
X259423809Y-22236428D01*
X259347619Y-22312619D01*
X259195238Y-22350714D01*
X258928571Y-22350714D01*
X258776190Y-22312619D01*
X258700000Y-22236428D01*
X258661904Y-22160238D01*
X259042857Y-21207857D02*
X259080952Y-21093571D01*
X259119047Y-21055476D01*
X259195238Y-21017380D01*
X259309523Y-21017380D01*
X259385714Y-21055476D01*
X259423809Y-21093571D01*
X259461904Y-21169761D01*
X259461904Y-21474523D01*
X258661904Y-21474523D01*
X258661904Y-21207857D01*
X258700000Y-21131666D01*
X258738095Y-21093571D01*
X258814285Y-21055476D01*
X258890476Y-21055476D01*
X258966666Y-21093571D01*
X259004761Y-21131666D01*
X259042857Y-21207857D01*
X259042857Y-21474523D01*
X259461904Y-20217380D02*
X259080952Y-20484047D01*
X259461904Y-20674523D02*
X258661904Y-20674523D01*
X258661904Y-20369761D01*
X258700000Y-20293571D01*
X258738095Y-20255476D01*
X258814285Y-20217380D01*
X258928571Y-20217380D01*
X259004761Y-20255476D01*
X259042857Y-20293571D01*
X259080952Y-20369761D01*
X259080952Y-20674523D01*
X259233333Y-19912619D02*
X259233333Y-19531666D01*
X259461904Y-19988809D02*
X258661904Y-19722142D01*
X259461904Y-19455476D01*
X259385714Y-18731666D02*
X259423809Y-18769761D01*
X259461904Y-18884047D01*
X259461904Y-18960238D01*
X259423809Y-19074523D01*
X259347619Y-19150714D01*
X259271428Y-19188809D01*
X259119047Y-19226904D01*
X259004761Y-19226904D01*
X258852380Y-19188809D01*
X258776190Y-19150714D01*
X258700000Y-19074523D01*
X258661904Y-18960238D01*
X258661904Y-18884047D01*
X258700000Y-18769761D01*
X258738095Y-18731666D01*
X259461904Y-17969761D02*
X259461904Y-18426904D01*
X259461904Y-18198333D02*
X258661904Y-18198333D01*
X258776190Y-18274523D01*
X258852380Y-18350714D01*
X258890476Y-18426904D01*
X221361904Y-22250238D02*
X220561904Y-22250238D01*
X220561904Y-22059761D01*
X220600000Y-21945476D01*
X220676190Y-21869285D01*
X220752380Y-21831190D01*
X220904761Y-21793095D01*
X221019047Y-21793095D01*
X221171428Y-21831190D01*
X221247619Y-21869285D01*
X221323809Y-21945476D01*
X221361904Y-22059761D01*
X221361904Y-22250238D01*
X221438095Y-21640714D02*
X221438095Y-21031190D01*
X221361904Y-20840714D02*
X220561904Y-20840714D01*
X220561904Y-20535952D01*
X220600000Y-20459761D01*
X220638095Y-20421666D01*
X220714285Y-20383571D01*
X220828571Y-20383571D01*
X220904761Y-20421666D01*
X220942857Y-20459761D01*
X220980952Y-20535952D01*
X220980952Y-20840714D01*
X221361904Y-19621666D02*
X221361904Y-20078809D01*
X221361904Y-19850238D02*
X220561904Y-19850238D01*
X220676190Y-19926428D01*
X220752380Y-20002619D01*
X220790476Y-20078809D01*
X49911904Y-20364285D02*
X49111904Y-20364285D01*
X49111904Y-20173809D01*
X49150000Y-20059523D01*
X49226190Y-19983333D01*
X49302380Y-19945238D01*
X49454761Y-19907142D01*
X49569047Y-19907142D01*
X49721428Y-19945238D01*
X49797619Y-19983333D01*
X49873809Y-20059523D01*
X49911904Y-20173809D01*
X49911904Y-20364285D01*
X49988095Y-19754761D02*
X49988095Y-19145238D01*
X49988095Y-18421428D02*
X49950000Y-18497619D01*
X49873809Y-18573809D01*
X49759523Y-18688095D01*
X49721428Y-18764285D01*
X49721428Y-18840476D01*
X49911904Y-18802380D02*
X49873809Y-18878571D01*
X49797619Y-18954761D01*
X49645238Y-18992857D01*
X49378571Y-18992857D01*
X49226190Y-18954761D01*
X49150000Y-18878571D01*
X49111904Y-18802380D01*
X49111904Y-18650000D01*
X49150000Y-18573809D01*
X49226190Y-18497619D01*
X49378571Y-18459523D01*
X49645238Y-18459523D01*
X49797619Y-18497619D01*
X49873809Y-18573809D01*
X49911904Y-18650000D01*
X49911904Y-18802380D01*
X49911904Y-17697619D02*
X49911904Y-18154761D01*
X49911904Y-17926190D02*
X49111904Y-17926190D01*
X49226190Y-18002380D01*
X49302380Y-18078571D01*
X49340476Y-18154761D01*
X245174404Y-40919047D02*
X244374404Y-40919047D01*
X244374404Y-40728571D01*
X244412500Y-40614285D01*
X244488690Y-40538095D01*
X244564880Y-40500000D01*
X244717261Y-40461904D01*
X244831547Y-40461904D01*
X244983928Y-40500000D01*
X245060119Y-40538095D01*
X245136309Y-40614285D01*
X245174404Y-40728571D01*
X245174404Y-40919047D01*
X245250595Y-40309523D02*
X245250595Y-39700000D01*
X245250595Y-38976190D02*
X245212500Y-39052380D01*
X245136309Y-39128571D01*
X245022023Y-39242857D01*
X244983928Y-39319047D01*
X244983928Y-39395238D01*
X245174404Y-39357142D02*
X245136309Y-39433333D01*
X245060119Y-39509523D01*
X244907738Y-39547619D01*
X244641071Y-39547619D01*
X244488690Y-39509523D01*
X244412500Y-39433333D01*
X244374404Y-39357142D01*
X244374404Y-39204761D01*
X244412500Y-39128571D01*
X244488690Y-39052380D01*
X244641071Y-39014285D01*
X244907738Y-39014285D01*
X245060119Y-39052380D01*
X245136309Y-39128571D01*
X245174404Y-39204761D01*
X245174404Y-39357142D01*
X244374404Y-38671428D02*
X245022023Y-38671428D01*
X245098214Y-38633333D01*
X245136309Y-38595238D01*
X245174404Y-38519047D01*
X245174404Y-38366666D01*
X245136309Y-38290476D01*
X245098214Y-38252380D01*
X245022023Y-38214285D01*
X244374404Y-38214285D01*
X244374404Y-37680952D02*
X244374404Y-37528571D01*
X244412500Y-37452380D01*
X244488690Y-37376190D01*
X244641071Y-37338095D01*
X244907738Y-37338095D01*
X245060119Y-37376190D01*
X245136309Y-37452380D01*
X245174404Y-37528571D01*
X245174404Y-37680952D01*
X245136309Y-37757142D01*
X245060119Y-37833333D01*
X244907738Y-37871428D01*
X244641071Y-37871428D01*
X244488690Y-37833333D01*
X244412500Y-37757142D01*
X244374404Y-37680952D01*
X244374404Y-37109523D02*
X244374404Y-36652380D01*
X245174404Y-36880952D02*
X244374404Y-36880952D01*
X244755357Y-36385714D02*
X244755357Y-36119047D01*
X245174404Y-36004761D02*
X245174404Y-36385714D01*
X244374404Y-36385714D01*
X244374404Y-36004761D01*
X245174404Y-35242857D02*
X245174404Y-35700000D01*
X245174404Y-35471428D02*
X244374404Y-35471428D01*
X244488690Y-35547619D01*
X244564880Y-35623809D01*
X244602976Y-35700000D01*
X107061904Y-22250238D02*
X106261904Y-22250238D01*
X106261904Y-22059761D01*
X106300000Y-21945476D01*
X106376190Y-21869285D01*
X106452380Y-21831190D01*
X106604761Y-21793095D01*
X106719047Y-21793095D01*
X106871428Y-21831190D01*
X106947619Y-21869285D01*
X107023809Y-21945476D01*
X107061904Y-22059761D01*
X107061904Y-22250238D01*
X107138095Y-21640714D02*
X107138095Y-21031190D01*
X107061904Y-20383571D02*
X106680952Y-20650238D01*
X107061904Y-20840714D02*
X106261904Y-20840714D01*
X106261904Y-20535952D01*
X106300000Y-20459761D01*
X106338095Y-20421666D01*
X106414285Y-20383571D01*
X106528571Y-20383571D01*
X106604761Y-20421666D01*
X106642857Y-20459761D01*
X106680952Y-20535952D01*
X106680952Y-20840714D01*
X107061904Y-19621666D02*
X107061904Y-20078809D01*
X107061904Y-19850238D02*
X106261904Y-19850238D01*
X106376190Y-19926428D01*
X106452380Y-20002619D01*
X106490476Y-20078809D01*
X266129404Y-60712023D02*
X265329404Y-60712023D01*
X265329404Y-60521547D01*
X265367500Y-60407261D01*
X265443690Y-60331071D01*
X265519880Y-60292976D01*
X265672261Y-60254880D01*
X265786547Y-60254880D01*
X265938928Y-60292976D01*
X266015119Y-60331071D01*
X266091309Y-60407261D01*
X266129404Y-60521547D01*
X266129404Y-60712023D01*
X266205595Y-60102500D02*
X266205595Y-59492976D01*
X266129404Y-58845357D02*
X265748452Y-59112023D01*
X266129404Y-59302500D02*
X265329404Y-59302500D01*
X265329404Y-58997738D01*
X265367500Y-58921547D01*
X265405595Y-58883452D01*
X265481785Y-58845357D01*
X265596071Y-58845357D01*
X265672261Y-58883452D01*
X265710357Y-58921547D01*
X265748452Y-58997738D01*
X265748452Y-59302500D01*
X266129404Y-58502500D02*
X265329404Y-58502500D01*
X265367500Y-57702500D02*
X265329404Y-57778690D01*
X265329404Y-57892976D01*
X265367500Y-58007261D01*
X265443690Y-58083452D01*
X265519880Y-58121547D01*
X265672261Y-58159642D01*
X265786547Y-58159642D01*
X265938928Y-58121547D01*
X266015119Y-58083452D01*
X266091309Y-58007261D01*
X266129404Y-57892976D01*
X266129404Y-57816785D01*
X266091309Y-57702500D01*
X266053214Y-57664404D01*
X265786547Y-57664404D01*
X265786547Y-57816785D01*
X266129404Y-57321547D02*
X265329404Y-57321547D01*
X265710357Y-57321547D02*
X265710357Y-56864404D01*
X266129404Y-56864404D02*
X265329404Y-56864404D01*
X265329404Y-56597738D02*
X265329404Y-56140595D01*
X266129404Y-56369166D02*
X265329404Y-56369166D01*
X266129404Y-55454880D02*
X266129404Y-55912023D01*
X266129404Y-55683452D02*
X265329404Y-55683452D01*
X265443690Y-55759642D01*
X265519880Y-55835833D01*
X265557976Y-55912023D01*
X73724404Y-41281190D02*
X72924404Y-41281190D01*
X72924404Y-41090714D01*
X72962500Y-40976428D01*
X73038690Y-40900238D01*
X73114880Y-40862142D01*
X73267261Y-40824047D01*
X73381547Y-40824047D01*
X73533928Y-40862142D01*
X73610119Y-40900238D01*
X73686309Y-40976428D01*
X73724404Y-41090714D01*
X73724404Y-41281190D01*
X73800595Y-40671666D02*
X73800595Y-40062142D01*
X73686309Y-39909761D02*
X73724404Y-39795476D01*
X73724404Y-39605000D01*
X73686309Y-39528809D01*
X73648214Y-39490714D01*
X73572023Y-39452619D01*
X73495833Y-39452619D01*
X73419642Y-39490714D01*
X73381547Y-39528809D01*
X73343452Y-39605000D01*
X73305357Y-39757380D01*
X73267261Y-39833571D01*
X73229166Y-39871666D01*
X73152976Y-39909761D01*
X73076785Y-39909761D01*
X73000595Y-39871666D01*
X72962500Y-39833571D01*
X72924404Y-39757380D01*
X72924404Y-39566904D01*
X72962500Y-39452619D01*
X73724404Y-38690714D02*
X73724404Y-39147857D01*
X73724404Y-38919285D02*
X72924404Y-38919285D01*
X73038690Y-38995476D01*
X73114880Y-39071666D01*
X73152976Y-39147857D01*
X226124404Y-42600714D02*
X225324404Y-42600714D01*
X225324404Y-42410238D01*
X225362500Y-42295952D01*
X225438690Y-42219761D01*
X225514880Y-42181666D01*
X225667261Y-42143571D01*
X225781547Y-42143571D01*
X225933928Y-42181666D01*
X226010119Y-42219761D01*
X226086309Y-42295952D01*
X226124404Y-42410238D01*
X226124404Y-42600714D01*
X226200595Y-41991190D02*
X226200595Y-41381666D01*
X226086309Y-41229285D02*
X226124404Y-41115000D01*
X226124404Y-40924523D01*
X226086309Y-40848333D01*
X226048214Y-40810238D01*
X225972023Y-40772142D01*
X225895833Y-40772142D01*
X225819642Y-40810238D01*
X225781547Y-40848333D01*
X225743452Y-40924523D01*
X225705357Y-41076904D01*
X225667261Y-41153095D01*
X225629166Y-41191190D01*
X225552976Y-41229285D01*
X225476785Y-41229285D01*
X225400595Y-41191190D01*
X225362500Y-41153095D01*
X225324404Y-41076904D01*
X225324404Y-40886428D01*
X225362500Y-40772142D01*
X225705357Y-40429285D02*
X225705357Y-40162619D01*
X226124404Y-40048333D02*
X226124404Y-40429285D01*
X225324404Y-40429285D01*
X225324404Y-40048333D01*
X226124404Y-39705476D02*
X225324404Y-39705476D01*
X225895833Y-39438809D01*
X225324404Y-39172142D01*
X226124404Y-39172142D01*
X226124404Y-38791190D02*
X225324404Y-38791190D01*
X226048214Y-37953095D02*
X226086309Y-37991190D01*
X226124404Y-38105476D01*
X226124404Y-38181666D01*
X226086309Y-38295952D01*
X226010119Y-38372142D01*
X225933928Y-38410238D01*
X225781547Y-38448333D01*
X225667261Y-38448333D01*
X225514880Y-38410238D01*
X225438690Y-38372142D01*
X225362500Y-38295952D01*
X225324404Y-38181666D01*
X225324404Y-38105476D01*
X225362500Y-37991190D01*
X225400595Y-37953095D01*
X226124404Y-37191190D02*
X226124404Y-37648333D01*
X226124404Y-37419761D02*
X225324404Y-37419761D01*
X225438690Y-37495952D01*
X225514880Y-37572142D01*
X225552976Y-37648333D01*
X288036904Y-31108333D02*
X287236904Y-31108333D01*
X287236904Y-30917857D01*
X287275000Y-30803571D01*
X287351190Y-30727380D01*
X287427380Y-30689285D01*
X287579761Y-30651190D01*
X287694047Y-30651190D01*
X287846428Y-30689285D01*
X287922619Y-30727380D01*
X287998809Y-30803571D01*
X288036904Y-30917857D01*
X288036904Y-31108333D01*
X288113095Y-30498809D02*
X288113095Y-29889285D01*
X287998809Y-29736904D02*
X288036904Y-29622619D01*
X288036904Y-29432142D01*
X287998809Y-29355952D01*
X287960714Y-29317857D01*
X287884523Y-29279761D01*
X287808333Y-29279761D01*
X287732142Y-29317857D01*
X287694047Y-29355952D01*
X287655952Y-29432142D01*
X287617857Y-29584523D01*
X287579761Y-29660714D01*
X287541666Y-29698809D01*
X287465476Y-29736904D01*
X287389285Y-29736904D01*
X287313095Y-29698809D01*
X287275000Y-29660714D01*
X287236904Y-29584523D01*
X287236904Y-29394047D01*
X287275000Y-29279761D01*
X288036904Y-28936904D02*
X287236904Y-28936904D01*
X287617857Y-28936904D02*
X287617857Y-28479761D01*
X288036904Y-28479761D02*
X287236904Y-28479761D01*
X288036904Y-28098809D02*
X287236904Y-28098809D01*
X287617857Y-27451190D02*
X287617857Y-27717857D01*
X288036904Y-27717857D02*
X287236904Y-27717857D01*
X287236904Y-27336904D01*
X287236904Y-27146428D02*
X287236904Y-26689285D01*
X288036904Y-26917857D02*
X287236904Y-26917857D01*
X288036904Y-26003571D02*
X288036904Y-26460714D01*
X288036904Y-26232142D02*
X287236904Y-26232142D01*
X287351190Y-26308333D01*
X287427380Y-26384523D01*
X287465476Y-26460714D01*
X30861904Y-61588333D02*
X30061904Y-61588333D01*
X30061904Y-61397857D01*
X30100000Y-61283571D01*
X30176190Y-61207380D01*
X30252380Y-61169285D01*
X30404761Y-61131190D01*
X30519047Y-61131190D01*
X30671428Y-61169285D01*
X30747619Y-61207380D01*
X30823809Y-61283571D01*
X30861904Y-61397857D01*
X30861904Y-61588333D01*
X30938095Y-60978809D02*
X30938095Y-60369285D01*
X30823809Y-60216904D02*
X30861904Y-60102619D01*
X30861904Y-59912142D01*
X30823809Y-59835952D01*
X30785714Y-59797857D01*
X30709523Y-59759761D01*
X30633333Y-59759761D01*
X30557142Y-59797857D01*
X30519047Y-59835952D01*
X30480952Y-59912142D01*
X30442857Y-60064523D01*
X30404761Y-60140714D01*
X30366666Y-60178809D01*
X30290476Y-60216904D01*
X30214285Y-60216904D01*
X30138095Y-60178809D01*
X30100000Y-60140714D01*
X30061904Y-60064523D01*
X30061904Y-59874047D01*
X30100000Y-59759761D01*
X30861904Y-59416904D02*
X30061904Y-59416904D01*
X30442857Y-59416904D02*
X30442857Y-58959761D01*
X30861904Y-58959761D02*
X30061904Y-58959761D01*
X30861904Y-58578809D02*
X30061904Y-58578809D01*
X30442857Y-57931190D02*
X30442857Y-58197857D01*
X30861904Y-58197857D02*
X30061904Y-58197857D01*
X30061904Y-57816904D01*
X30061904Y-57626428D02*
X30061904Y-57169285D01*
X30861904Y-57397857D02*
X30061904Y-57397857D01*
X30138095Y-56940714D02*
X30100000Y-56902619D01*
X30061904Y-56826428D01*
X30061904Y-56635952D01*
X30100000Y-56559761D01*
X30138095Y-56521666D01*
X30214285Y-56483571D01*
X30290476Y-56483571D01*
X30404761Y-56521666D01*
X30861904Y-56978809D01*
X30861904Y-56483571D01*
X240411904Y-59892857D02*
X239611904Y-59892857D01*
X239611904Y-59702380D01*
X239650000Y-59588095D01*
X239726190Y-59511904D01*
X239802380Y-59473809D01*
X239954761Y-59435714D01*
X240069047Y-59435714D01*
X240221428Y-59473809D01*
X240297619Y-59511904D01*
X240373809Y-59588095D01*
X240411904Y-59702380D01*
X240411904Y-59892857D01*
X240488095Y-59283333D02*
X240488095Y-58673809D01*
X240373809Y-58521428D02*
X240411904Y-58407142D01*
X240411904Y-58216666D01*
X240373809Y-58140476D01*
X240335714Y-58102380D01*
X240259523Y-58064285D01*
X240183333Y-58064285D01*
X240107142Y-58102380D01*
X240069047Y-58140476D01*
X240030952Y-58216666D01*
X239992857Y-58369047D01*
X239954761Y-58445238D01*
X239916666Y-58483333D01*
X239840476Y-58521428D01*
X239764285Y-58521428D01*
X239688095Y-58483333D01*
X239650000Y-58445238D01*
X239611904Y-58369047D01*
X239611904Y-58178571D01*
X239650000Y-58064285D01*
X240411904Y-57340476D02*
X240411904Y-57721428D01*
X239611904Y-57721428D01*
X240183333Y-57111904D02*
X240183333Y-56730952D01*
X240411904Y-57188095D02*
X239611904Y-56921428D01*
X240411904Y-56654761D01*
X240373809Y-56426190D02*
X240411904Y-56311904D01*
X240411904Y-56121428D01*
X240373809Y-56045238D01*
X240335714Y-56007142D01*
X240259523Y-55969047D01*
X240183333Y-55969047D01*
X240107142Y-56007142D01*
X240069047Y-56045238D01*
X240030952Y-56121428D01*
X239992857Y-56273809D01*
X239954761Y-56350000D01*
X239916666Y-56388095D01*
X239840476Y-56426190D01*
X239764285Y-56426190D01*
X239688095Y-56388095D01*
X239650000Y-56350000D01*
X239611904Y-56273809D01*
X239611904Y-56083333D01*
X239650000Y-55969047D01*
X240411904Y-55626190D02*
X239611904Y-55626190D01*
X239992857Y-55626190D02*
X239992857Y-55169047D01*
X240411904Y-55169047D02*
X239611904Y-55169047D01*
X240411904Y-54369047D02*
X240411904Y-54826190D01*
X240411904Y-54597619D02*
X239611904Y-54597619D01*
X239726190Y-54673809D01*
X239802380Y-54750000D01*
X239840476Y-54826190D01*
X164211904Y-75170952D02*
X163411904Y-75170952D01*
X163411904Y-74980476D01*
X163450000Y-74866190D01*
X163526190Y-74790000D01*
X163602380Y-74751904D01*
X163754761Y-74713809D01*
X163869047Y-74713809D01*
X164021428Y-74751904D01*
X164097619Y-74790000D01*
X164173809Y-74866190D01*
X164211904Y-74980476D01*
X164211904Y-75170952D01*
X164288095Y-74561428D02*
X164288095Y-73951904D01*
X164173809Y-73799523D02*
X164211904Y-73685238D01*
X164211904Y-73494761D01*
X164173809Y-73418571D01*
X164135714Y-73380476D01*
X164059523Y-73342380D01*
X163983333Y-73342380D01*
X163907142Y-73380476D01*
X163869047Y-73418571D01*
X163830952Y-73494761D01*
X163792857Y-73647142D01*
X163754761Y-73723333D01*
X163716666Y-73761428D01*
X163640476Y-73799523D01*
X163564285Y-73799523D01*
X163488095Y-73761428D01*
X163450000Y-73723333D01*
X163411904Y-73647142D01*
X163411904Y-73456666D01*
X163450000Y-73342380D01*
X164211904Y-72999523D02*
X163411904Y-72999523D01*
X163411904Y-72694761D01*
X163450000Y-72618571D01*
X163488095Y-72580476D01*
X163564285Y-72542380D01*
X163678571Y-72542380D01*
X163754761Y-72580476D01*
X163792857Y-72618571D01*
X163830952Y-72694761D01*
X163830952Y-72999523D01*
X163983333Y-72237619D02*
X163983333Y-71856666D01*
X164211904Y-72313809D02*
X163411904Y-72047142D01*
X164211904Y-71780476D01*
X164135714Y-71056666D02*
X164173809Y-71094761D01*
X164211904Y-71209047D01*
X164211904Y-71285238D01*
X164173809Y-71399523D01*
X164097619Y-71475714D01*
X164021428Y-71513809D01*
X163869047Y-71551904D01*
X163754761Y-71551904D01*
X163602380Y-71513809D01*
X163526190Y-71475714D01*
X163450000Y-71399523D01*
X163411904Y-71285238D01*
X163411904Y-71209047D01*
X163450000Y-71094761D01*
X163488095Y-71056666D01*
X163792857Y-70713809D02*
X163792857Y-70447142D01*
X164211904Y-70332857D02*
X164211904Y-70713809D01*
X163411904Y-70713809D01*
X163411904Y-70332857D01*
X164211904Y-69570952D02*
X164211904Y-70028095D01*
X164211904Y-69799523D02*
X163411904Y-69799523D01*
X163526190Y-69875714D01*
X163602380Y-69951904D01*
X163640476Y-70028095D01*
X126111904Y-20250000D02*
X125311904Y-20250000D01*
X125311904Y-20059523D01*
X125350000Y-19945238D01*
X125426190Y-19869047D01*
X125502380Y-19830952D01*
X125654761Y-19792857D01*
X125769047Y-19792857D01*
X125921428Y-19830952D01*
X125997619Y-19869047D01*
X126073809Y-19945238D01*
X126111904Y-20059523D01*
X126111904Y-20250000D01*
X126188095Y-19640476D02*
X126188095Y-19030952D01*
X125311904Y-18954761D02*
X125311904Y-18497619D01*
X126111904Y-18726190D02*
X125311904Y-18726190D01*
X126111904Y-17811904D02*
X126111904Y-18269047D01*
X126111904Y-18040476D02*
X125311904Y-18040476D01*
X125426190Y-18116666D01*
X125502380Y-18192857D01*
X125540476Y-18269047D01*
X35624404Y-41947857D02*
X34824404Y-41947857D01*
X34824404Y-41757380D01*
X34862500Y-41643095D01*
X34938690Y-41566904D01*
X35014880Y-41528809D01*
X35167261Y-41490714D01*
X35281547Y-41490714D01*
X35433928Y-41528809D01*
X35510119Y-41566904D01*
X35586309Y-41643095D01*
X35624404Y-41757380D01*
X35624404Y-41947857D01*
X35700595Y-41338333D02*
X35700595Y-40728809D01*
X34824404Y-40652619D02*
X34824404Y-40195476D01*
X35624404Y-40424047D02*
X34824404Y-40424047D01*
X35395833Y-39966904D02*
X35395833Y-39585952D01*
X35624404Y-40043095D02*
X34824404Y-39776428D01*
X35624404Y-39509761D01*
X35205357Y-38976428D02*
X35243452Y-38862142D01*
X35281547Y-38824047D01*
X35357738Y-38785952D01*
X35472023Y-38785952D01*
X35548214Y-38824047D01*
X35586309Y-38862142D01*
X35624404Y-38938333D01*
X35624404Y-39243095D01*
X34824404Y-39243095D01*
X34824404Y-38976428D01*
X34862500Y-38900238D01*
X34900595Y-38862142D01*
X34976785Y-38824047D01*
X35052976Y-38824047D01*
X35129166Y-38862142D01*
X35167261Y-38900238D01*
X35205357Y-38976428D01*
X35205357Y-39243095D01*
X35624404Y-38024047D02*
X35624404Y-38481190D01*
X35624404Y-38252619D02*
X34824404Y-38252619D01*
X34938690Y-38328809D01*
X35014880Y-38405000D01*
X35052976Y-38481190D01*
X164211904Y-20364285D02*
X163411904Y-20364285D01*
X163411904Y-20173809D01*
X163450000Y-20059523D01*
X163526190Y-19983333D01*
X163602380Y-19945238D01*
X163754761Y-19907142D01*
X163869047Y-19907142D01*
X164021428Y-19945238D01*
X164097619Y-19983333D01*
X164173809Y-20059523D01*
X164211904Y-20173809D01*
X164211904Y-20364285D01*
X164288095Y-19754761D02*
X164288095Y-19145238D01*
X163411904Y-18954761D02*
X164059523Y-18954761D01*
X164135714Y-18916666D01*
X164173809Y-18878571D01*
X164211904Y-18802380D01*
X164211904Y-18650000D01*
X164173809Y-18573809D01*
X164135714Y-18535714D01*
X164059523Y-18497619D01*
X163411904Y-18497619D01*
X164211904Y-17697619D02*
X164211904Y-18154761D01*
X164211904Y-17926190D02*
X163411904Y-17926190D01*
X163526190Y-18002380D01*
X163602380Y-18078571D01*
X163640476Y-18154761D01*
X268986904Y-77914285D02*
X268186904Y-77914285D01*
X268186904Y-77723809D01*
X268225000Y-77609523D01*
X268301190Y-77533333D01*
X268377380Y-77495238D01*
X268529761Y-77457142D01*
X268644047Y-77457142D01*
X268796428Y-77495238D01*
X268872619Y-77533333D01*
X268948809Y-77609523D01*
X268986904Y-77723809D01*
X268986904Y-77914285D01*
X269063095Y-77304761D02*
X269063095Y-76695238D01*
X268186904Y-76504761D02*
X268834523Y-76504761D01*
X268910714Y-76466666D01*
X268948809Y-76428571D01*
X268986904Y-76352380D01*
X268986904Y-76200000D01*
X268948809Y-76123809D01*
X268910714Y-76085714D01*
X268834523Y-76047619D01*
X268186904Y-76047619D01*
X268986904Y-75666666D02*
X268186904Y-75666666D01*
X268186904Y-75361904D01*
X268225000Y-75285714D01*
X268263095Y-75247619D01*
X268339285Y-75209523D01*
X268453571Y-75209523D01*
X268529761Y-75247619D01*
X268567857Y-75285714D01*
X268605952Y-75361904D01*
X268605952Y-75666666D01*
X268986904Y-74447619D02*
X268986904Y-74904761D01*
X268986904Y-74676190D02*
X268186904Y-74676190D01*
X268301190Y-74752380D01*
X268377380Y-74828571D01*
X268415476Y-74904761D01*
X126111904Y-58388095D02*
X125311904Y-58388095D01*
X125311904Y-58197619D01*
X125350000Y-58083333D01*
X125426190Y-58007142D01*
X125502380Y-57969047D01*
X125654761Y-57930952D01*
X125769047Y-57930952D01*
X125921428Y-57969047D01*
X125997619Y-58007142D01*
X126073809Y-58083333D01*
X126111904Y-58197619D01*
X126111904Y-58388095D01*
X126188095Y-57778571D02*
X126188095Y-57169047D01*
X125311904Y-57092857D02*
X126111904Y-56826190D01*
X125311904Y-56559523D01*
X126111904Y-55873809D02*
X126111904Y-56330952D01*
X126111904Y-56102380D02*
X125311904Y-56102380D01*
X125426190Y-56178571D01*
X125502380Y-56254761D01*
X125540476Y-56330952D01*
X68961904Y-22307380D02*
X68161904Y-22307380D01*
X68161904Y-22116904D01*
X68200000Y-22002619D01*
X68276190Y-21926428D01*
X68352380Y-21888333D01*
X68504761Y-21850238D01*
X68619047Y-21850238D01*
X68771428Y-21888333D01*
X68847619Y-21926428D01*
X68923809Y-22002619D01*
X68961904Y-22116904D01*
X68961904Y-22307380D01*
X69038095Y-21697857D02*
X69038095Y-21088333D01*
X68161904Y-20974047D02*
X68961904Y-20783571D01*
X68390476Y-20631190D01*
X68961904Y-20478809D01*
X68161904Y-20288333D01*
X68961904Y-19564523D02*
X68961904Y-20021666D01*
X68961904Y-19793095D02*
X68161904Y-19793095D01*
X68276190Y-19869285D01*
X68352380Y-19945476D01*
X68390476Y-20021666D01*
X88011904Y-58426190D02*
X87211904Y-58426190D01*
X87211904Y-58235714D01*
X87250000Y-58121428D01*
X87326190Y-58045238D01*
X87402380Y-58007142D01*
X87554761Y-57969047D01*
X87669047Y-57969047D01*
X87821428Y-58007142D01*
X87897619Y-58045238D01*
X87973809Y-58121428D01*
X88011904Y-58235714D01*
X88011904Y-58426190D01*
X88088095Y-57816666D02*
X88088095Y-57207142D01*
X87211904Y-57092857D02*
X88011904Y-56559523D01*
X87211904Y-56559523D02*
X88011904Y-57092857D01*
X88011904Y-55835714D02*
X88011904Y-56292857D01*
X88011904Y-56064285D02*
X87211904Y-56064285D01*
X87326190Y-56140476D01*
X87402380Y-56216666D01*
X87440476Y-56292857D01*
X145161904Y-22205595D02*
X144361904Y-22205595D01*
X144361904Y-22015119D01*
X144400000Y-21900833D01*
X144476190Y-21824642D01*
X144552380Y-21786547D01*
X144704761Y-21748452D01*
X144819047Y-21748452D01*
X144971428Y-21786547D01*
X145047619Y-21824642D01*
X145123809Y-21900833D01*
X145161904Y-22015119D01*
X145161904Y-22205595D01*
X145238095Y-21596071D02*
X145238095Y-20986547D01*
X144780952Y-20643690D02*
X145161904Y-20643690D01*
X144361904Y-20910357D02*
X144780952Y-20643690D01*
X144361904Y-20377023D01*
X145161904Y-19691309D02*
X145161904Y-20148452D01*
X145161904Y-19919880D02*
X144361904Y-19919880D01*
X144476190Y-19996071D01*
X144552380Y-20072261D01*
X144590476Y-20148452D01*
X68961904Y-60331190D02*
X68161904Y-60331190D01*
X68161904Y-60140714D01*
X68200000Y-60026428D01*
X68276190Y-59950238D01*
X68352380Y-59912142D01*
X68504761Y-59874047D01*
X68619047Y-59874047D01*
X68771428Y-59912142D01*
X68847619Y-59950238D01*
X68923809Y-60026428D01*
X68961904Y-60140714D01*
X68961904Y-60331190D01*
X69038095Y-59721666D02*
X69038095Y-59112142D01*
X68161904Y-58997857D02*
X68161904Y-58464523D01*
X68961904Y-58997857D01*
X68961904Y-58464523D01*
X68961904Y-57740714D02*
X68961904Y-58197857D01*
X68961904Y-57969285D02*
X68161904Y-57969285D01*
X68276190Y-58045476D01*
X68352380Y-58121666D01*
X68390476Y-58197857D01*
X272567857Y-65111904D02*
X272567857Y-64311904D01*
X272758333Y-64311904D01*
X272872619Y-64350000D01*
X272948809Y-64426190D01*
X272986904Y-64502380D01*
X273025000Y-64654761D01*
X273025000Y-64769047D01*
X272986904Y-64921428D01*
X272948809Y-64997619D01*
X272872619Y-65073809D01*
X272758333Y-65111904D01*
X272567857Y-65111904D01*
X273177380Y-65188095D02*
X273786904Y-65188095D01*
X273977380Y-64692857D02*
X274244047Y-64692857D01*
X274358333Y-65111904D02*
X273977380Y-65111904D01*
X273977380Y-64311904D01*
X274358333Y-64311904D01*
X274701190Y-65111904D02*
X274701190Y-64311904D01*
X275158333Y-65111904D01*
X275158333Y-64311904D01*
X275996428Y-65035714D02*
X275958333Y-65073809D01*
X275844047Y-65111904D01*
X275767857Y-65111904D01*
X275653571Y-65073809D01*
X275577380Y-64997619D01*
X275539285Y-64921428D01*
X275501190Y-64769047D01*
X275501190Y-64654761D01*
X275539285Y-64502380D01*
X275577380Y-64426190D01*
X275653571Y-64350000D01*
X275767857Y-64311904D01*
X275844047Y-64311904D01*
X275958333Y-64350000D01*
X275996428Y-64388095D01*
X276491666Y-64311904D02*
X276644047Y-64311904D01*
X276720238Y-64350000D01*
X276796428Y-64426190D01*
X276834523Y-64578571D01*
X276834523Y-64845238D01*
X276796428Y-64997619D01*
X276720238Y-65073809D01*
X276644047Y-65111904D01*
X276491666Y-65111904D01*
X276415476Y-65073809D01*
X276339285Y-64997619D01*
X276301190Y-64845238D01*
X276301190Y-64578571D01*
X276339285Y-64426190D01*
X276415476Y-64350000D01*
X276491666Y-64311904D01*
X277177380Y-65111904D02*
X277177380Y-64311904D01*
X277367857Y-64311904D01*
X277482142Y-64350000D01*
X277558333Y-64426190D01*
X277596428Y-64502380D01*
X277634523Y-64654761D01*
X277634523Y-64769047D01*
X277596428Y-64921428D01*
X277558333Y-64997619D01*
X277482142Y-65073809D01*
X277367857Y-65111904D01*
X277177380Y-65111904D01*
X277977380Y-64692857D02*
X278244047Y-64692857D01*
X278358333Y-65111904D02*
X277977380Y-65111904D01*
X277977380Y-64311904D01*
X278358333Y-64311904D01*
X279158333Y-65111904D02*
X278891666Y-64730952D01*
X278701190Y-65111904D02*
X278701190Y-64311904D01*
X279005952Y-64311904D01*
X279082142Y-64350000D01*
X279120238Y-64388095D01*
X279158333Y-64464285D01*
X279158333Y-64578571D01*
X279120238Y-64654761D01*
X279082142Y-64692857D01*
X279005952Y-64730952D01*
X278701190Y-64730952D01*
X279920238Y-65111904D02*
X279463095Y-65111904D01*
X279691666Y-65111904D02*
X279691666Y-64311904D01*
X279615476Y-64426190D01*
X279539285Y-64502380D01*
X279463095Y-64540476D01*
X119444404Y-76961666D02*
X118644404Y-76961666D01*
X118644404Y-76771190D01*
X118682500Y-76656904D01*
X118758690Y-76580714D01*
X118834880Y-76542619D01*
X118987261Y-76504523D01*
X119101547Y-76504523D01*
X119253928Y-76542619D01*
X119330119Y-76580714D01*
X119406309Y-76656904D01*
X119444404Y-76771190D01*
X119444404Y-76961666D01*
X119520595Y-76352142D02*
X119520595Y-75742619D01*
X119444404Y-75171190D02*
X119444404Y-75552142D01*
X118644404Y-75552142D01*
X119215833Y-74942619D02*
X119215833Y-74561666D01*
X119444404Y-75018809D02*
X118644404Y-74752142D01*
X119444404Y-74485476D01*
X119063452Y-74066428D02*
X119444404Y-74066428D01*
X118644404Y-74333095D02*
X119063452Y-74066428D01*
X118644404Y-73799761D01*
X119025357Y-73533095D02*
X119025357Y-73266428D01*
X119444404Y-73152142D02*
X119444404Y-73533095D01*
X118644404Y-73533095D01*
X118644404Y-73152142D01*
X119444404Y-72352142D02*
X119063452Y-72618809D01*
X119444404Y-72809285D02*
X118644404Y-72809285D01*
X118644404Y-72504523D01*
X118682500Y-72428333D01*
X118720595Y-72390238D01*
X118796785Y-72352142D01*
X118911071Y-72352142D01*
X118987261Y-72390238D01*
X119025357Y-72428333D01*
X119063452Y-72504523D01*
X119063452Y-72809285D01*
X118720595Y-72047380D02*
X118682500Y-72009285D01*
X118644404Y-71933095D01*
X118644404Y-71742619D01*
X118682500Y-71666428D01*
X118720595Y-71628333D01*
X118796785Y-71590238D01*
X118872976Y-71590238D01*
X118987261Y-71628333D01*
X119444404Y-72085476D01*
X119444404Y-71590238D01*
%LPC*%
D13*
X302944993Y-49574999D03*
X305484993Y-49574999D03*
X300404993Y-49574999D03*
X297864993Y-49574999D03*
X297864998Y-76324997D03*
X300404998Y-76324997D03*
X305484998Y-76324997D03*
X302944998Y-76324997D03*
D14*
X299174998Y-73674999D03*
X304174998Y-73674999D03*
D15*
X296074998Y-66674999D03*
X307274998Y-66674999D03*
D14*
X299174998Y-59174999D03*
X301674998Y-59174999D03*
D16*
X304174998Y-59174999D03*
D17*
X294054997Y-14859996D03*
D18*
X294054997Y-17399996D03*
X294054997Y-19939996D03*
X294054997Y-22479996D03*
X294054997Y-25019996D03*
X294054997Y-27559996D03*
X294054997Y-30099996D03*
X294054997Y-32639996D03*
X294054997Y-35179996D03*
X294054997Y-37719996D03*
X294054997Y-40259996D03*
X309294997Y-42799996D03*
X309294997Y-40259996D03*
X309294997Y-37719996D03*
X309294997Y-35179996D03*
X309294997Y-32639996D03*
X309294997Y-30099996D03*
X309294997Y-27559996D03*
X309294997Y-25019996D03*
X309294997Y-22479996D03*
X309294997Y-19939996D03*
X309294997Y-17399996D03*
X294054997Y-42799996D03*
X309294997Y-14859996D03*
D19*
X273843750Y-28575000D03*
D20*
X268763750Y-28575000D03*
X278923750Y-28575000D03*
D21*
X266858750Y-40513000D03*
X266858750Y-16637000D03*
D19*
X282098750Y-40513000D03*
X282098750Y-16637000D03*
X273843750Y-57150000D03*
D20*
X268763750Y-57150000D03*
X278923750Y-57150000D03*
X24130000Y-19050000D03*
X13970000Y-19050000D03*
D19*
X19050000Y-19050000D03*
D22*
X261937500Y-38430000D03*
X261937500Y-41580000D03*
D23*
X261937500Y-43905000D03*
D24*
X261937500Y-36105000D03*
X52387500Y-34200000D03*
D23*
X52387500Y-42000000D03*
D22*
X52387500Y-39675000D03*
X52387500Y-36525000D03*
D24*
X111442500Y-72300000D03*
D23*
X111442500Y-80100000D03*
D22*
X111442500Y-77775000D03*
X111442500Y-74625000D03*
D24*
X142875000Y-55155000D03*
D23*
X142875000Y-62955000D03*
D22*
X142875000Y-60630000D03*
X142875000Y-57480000D03*
D24*
X47625000Y-53250000D03*
D23*
X47625000Y-61050000D03*
D22*
X47625000Y-58725000D03*
X47625000Y-55575000D03*
D24*
X228600000Y-72300000D03*
D23*
X228600000Y-80100000D03*
D22*
X228600000Y-77775000D03*
X228600000Y-74625000D03*
X104775000Y-57480000D03*
X104775000Y-60630000D03*
D23*
X104775000Y-62955000D03*
D24*
X104775000Y-55155000D03*
X238125000Y-15150000D03*
D23*
X238125000Y-22950000D03*
D22*
X238125000Y-20625000D03*
X238125000Y-17475000D03*
X200025000Y-55575000D03*
X200025000Y-58725000D03*
D23*
X200025000Y-61050000D03*
D24*
X200025000Y-53250000D03*
X33337500Y-74205000D03*
D23*
X33337500Y-82005000D03*
D22*
X33337500Y-79680000D03*
X33337500Y-76530000D03*
D24*
X90487500Y-34200000D03*
D23*
X90487500Y-42000000D03*
D22*
X90487500Y-39675000D03*
X90487500Y-36525000D03*
D24*
X219075000Y-55155000D03*
D23*
X219075000Y-62955000D03*
D22*
X219075000Y-60630000D03*
X219075000Y-57480000D03*
D24*
X247650000Y-72300000D03*
D23*
X247650000Y-80100000D03*
D22*
X247650000Y-77775000D03*
X247650000Y-74625000D03*
X85725000Y-17475000D03*
X85725000Y-20625000D03*
D23*
X85725000Y-22950000D03*
D24*
X85725000Y-15150000D03*
X260985000Y-15150000D03*
D23*
X260985000Y-22950000D03*
D22*
X260985000Y-20625000D03*
X260985000Y-17475000D03*
D24*
X28575000Y-17055000D03*
D23*
X28575000Y-24855000D03*
D22*
X28575000Y-22530000D03*
X28575000Y-19380000D03*
X109537500Y-38430000D03*
X109537500Y-41580000D03*
D23*
X109537500Y-43905000D03*
D24*
X109537500Y-36105000D03*
X128587500Y-34200000D03*
D23*
X128587500Y-42000000D03*
D22*
X128587500Y-39675000D03*
X128587500Y-36525000D03*
X147637500Y-38430000D03*
X147637500Y-41580000D03*
D23*
X147637500Y-43905000D03*
D24*
X147637500Y-36105000D03*
X180975000Y-17055000D03*
D23*
X180975000Y-24855000D03*
D22*
X180975000Y-22530000D03*
X180975000Y-19380000D03*
D24*
X166687500Y-34268750D03*
D23*
X166687500Y-42068750D03*
D22*
X166687500Y-39743750D03*
X166687500Y-36593750D03*
X185737500Y-38340000D03*
X185737500Y-41490000D03*
D23*
X185737500Y-43815000D03*
D24*
X185737500Y-36015000D03*
X204787500Y-34200000D03*
D23*
X204787500Y-42000000D03*
D22*
X204787500Y-39675000D03*
X204787500Y-36525000D03*
X52387500Y-74625000D03*
X52387500Y-77775000D03*
D23*
X52387500Y-80100000D03*
D24*
X52387500Y-72300000D03*
X260032500Y-55155000D03*
D23*
X260032500Y-62955000D03*
D22*
X260032500Y-60630000D03*
X260032500Y-57480000D03*
D24*
X180975000Y-55155000D03*
D23*
X180975000Y-62955000D03*
D22*
X180975000Y-60630000D03*
X180975000Y-57480000D03*
X161925000Y-55575000D03*
X161925000Y-58725000D03*
D23*
X161925000Y-61050000D03*
D24*
X161925000Y-53250000D03*
X200025000Y-15150000D03*
D23*
X200025000Y-22950000D03*
D22*
X200025000Y-20625000D03*
X200025000Y-17475000D03*
D24*
X257175000Y-16965000D03*
D23*
X257175000Y-24765000D03*
D22*
X257175000Y-22440000D03*
X257175000Y-19290000D03*
D24*
X219075000Y-17055000D03*
D23*
X219075000Y-24855000D03*
D22*
X219075000Y-22530000D03*
X219075000Y-19380000D03*
X47625000Y-17475000D03*
X47625000Y-20625000D03*
D23*
X47625000Y-22950000D03*
D24*
X47625000Y-15150000D03*
D22*
X242887500Y-36525000D03*
X242887500Y-39675000D03*
D23*
X242887500Y-42000000D03*
D24*
X242887500Y-34200000D03*
D22*
X104775000Y-19380000D03*
X104775000Y-22530000D03*
D23*
X104775000Y-24855000D03*
D24*
X104775000Y-17055000D03*
D22*
X263842500Y-56527500D03*
X263842500Y-59677500D03*
D23*
X263842500Y-62002500D03*
D24*
X263842500Y-54202500D03*
D22*
X71437500Y-38430000D03*
X71437500Y-41580000D03*
D23*
X71437500Y-43905000D03*
D24*
X71437500Y-36105000D03*
D22*
X223837500Y-38340000D03*
X223837500Y-41490000D03*
D23*
X223837500Y-43815000D03*
D24*
X223837500Y-36015000D03*
D22*
X285750000Y-27000000D03*
X285750000Y-30150000D03*
D23*
X285750000Y-32475000D03*
D24*
X285750000Y-24675000D03*
D22*
X28575000Y-57480000D03*
X28575000Y-60630000D03*
D23*
X28575000Y-62955000D03*
D24*
X28575000Y-55155000D03*
D22*
X238125000Y-55575000D03*
X238125000Y-58725000D03*
D23*
X238125000Y-61050000D03*
D24*
X238125000Y-53250000D03*
D22*
X161925000Y-70815000D03*
X161925000Y-73965000D03*
D23*
X161925000Y-76290000D03*
D24*
X161925000Y-68490000D03*
D22*
X123825000Y-17475000D03*
X123825000Y-20625000D03*
D23*
X123825000Y-22950000D03*
D24*
X123825000Y-15150000D03*
X33337500Y-36105000D03*
D23*
X33337500Y-43905000D03*
D22*
X33337500Y-41580000D03*
X33337500Y-38430000D03*
X161925000Y-17475000D03*
X161925000Y-20625000D03*
D23*
X161925000Y-22950000D03*
D24*
X161925000Y-15150000D03*
D22*
X266700000Y-74625000D03*
X266700000Y-77775000D03*
D23*
X266700000Y-80100000D03*
D24*
X266700000Y-72300000D03*
X123825000Y-53250000D03*
D23*
X123825000Y-61050000D03*
D22*
X123825000Y-58725000D03*
X123825000Y-55575000D03*
X66675000Y-19380000D03*
X66675000Y-22530000D03*
D23*
X66675000Y-24855000D03*
D24*
X66675000Y-17055000D03*
X85725000Y-53250000D03*
D23*
X85725000Y-61050000D03*
D22*
X85725000Y-58725000D03*
X85725000Y-55575000D03*
X142875000Y-19392500D03*
X142875000Y-22542500D03*
D23*
X142875000Y-24867500D03*
D24*
X142875000Y-17067500D03*
D22*
X66675000Y-57480000D03*
X66675000Y-60630000D03*
D23*
X66675000Y-62955000D03*
D24*
X66675000Y-55155000D03*
D19*
X252412500Y-38100000D03*
D20*
X247332500Y-38100000D03*
X257492500Y-38100000D03*
D19*
X42862500Y-38100000D03*
D20*
X37782500Y-38100000D03*
X47942500Y-38100000D03*
X138430000Y-57150000D03*
X128270000Y-57150000D03*
D19*
X133350000Y-57150000D03*
X38100000Y-57150000D03*
D20*
X33020000Y-57150000D03*
X43180000Y-57150000D03*
D19*
X219075000Y-76200000D03*
D20*
X213995000Y-76200000D03*
X224155000Y-76200000D03*
D19*
X95250000Y-57150000D03*
D20*
X90170000Y-57150000D03*
X100330000Y-57150000D03*
X233680000Y-19050000D03*
X223520000Y-19050000D03*
D19*
X228600000Y-19050000D03*
X190500000Y-57150000D03*
D20*
X185420000Y-57150000D03*
X195580000Y-57150000D03*
X26511250Y-76200000D03*
X16351250Y-76200000D03*
D19*
X21431250Y-76200000D03*
X80962500Y-38100000D03*
D20*
X75882500Y-38100000D03*
X86042500Y-38100000D03*
D19*
X209550000Y-57150000D03*
D20*
X204470000Y-57150000D03*
X214630000Y-57150000D03*
X243205000Y-76200000D03*
X233045000Y-76200000D03*
D19*
X238125000Y-76200000D03*
D20*
X81280000Y-19050000D03*
X71120000Y-19050000D03*
D19*
X76200000Y-19050000D03*
X100012500Y-38100000D03*
D20*
X94932500Y-38100000D03*
X105092500Y-38100000D03*
X124142500Y-38100000D03*
X113982500Y-38100000D03*
D19*
X119062500Y-38100000D03*
X138112500Y-38100000D03*
D20*
X133032500Y-38100000D03*
X143192500Y-38100000D03*
X176530000Y-19050000D03*
X166370000Y-19050000D03*
D19*
X171450000Y-19050000D03*
X157162500Y-38100000D03*
D20*
X152082500Y-38100000D03*
X162242500Y-38100000D03*
X181292500Y-38100000D03*
X171132500Y-38100000D03*
D19*
X176212500Y-38100000D03*
D20*
X200342500Y-38100000D03*
X190182500Y-38100000D03*
D19*
X195262500Y-38100000D03*
X42862500Y-76200000D03*
D20*
X37782500Y-76200000D03*
X47942500Y-76200000D03*
X255111250Y-57150000D03*
X244951250Y-57150000D03*
D19*
X250031250Y-57150000D03*
D20*
X176530000Y-57150000D03*
X166370000Y-57150000D03*
D19*
X171450000Y-57150000D03*
X152400000Y-57150000D03*
D20*
X147320000Y-57150000D03*
X157480000Y-57150000D03*
X195580000Y-19050000D03*
X185420000Y-19050000D03*
D19*
X190500000Y-19050000D03*
D20*
X252730000Y-19050000D03*
X242570000Y-19050000D03*
D19*
X247650000Y-19050000D03*
X209550000Y-19050000D03*
D20*
X204470000Y-19050000D03*
X214630000Y-19050000D03*
X43180000Y-19050000D03*
X33020000Y-19050000D03*
D19*
X38100000Y-19050000D03*
D20*
X238442500Y-38100000D03*
X228282500Y-38100000D03*
D19*
X233362500Y-38100000D03*
D20*
X100330000Y-19050000D03*
X90170000Y-19050000D03*
D19*
X95250000Y-19050000D03*
D20*
X281305000Y-76200000D03*
X271145000Y-76200000D03*
D19*
X276225000Y-76200000D03*
D20*
X66992500Y-38100000D03*
X56832500Y-38100000D03*
D19*
X61912500Y-38100000D03*
X214312500Y-38100000D03*
D20*
X209232500Y-38100000D03*
X219392500Y-38100000D03*
D19*
X19050000Y-57150000D03*
D20*
X13970000Y-57150000D03*
X24130000Y-57150000D03*
D19*
X228600000Y-57150000D03*
D20*
X223520000Y-57150000D03*
X233680000Y-57150000D03*
D19*
X114300000Y-19050000D03*
D20*
X109220000Y-19050000D03*
X119380000Y-19050000D03*
D19*
X21431250Y-38100000D03*
D20*
X16351250Y-38100000D03*
X26511250Y-38100000D03*
D19*
X152400000Y-19050000D03*
D20*
X147320000Y-19050000D03*
X157480000Y-19050000D03*
X262255000Y-76200000D03*
X252095000Y-76200000D03*
D19*
X257175000Y-76200000D03*
X114300000Y-57150000D03*
D20*
X109220000Y-57150000D03*
X119380000Y-57150000D03*
D19*
X57150000Y-19050000D03*
D20*
X52070000Y-19050000D03*
X62230000Y-19050000D03*
X81280000Y-57150000D03*
X71120000Y-57150000D03*
D19*
X76200000Y-57150000D03*
D20*
X138430000Y-19050000D03*
X128270000Y-19050000D03*
D19*
X133350000Y-19050000D03*
D20*
X62230000Y-57150000D03*
X52070000Y-57150000D03*
D19*
X57150000Y-57150000D03*
D20*
X14287500Y-50125000D03*
X14287500Y-47625000D03*
X14287500Y-45125000D03*
D25*
X288724999Y-83700003D03*
X314624998Y-11550000D03*
X314624999Y-83700003D03*
X288724998Y-11549997D03*
D22*
X274650000Y-66675000D03*
X277800000Y-66675000D03*
D23*
X280125000Y-66675000D03*
D24*
X272325000Y-66675000D03*
D22*
X117157500Y-72720000D03*
X117157500Y-75870000D03*
D23*
X117157500Y-78195000D03*
D24*
X117157500Y-70395000D03*
D20*
X66992500Y-76200000D03*
X56832500Y-76200000D03*
D19*
X61912500Y-76200000D03*
D20*
X59212500Y-76200000D03*
X69372500Y-76200000D03*
D19*
X64292500Y-76200000D03*
D20*
X86042500Y-76200000D03*
X75882500Y-76200000D03*
D19*
X80962500Y-76200000D03*
X200025000Y-67945000D03*
X85725000Y-67945000D03*
D21*
X200025000Y-83185000D03*
X85725000Y-83185000D03*
D20*
X147955000Y-76200000D03*
X137795000Y-76200000D03*
D19*
X142875000Y-76200000D03*
D21*
X100023100Y-83182500D03*
D19*
X100023100Y-67942500D03*
D20*
X144943000Y-76197500D03*
X155103000Y-76197500D03*
D19*
X200022900Y-67942500D03*
D21*
X200022900Y-83182500D03*
D19*
X150023000Y-76197500D03*
D13*
X298742500Y-46672500D03*
X304457500Y-46672500D03*
M02*
