G04 #@! TF.GenerationSoftware,KiCad,Pcbnew,(5.1.10)-1*
G04 #@! TF.CreationDate,2022-03-21T16:41:14+02:00*
G04 #@! TF.ProjectId,Verdantrev01,56657264-616e-4747-9265-7630312e6b69,rev?*
G04 #@! TF.SameCoordinates,Original*
G04 #@! TF.FileFunction,Soldermask,Top*
G04 #@! TF.FilePolarity,Negative*
%FSLAX46Y46*%
G04 Gerber Fmt 4.6, Leading zero omitted, Abs format (unit mm)*
G04 Created by KiCad (PCBNEW (5.1.10)-1) date 2022-03-21 16:41:14*
%MOMM*%
%LPD*%
G01*
G04 APERTURE LIST*
%ADD10O,1.600000X2.000000*%
%ADD11C,2.000000*%
%ADD12O,2.000000X3.400000*%
%ADD13R,2.000000X2.000000*%
%ADD14R,1.752600X1.752600*%
%ADD15C,1.752600*%
%ADD16C,3.987800*%
%ADD17C,1.750000*%
%ADD18C,3.048000*%
%ADD19R,1.200000X1.200000*%
%ADD20R,1.600000X1.600000*%
%ADD21C,1.600000*%
%ADD22C,4.400000*%
G04 APERTURE END LIST*
D10*
X302944993Y-49574999D03*
X305484993Y-49574999D03*
X300404993Y-49574999D03*
X297864993Y-49574999D03*
X297864998Y-76324997D03*
X300404998Y-76324997D03*
X305484998Y-76324997D03*
X302944998Y-76324997D03*
D11*
X299174998Y-73674999D03*
X304174998Y-73674999D03*
D12*
X296074998Y-66674999D03*
X307274998Y-66674999D03*
D11*
X299174998Y-59174999D03*
X301674998Y-59174999D03*
D13*
X304174998Y-59174999D03*
D14*
X294054997Y-14859996D03*
D15*
X294054997Y-17399996D03*
X294054997Y-19939996D03*
X294054997Y-22479996D03*
X294054997Y-25019996D03*
X294054997Y-27559996D03*
X294054997Y-30099996D03*
X294054997Y-32639996D03*
X294054997Y-35179996D03*
X294054997Y-37719996D03*
X294054997Y-40259996D03*
X309294997Y-42799996D03*
X309294997Y-40259996D03*
X309294997Y-37719996D03*
X309294997Y-35179996D03*
X309294997Y-32639996D03*
X309294997Y-30099996D03*
X309294997Y-27559996D03*
X309294997Y-25019996D03*
X309294997Y-22479996D03*
X309294997Y-19939996D03*
X309294997Y-17399996D03*
X294054997Y-42799996D03*
X309294997Y-14859996D03*
D16*
X273843750Y-28575000D03*
D17*
X268763750Y-28575000D03*
X278923750Y-28575000D03*
D18*
X266858750Y-40513000D03*
X266858750Y-16637000D03*
D16*
X282098750Y-40513000D03*
X282098750Y-16637000D03*
X273843750Y-57150000D03*
D17*
X268763750Y-57150000D03*
X278923750Y-57150000D03*
X24130000Y-19050000D03*
X13970000Y-19050000D03*
D16*
X19050000Y-19050000D03*
D19*
X261937500Y-38430000D03*
X261937500Y-41580000D03*
D20*
X261937500Y-43905000D03*
D21*
X261937500Y-36105000D03*
X52387500Y-34200000D03*
D20*
X52387500Y-42000000D03*
D19*
X52387500Y-39675000D03*
X52387500Y-36525000D03*
D21*
X111442500Y-72300000D03*
D20*
X111442500Y-80100000D03*
D19*
X111442500Y-77775000D03*
X111442500Y-74625000D03*
D21*
X142875000Y-55155000D03*
D20*
X142875000Y-62955000D03*
D19*
X142875000Y-60630000D03*
X142875000Y-57480000D03*
D21*
X47625000Y-53250000D03*
D20*
X47625000Y-61050000D03*
D19*
X47625000Y-58725000D03*
X47625000Y-55575000D03*
D21*
X228600000Y-72300000D03*
D20*
X228600000Y-80100000D03*
D19*
X228600000Y-77775000D03*
X228600000Y-74625000D03*
X104775000Y-57480000D03*
X104775000Y-60630000D03*
D20*
X104775000Y-62955000D03*
D21*
X104775000Y-55155000D03*
X238125000Y-15150000D03*
D20*
X238125000Y-22950000D03*
D19*
X238125000Y-20625000D03*
X238125000Y-17475000D03*
X200025000Y-55575000D03*
X200025000Y-58725000D03*
D20*
X200025000Y-61050000D03*
D21*
X200025000Y-53250000D03*
X33337500Y-74205000D03*
D20*
X33337500Y-82005000D03*
D19*
X33337500Y-79680000D03*
X33337500Y-76530000D03*
D21*
X90487500Y-34200000D03*
D20*
X90487500Y-42000000D03*
D19*
X90487500Y-39675000D03*
X90487500Y-36525000D03*
D21*
X219075000Y-55155000D03*
D20*
X219075000Y-62955000D03*
D19*
X219075000Y-60630000D03*
X219075000Y-57480000D03*
D21*
X247650000Y-72300000D03*
D20*
X247650000Y-80100000D03*
D19*
X247650000Y-77775000D03*
X247650000Y-74625000D03*
X85725000Y-17475000D03*
X85725000Y-20625000D03*
D20*
X85725000Y-22950000D03*
D21*
X85725000Y-15150000D03*
X260985000Y-15150000D03*
D20*
X260985000Y-22950000D03*
D19*
X260985000Y-20625000D03*
X260985000Y-17475000D03*
D21*
X28575000Y-17055000D03*
D20*
X28575000Y-24855000D03*
D19*
X28575000Y-22530000D03*
X28575000Y-19380000D03*
X109537500Y-38430000D03*
X109537500Y-41580000D03*
D20*
X109537500Y-43905000D03*
D21*
X109537500Y-36105000D03*
X128587500Y-34200000D03*
D20*
X128587500Y-42000000D03*
D19*
X128587500Y-39675000D03*
X128587500Y-36525000D03*
X147637500Y-38430000D03*
X147637500Y-41580000D03*
D20*
X147637500Y-43905000D03*
D21*
X147637500Y-36105000D03*
X180975000Y-17055000D03*
D20*
X180975000Y-24855000D03*
D19*
X180975000Y-22530000D03*
X180975000Y-19380000D03*
D21*
X166687500Y-34268750D03*
D20*
X166687500Y-42068750D03*
D19*
X166687500Y-39743750D03*
X166687500Y-36593750D03*
X185737500Y-38340000D03*
X185737500Y-41490000D03*
D20*
X185737500Y-43815000D03*
D21*
X185737500Y-36015000D03*
X204787500Y-34200000D03*
D20*
X204787500Y-42000000D03*
D19*
X204787500Y-39675000D03*
X204787500Y-36525000D03*
X52387500Y-74625000D03*
X52387500Y-77775000D03*
D20*
X52387500Y-80100000D03*
D21*
X52387500Y-72300000D03*
X260032500Y-55155000D03*
D20*
X260032500Y-62955000D03*
D19*
X260032500Y-60630000D03*
X260032500Y-57480000D03*
D21*
X180975000Y-55155000D03*
D20*
X180975000Y-62955000D03*
D19*
X180975000Y-60630000D03*
X180975000Y-57480000D03*
X161925000Y-55575000D03*
X161925000Y-58725000D03*
D20*
X161925000Y-61050000D03*
D21*
X161925000Y-53250000D03*
X200025000Y-15150000D03*
D20*
X200025000Y-22950000D03*
D19*
X200025000Y-20625000D03*
X200025000Y-17475000D03*
D21*
X257175000Y-16965000D03*
D20*
X257175000Y-24765000D03*
D19*
X257175000Y-22440000D03*
X257175000Y-19290000D03*
D21*
X219075000Y-17055000D03*
D20*
X219075000Y-24855000D03*
D19*
X219075000Y-22530000D03*
X219075000Y-19380000D03*
X47625000Y-17475000D03*
X47625000Y-20625000D03*
D20*
X47625000Y-22950000D03*
D21*
X47625000Y-15150000D03*
D19*
X242887500Y-36525000D03*
X242887500Y-39675000D03*
D20*
X242887500Y-42000000D03*
D21*
X242887500Y-34200000D03*
D19*
X104775000Y-19380000D03*
X104775000Y-22530000D03*
D20*
X104775000Y-24855000D03*
D21*
X104775000Y-17055000D03*
D19*
X263842500Y-56527500D03*
X263842500Y-59677500D03*
D20*
X263842500Y-62002500D03*
D21*
X263842500Y-54202500D03*
D19*
X71437500Y-38430000D03*
X71437500Y-41580000D03*
D20*
X71437500Y-43905000D03*
D21*
X71437500Y-36105000D03*
D19*
X223837500Y-38340000D03*
X223837500Y-41490000D03*
D20*
X223837500Y-43815000D03*
D21*
X223837500Y-36015000D03*
D19*
X285750000Y-27000000D03*
X285750000Y-30150000D03*
D20*
X285750000Y-32475000D03*
D21*
X285750000Y-24675000D03*
D19*
X28575000Y-57480000D03*
X28575000Y-60630000D03*
D20*
X28575000Y-62955000D03*
D21*
X28575000Y-55155000D03*
D19*
X238125000Y-55575000D03*
X238125000Y-58725000D03*
D20*
X238125000Y-61050000D03*
D21*
X238125000Y-53250000D03*
D19*
X161925000Y-70815000D03*
X161925000Y-73965000D03*
D20*
X161925000Y-76290000D03*
D21*
X161925000Y-68490000D03*
D19*
X123825000Y-17475000D03*
X123825000Y-20625000D03*
D20*
X123825000Y-22950000D03*
D21*
X123825000Y-15150000D03*
X33337500Y-36105000D03*
D20*
X33337500Y-43905000D03*
D19*
X33337500Y-41580000D03*
X33337500Y-38430000D03*
X161925000Y-17475000D03*
X161925000Y-20625000D03*
D20*
X161925000Y-22950000D03*
D21*
X161925000Y-15150000D03*
D19*
X266700000Y-74625000D03*
X266700000Y-77775000D03*
D20*
X266700000Y-80100000D03*
D21*
X266700000Y-72300000D03*
X123825000Y-53250000D03*
D20*
X123825000Y-61050000D03*
D19*
X123825000Y-58725000D03*
X123825000Y-55575000D03*
X66675000Y-19380000D03*
X66675000Y-22530000D03*
D20*
X66675000Y-24855000D03*
D21*
X66675000Y-17055000D03*
X85725000Y-53250000D03*
D20*
X85725000Y-61050000D03*
D19*
X85725000Y-58725000D03*
X85725000Y-55575000D03*
X142875000Y-19392500D03*
X142875000Y-22542500D03*
D20*
X142875000Y-24867500D03*
D21*
X142875000Y-17067500D03*
D19*
X66675000Y-57480000D03*
X66675000Y-60630000D03*
D20*
X66675000Y-62955000D03*
D21*
X66675000Y-55155000D03*
D16*
X252412500Y-38100000D03*
D17*
X247332500Y-38100000D03*
X257492500Y-38100000D03*
D16*
X42862500Y-38100000D03*
D17*
X37782500Y-38100000D03*
X47942500Y-38100000D03*
X138430000Y-57150000D03*
X128270000Y-57150000D03*
D16*
X133350000Y-57150000D03*
X38100000Y-57150000D03*
D17*
X33020000Y-57150000D03*
X43180000Y-57150000D03*
D16*
X219075000Y-76200000D03*
D17*
X213995000Y-76200000D03*
X224155000Y-76200000D03*
D16*
X95250000Y-57150000D03*
D17*
X90170000Y-57150000D03*
X100330000Y-57150000D03*
X233680000Y-19050000D03*
X223520000Y-19050000D03*
D16*
X228600000Y-19050000D03*
X190500000Y-57150000D03*
D17*
X185420000Y-57150000D03*
X195580000Y-57150000D03*
X26511250Y-76200000D03*
X16351250Y-76200000D03*
D16*
X21431250Y-76200000D03*
X80962500Y-38100000D03*
D17*
X75882500Y-38100000D03*
X86042500Y-38100000D03*
D16*
X209550000Y-57150000D03*
D17*
X204470000Y-57150000D03*
X214630000Y-57150000D03*
X243205000Y-76200000D03*
X233045000Y-76200000D03*
D16*
X238125000Y-76200000D03*
D17*
X81280000Y-19050000D03*
X71120000Y-19050000D03*
D16*
X76200000Y-19050000D03*
X100012500Y-38100000D03*
D17*
X94932500Y-38100000D03*
X105092500Y-38100000D03*
X124142500Y-38100000D03*
X113982500Y-38100000D03*
D16*
X119062500Y-38100000D03*
X138112500Y-38100000D03*
D17*
X133032500Y-38100000D03*
X143192500Y-38100000D03*
X176530000Y-19050000D03*
X166370000Y-19050000D03*
D16*
X171450000Y-19050000D03*
X157162500Y-38100000D03*
D17*
X152082500Y-38100000D03*
X162242500Y-38100000D03*
X181292500Y-38100000D03*
X171132500Y-38100000D03*
D16*
X176212500Y-38100000D03*
D17*
X200342500Y-38100000D03*
X190182500Y-38100000D03*
D16*
X195262500Y-38100000D03*
X42862500Y-76200000D03*
D17*
X37782500Y-76200000D03*
X47942500Y-76200000D03*
X255111250Y-57150000D03*
X244951250Y-57150000D03*
D16*
X250031250Y-57150000D03*
D17*
X176530000Y-57150000D03*
X166370000Y-57150000D03*
D16*
X171450000Y-57150000D03*
X152400000Y-57150000D03*
D17*
X147320000Y-57150000D03*
X157480000Y-57150000D03*
X195580000Y-19050000D03*
X185420000Y-19050000D03*
D16*
X190500000Y-19050000D03*
D17*
X252730000Y-19050000D03*
X242570000Y-19050000D03*
D16*
X247650000Y-19050000D03*
X209550000Y-19050000D03*
D17*
X204470000Y-19050000D03*
X214630000Y-19050000D03*
X43180000Y-19050000D03*
X33020000Y-19050000D03*
D16*
X38100000Y-19050000D03*
D17*
X238442500Y-38100000D03*
X228282500Y-38100000D03*
D16*
X233362500Y-38100000D03*
D17*
X100330000Y-19050000D03*
X90170000Y-19050000D03*
D16*
X95250000Y-19050000D03*
D17*
X281305000Y-76200000D03*
X271145000Y-76200000D03*
D16*
X276225000Y-76200000D03*
D17*
X66992500Y-38100000D03*
X56832500Y-38100000D03*
D16*
X61912500Y-38100000D03*
X214312500Y-38100000D03*
D17*
X209232500Y-38100000D03*
X219392500Y-38100000D03*
D16*
X19050000Y-57150000D03*
D17*
X13970000Y-57150000D03*
X24130000Y-57150000D03*
D16*
X228600000Y-57150000D03*
D17*
X223520000Y-57150000D03*
X233680000Y-57150000D03*
D16*
X114300000Y-19050000D03*
D17*
X109220000Y-19050000D03*
X119380000Y-19050000D03*
D16*
X21431250Y-38100000D03*
D17*
X16351250Y-38100000D03*
X26511250Y-38100000D03*
D16*
X152400000Y-19050000D03*
D17*
X147320000Y-19050000D03*
X157480000Y-19050000D03*
X262255000Y-76200000D03*
X252095000Y-76200000D03*
D16*
X257175000Y-76200000D03*
X114300000Y-57150000D03*
D17*
X109220000Y-57150000D03*
X119380000Y-57150000D03*
D16*
X57150000Y-19050000D03*
D17*
X52070000Y-19050000D03*
X62230000Y-19050000D03*
X81280000Y-57150000D03*
X71120000Y-57150000D03*
D16*
X76200000Y-57150000D03*
D17*
X138430000Y-19050000D03*
X128270000Y-19050000D03*
D16*
X133350000Y-19050000D03*
D17*
X62230000Y-57150000D03*
X52070000Y-57150000D03*
D16*
X57150000Y-57150000D03*
D17*
X14287500Y-50125000D03*
X14287500Y-47625000D03*
X14287500Y-45125000D03*
D22*
X288724999Y-83700003D03*
X314624998Y-11550000D03*
X314624999Y-83700003D03*
X288724998Y-11549997D03*
D19*
X274650000Y-66675000D03*
X277800000Y-66675000D03*
D20*
X280125000Y-66675000D03*
D21*
X272325000Y-66675000D03*
D19*
X117157500Y-72720000D03*
X117157500Y-75870000D03*
D20*
X117157500Y-78195000D03*
D21*
X117157500Y-70395000D03*
D17*
X66992500Y-76200000D03*
X56832500Y-76200000D03*
D16*
X61912500Y-76200000D03*
D17*
X59212500Y-76200000D03*
X69372500Y-76200000D03*
D16*
X64292500Y-76200000D03*
D17*
X86042500Y-76200000D03*
X75882500Y-76200000D03*
D16*
X80962500Y-76200000D03*
X200025000Y-67945000D03*
X85725000Y-67945000D03*
D18*
X200025000Y-83185000D03*
X85725000Y-83185000D03*
D17*
X147955000Y-76200000D03*
X137795000Y-76200000D03*
D16*
X142875000Y-76200000D03*
D18*
X100023100Y-83182500D03*
D16*
X100023100Y-67942500D03*
D17*
X144943000Y-76197500D03*
X155103000Y-76197500D03*
D16*
X200022900Y-67942500D03*
D18*
X200022900Y-83182500D03*
D16*
X150023000Y-76197500D03*
D10*
X298742500Y-46672500D03*
X304457500Y-46672500D03*
M02*
