M48
; DRILL file {KiCad (5.1.10)-1} date 03/21/22 16:41:16
; FORMAT={-:-/ absolute / metric / decimal}
; #@! TF.CreationDate,2022-03-21T16:41:16+02:00
; #@! TF.GenerationSoftware,Kicad,Pcbnew,(5.1.10)-1
; #@! TF.FileFunction,NonPlated,1,2,NPTH
FMAT,2
METRIC
T1C1.750
T2C3.048
T3C3.988
%
G90
G05
T1
X13.97Y-19.05
X13.97Y-57.15
X16.351Y-38.1
X16.351Y-76.2
X24.13Y-19.05
X24.13Y-57.15
X26.511Y-38.1
X26.511Y-76.2
X33.02Y-19.05
X33.02Y-57.15
X37.782Y-38.1
X37.782Y-76.2
X43.18Y-19.05
X43.18Y-57.15
X47.942Y-38.1
X47.942Y-76.2
X52.07Y-19.05
X52.07Y-57.15
X56.832Y-38.1
X56.832Y-76.2
X59.212Y-76.2
X62.23Y-19.05
X62.23Y-57.15
X66.992Y-38.1
X66.992Y-76.2
X69.373Y-76.2
X71.12Y-19.05
X71.12Y-57.15
X75.882Y-38.1
X75.882Y-76.2
X81.28Y-19.05
X81.28Y-57.15
X86.042Y-38.1
X86.042Y-76.2
X90.17Y-19.05
X90.17Y-57.15
X94.932Y-38.1
X100.33Y-19.05
X100.33Y-57.15
X105.093Y-38.1
X109.22Y-19.05
X109.22Y-57.15
X113.983Y-38.1
X119.38Y-19.05
X119.38Y-57.15
X124.142Y-38.1
X128.27Y-19.05
X128.27Y-57.15
X133.032Y-38.1
X137.795Y-76.2
X138.43Y-19.05
X138.43Y-57.15
X143.192Y-38.1
X144.943Y-76.197
X147.32Y-19.05
X147.32Y-57.15
X147.955Y-76.2
X152.082Y-38.1
X155.103Y-76.197
X157.48Y-19.05
X157.48Y-57.15
X162.243Y-38.1
X166.37Y-19.05
X166.37Y-57.15
X171.132Y-38.1
X176.53Y-19.05
X176.53Y-57.15
X181.292Y-38.1
X185.42Y-19.05
X185.42Y-57.15
X190.183Y-38.1
X195.58Y-19.05
X195.58Y-57.15
X200.343Y-38.1
X204.47Y-19.05
X204.47Y-57.15
X209.232Y-38.1
X213.995Y-76.2
X214.63Y-19.05
X214.63Y-57.15
X219.392Y-38.1
X223.52Y-19.05
X223.52Y-57.15
X224.155Y-76.2
X228.282Y-38.1
X233.045Y-76.2
X233.68Y-19.05
X233.68Y-57.15
X238.442Y-38.1
X242.57Y-19.05
X243.205Y-76.2
X244.951Y-57.15
X247.332Y-38.1
X252.095Y-76.2
X252.73Y-19.05
X255.111Y-57.15
X257.493Y-38.1
X262.255Y-76.2
X268.764Y-28.575
X268.764Y-57.15
X271.145Y-76.2
X278.924Y-28.575
X278.924Y-57.15
X281.305Y-76.2
T2
X85.725Y-83.185
X100.023Y-83.182
X200.023Y-83.182
X200.025Y-83.185
X266.859Y-16.637
X266.859Y-40.513
T3
X19.05Y-19.05
X19.05Y-57.15
X21.431Y-38.1
X21.431Y-76.2
X38.1Y-19.05
X38.1Y-57.15
X42.862Y-38.1
X42.862Y-76.2
X57.15Y-19.05
X57.15Y-57.15
X61.912Y-38.1
X61.912Y-76.2
X64.293Y-76.2
X76.2Y-19.05
X76.2Y-57.15
X80.962Y-38.1
X80.962Y-76.2
X85.725Y-67.945
X95.25Y-19.05
X95.25Y-57.15
X100.012Y-38.1
X100.023Y-67.942
X114.3Y-19.05
X114.3Y-57.15
X119.062Y-38.1
X133.35Y-19.05
X133.35Y-57.15
X138.112Y-38.1
X142.875Y-76.2
X150.023Y-76.197
X152.4Y-19.05
X152.4Y-57.15
X157.162Y-38.1
X171.45Y-19.05
X171.45Y-57.15
X176.213Y-38.1
X190.5Y-19.05
X190.5Y-57.15
X195.262Y-38.1
X200.023Y-67.942
X200.025Y-67.945
X209.55Y-19.05
X209.55Y-57.15
X214.312Y-38.1
X219.075Y-76.2
X228.6Y-19.05
X228.6Y-57.15
X233.362Y-38.1
X238.125Y-76.2
X247.65Y-19.05
X250.031Y-57.15
X252.412Y-38.1
X257.175Y-76.2
X273.844Y-28.575
X273.844Y-57.15
X276.225Y-76.2
X282.099Y-16.637
X282.099Y-40.513
T0
M30
