G04 #@! TF.GenerationSoftware,KiCad,Pcbnew,(5.1.10)-1*
G04 #@! TF.CreationDate,2022-03-21T16:41:14+02:00*
G04 #@! TF.ProjectId,Verdantrev01,56657264-616e-4747-9265-7630312e6b69,rev?*
G04 #@! TF.SameCoordinates,Original*
G04 #@! TF.FileFunction,Profile,NP*
%FSLAX46Y46*%
G04 Gerber Fmt 4.6, Leading zero omitted, Abs format (unit mm)*
G04 Created by KiCad (PCBNEW (5.1.10)-1) date 2022-03-21 16:41:14*
%MOMM*%
%LPD*%
G01*
G04 APERTURE LIST*
G04 #@! TA.AperFunction,Profile*
%ADD10C,0.200000*%
G04 #@! TD*
G04 APERTURE END LIST*
D10*
X9050000Y-22325004D02*
X9049997Y-11049998D01*
X7238187Y-71925002D02*
G75*
G02*
X6741664Y-71483824I3J499998D01*
G01*
X67285294Y-90758824D02*
G75*
G02*
X67049995Y-91700005I-235297J-441178D01*
G01*
X226124994Y-86200008D02*
G75*
G02*
X227124996Y-87200000I5J-999997D01*
G01*
X3550005Y-24425004D02*
G75*
G02*
X4491174Y-24189712I499996J0D01*
G01*
X8050002Y-71925004D02*
G75*
G02*
X9050001Y-72925004I1J-999998D01*
G01*
X18549994Y-86200003D02*
X11050004Y-86200005D01*
X9049995Y-22325000D02*
G75*
G02*
X8049998Y-23325004I-1000000J-4D01*
G01*
X228224997Y-3550005D02*
X274624997Y-3550001D01*
X227989699Y-4491181D02*
G75*
G02*
X228224997Y-3550005I235296J441176D01*
G01*
X227989699Y-4491182D02*
G75*
G02*
X227566176Y-6741669I-564702J-1058823D01*
G01*
X19991176Y-88508340D02*
G75*
G02*
X19549999Y-88011814I58822J496527D01*
G01*
X227124993Y-7238200D02*
G75*
G02*
X227566176Y-6741669I500005J-2D01*
G01*
X68149993Y-87200004D02*
G75*
G02*
X69149996Y-86200001I1000003J0D01*
G01*
X19549997Y-8050005D02*
X19549999Y-7238196D01*
X69149997Y-9050003D02*
X226124998Y-9050000D01*
X20649996Y-91700000D02*
G75*
G02*
X20414703Y-90758829I0J499997D01*
G01*
X6741664Y-23766174D02*
G75*
G02*
X4491174Y-24189712I-1191668J141172D01*
G01*
X67708823Y-6741670D02*
G75*
G02*
X68149997Y-7238199I-58825J-496527D01*
G01*
X68149997Y-7238199D02*
X68149998Y-8050005D01*
X19549996Y-8050002D02*
G75*
G02*
X18549997Y-9050005I-1000001J-2D01*
G01*
X226124995Y-86200005D02*
X69149996Y-86200001D01*
X69149999Y-9050002D02*
G75*
G02*
X68149998Y-8050005I-2J999999D01*
G01*
X19991174Y-88508337D02*
G75*
G02*
X20414703Y-90758829I-141177J-1191667D01*
G01*
X67050002Y-3550011D02*
G75*
G02*
X67285290Y-4491179I-2J-499995D01*
G01*
X9049997Y-11049998D02*
G75*
G02*
X11049998Y-9050005I1999997J-4D01*
G01*
X227566171Y-88508337D02*
G75*
G02*
X227989703Y-90758827I-141175J-1191667D01*
G01*
X275283825Y-6741667D02*
G75*
G02*
X274860291Y-4491183I141173J1191664D01*
G01*
X7238194Y-23325005D02*
X8049998Y-23325004D01*
X227125000Y-8050007D02*
X227124997Y-7238199D01*
X3549997Y-70825004D02*
X3549996Y-24425002D01*
X9050000Y-84200010D02*
X9050001Y-72925004D01*
X67708818Y-6741679D02*
G75*
G02*
X67285290Y-4491179I141179J1191671D01*
G01*
X20414704Y-4491185D02*
G75*
G02*
X19991175Y-6741670I-564705J-1058821D01*
G01*
X20414700Y-4491180D02*
G75*
G02*
X20650000Y-3550005I235297J441175D01*
G01*
X11049998Y-9050005D02*
X18549997Y-9050005D01*
X4491175Y-71060302D02*
G75*
G02*
X6741664Y-71483824I1058824J-564702D01*
G01*
X67049995Y-91700005D02*
X20649997Y-91700007D01*
X68149997Y-88011805D02*
G75*
G02*
X67708821Y-88508336I-500002J-2D01*
G01*
X227566176Y-88508337D02*
G75*
G02*
X227124996Y-88011811I58821J496529D01*
G01*
X274624995Y-3550001D02*
G75*
G02*
X274860291Y-4491183I0J-500003D01*
G01*
X20650000Y-3550005D02*
X67049999Y-3550005D01*
X67285287Y-90758825D02*
G75*
G02*
X67708821Y-88508336I564708J1058822D01*
G01*
X11050003Y-86200001D02*
G75*
G02*
X9050000Y-84200010I-6J1999997D01*
G01*
X227124997Y-8050008D02*
G75*
G02*
X226124998Y-9050000I-999998J6D01*
G01*
X68149999Y-87200004D02*
X68150000Y-88011812D01*
X6741665Y-23766179D02*
G75*
G02*
X7238194Y-23325005I496527J-58825D01*
G01*
X4491180Y-71060296D02*
G75*
G02*
X3549997Y-70825004I-441180J235294D01*
G01*
X8049997Y-71925004D02*
X7238191Y-71925005D01*
X18549997Y-86200001D02*
G75*
G02*
X19549996Y-87200006I-3J-1000002D01*
G01*
X19549999Y-88011814D02*
X19549996Y-87200006D01*
X19549994Y-7238195D02*
G75*
G02*
X19991175Y-6741670I500001J-4D01*
G01*
X227124996Y-88011811D02*
X227124996Y-87200000D01*
X9050000Y-28125002D02*
X9050002Y-67125004D01*
X8050000Y-27125002D02*
G75*
G02*
X9050000Y-28125002I0J-1000000D01*
G01*
X64350001Y-8050001D02*
G75*
G02*
X63349997Y-9050007I-1000005J-1D01*
G01*
X270924999Y-86200005D02*
X231924995Y-86200003D01*
X63349995Y-86199998D02*
G75*
G02*
X64349998Y-87200001I-1J-1000004D01*
G01*
X23349997Y-87200001D02*
G75*
G02*
X24349999Y-86200005I1000000J-4D01*
G01*
X315124999Y-9049999D02*
G75*
G02*
X317124994Y-11050000I-3J-1999998D01*
G01*
X276724997Y-9049999D02*
X315124998Y-9049996D01*
X319124996Y-67125004D02*
G75*
G02*
X318124999Y-68125002I-999996J-2D01*
G01*
X8049997Y-68125007D02*
G75*
G02*
X7049993Y-67125004I-2J1000002D01*
G01*
X24349995Y-88200002D02*
X63349996Y-88200004D01*
X318936800Y-71925005D02*
X318125000Y-71925002D01*
X228224998Y-91700007D02*
G75*
G02*
X227989703Y-90758827I0J500002D01*
G01*
X274624995Y-91700003D02*
X228225001Y-91700003D01*
X318125002Y-23325003D02*
G75*
G02*
X317124997Y-22325004I-4J1000001D01*
G01*
X274860293Y-90758834D02*
G75*
G02*
X274624995Y-91700003I-235295J-441172D01*
G01*
X317124996Y-67125005D02*
X317124998Y-28125002D01*
X274860288Y-90758823D02*
G75*
G02*
X275283822Y-88508340I564707J1058819D01*
G01*
X24349996Y-9050001D02*
G75*
G02*
X23349997Y-8050004I-1J999998D01*
G01*
X63349999Y-7050008D02*
G75*
G02*
X64349997Y-8050002I1J-999997D01*
G01*
X270924999Y-86200001D02*
G75*
G02*
X270924995Y-88200007I-2J-1000003D01*
G01*
X275725000Y-88011808D02*
G75*
G02*
X275283822Y-88508340I-500003J-1D01*
G01*
X275724994Y-87199999D02*
G75*
G02*
X276725000Y-86200003I1000001J-5D01*
G01*
X315124997Y-86200004D02*
X276725000Y-86200003D01*
X317124994Y-11050000D02*
X317124997Y-22325004D01*
X319125001Y-28125004D02*
X319124998Y-67125003D01*
X270924997Y-9050005D02*
X231924997Y-9050005D01*
X23349997Y-8050004D02*
G75*
G02*
X24349997Y-7050006I1000000J-2D01*
G01*
X318125001Y-27125002D02*
G75*
G02*
X319125001Y-28125004I-1J-1000001D01*
G01*
X231924999Y-88200005D02*
G75*
G02*
X231924995Y-86200003I-2J1000001D01*
G01*
X231924998Y-9050008D02*
G75*
G02*
X231924998Y-7050004I0J1000002D01*
G01*
X231924998Y-88200005D02*
X270924995Y-88200007D01*
X317124999Y-72925001D02*
G75*
G02*
X318125000Y-71925002I1000000J-1D01*
G01*
X319433332Y-71483830D02*
G75*
G02*
X318936800Y-71925005I-496529J58827D01*
G01*
X319433332Y-71483829D02*
G75*
G02*
X321683822Y-71060297I1191667J-141175D01*
G01*
X275283820Y-6741666D02*
G75*
G02*
X275724999Y-7238199I-58825J-496532D01*
G01*
X9049996Y-67125008D02*
G75*
G02*
X8050000Y-68125002I-999995J1D01*
G01*
X275724999Y-7238199D02*
X275724998Y-8050006D01*
X270924997Y-7050005D02*
G75*
G02*
X270924997Y-9050005I0J-1000000D01*
G01*
X64349996Y-87200000D02*
G75*
G02*
X63349996Y-88200004I-1000002J-2D01*
G01*
X7049992Y-28125008D02*
G75*
G02*
X8049998Y-27125003I1000004J1D01*
G01*
X7049993Y-67125004D02*
X7049998Y-28125004D01*
X317124997Y-28125004D02*
G75*
G02*
X318125002Y-27125004I1000001J-1D01*
G01*
X63349997Y-9050007D02*
X24349993Y-9050004D01*
X318936799Y-23325006D02*
G75*
G02*
X319433330Y-23766179I4J-500000D01*
G01*
X321683825Y-24189713D02*
G75*
G02*
X319433330Y-23766179I-1058825J564709D01*
G01*
X24349995Y-88200002D02*
G75*
G02*
X23349997Y-87200006I-1J999997D01*
G01*
X321683829Y-24189715D02*
G75*
G02*
X322624997Y-24425003I441173J-235290D01*
G01*
X322624997Y-24425003D02*
X322625001Y-70825005D01*
X276725000Y-9049998D02*
G75*
G02*
X275724998Y-8050006I-2J1000000D01*
G01*
X231924998Y-7050004D02*
X270924996Y-7050008D01*
X318125001Y-68125004D02*
G75*
G02*
X317124996Y-67125005I-3J1000002D01*
G01*
X24349997Y-7050006D02*
X63350000Y-7050008D01*
X318125000Y-23325005D02*
X318936805Y-23325003D01*
X275724997Y-87200004D02*
X275724997Y-88011812D01*
X63349999Y-86200006D02*
X24349999Y-86200005D01*
X317125003Y-84200004D02*
G75*
G02*
X315124997Y-86200004I-2000003J3D01*
G01*
X317124999Y-72925003D02*
X317124999Y-84200001D01*
X322624999Y-70825005D02*
G75*
G02*
X321683822Y-71060297I-500000J1D01*
G01*
M02*
