M48
; DRILL file {KiCad (5.1.10)-1} date 03/21/22 16:41:16
; FORMAT={-:-/ absolute / metric / decimal}
; #@! TF.CreationDate,2022-03-21T16:41:16+02:00
; #@! TF.GenerationSoftware,Kicad,Pcbnew,(5.1.10)-1
; #@! TF.FileFunction,Plated,1,2,PTH
FMAT,2
METRIC
T1C0.400
T2C0.700
T3C1.000
T4C1.092
T5C1.400
T6C1.470
T7C2.200
%
G90
G05
T1
X19.05Y-28.575
X38.1Y-28.575
X38.1Y-60.96
X61.912Y-41.91
X76.2Y-28.575
X76.2Y-60.96
X114.3Y-28.575
X115.252Y-45.72
X119.062Y-54.292
X132.398Y-76.2
X152.4Y-28.575
X152.4Y-60.96
X157.162Y-41.91
X159.067Y-76.2
X190.5Y-28.575
X190.5Y-60.96
X191.452Y-46.672
X195.262Y-41.91
X200.025Y-12.383
X208.597Y-41.91
X228.6Y-22.86
X228.6Y-28.575
X228.6Y-60.96
X233.362Y-41.91
X241.935Y-49.53
X252.412Y-60.96
X273.368Y-18.098
X273.368Y-38.1
X276.225Y-60.96
X289.56Y-27.622
X292.417Y-47.625
X298.132Y-56.197
X299.085Y-41.91
X302.895Y-19.05
X303.847Y-41.91
X310.515Y-59.055
T2
X28.575Y-17.055
X28.575Y-24.855
X28.575Y-55.155
X28.575Y-62.955
X33.337Y-36.105
X33.337Y-43.905
X33.337Y-74.205
X33.337Y-82.005
X47.625Y-15.15
X47.625Y-22.95
X47.625Y-53.25
X47.625Y-61.05
X52.387Y-34.2
X52.387Y-42.0
X52.387Y-72.3
X52.387Y-80.1
X66.675Y-17.055
X66.675Y-24.855
X66.675Y-55.155
X66.675Y-62.955
X71.438Y-36.105
X71.438Y-43.905
X85.725Y-15.15
X85.725Y-22.95
X85.725Y-53.25
X85.725Y-61.05
X90.487Y-34.2
X90.487Y-42.0
X104.775Y-17.055
X104.775Y-24.855
X104.775Y-55.155
X104.775Y-62.955
X109.537Y-36.105
X109.537Y-43.905
X111.442Y-72.3
X111.442Y-80.1
X117.157Y-70.395
X117.157Y-78.195
X123.825Y-15.15
X123.825Y-22.95
X123.825Y-53.25
X123.825Y-61.05
X128.588Y-34.2
X128.588Y-42.0
X142.875Y-17.067
X142.875Y-24.867
X142.875Y-55.155
X142.875Y-62.955
X147.637Y-36.105
X147.637Y-43.905
X161.925Y-15.15
X161.925Y-22.95
X161.925Y-53.25
X161.925Y-61.05
X161.925Y-68.49
X161.925Y-76.29
X166.688Y-34.269
X166.688Y-42.069
X180.975Y-17.055
X180.975Y-24.855
X180.975Y-55.155
X180.975Y-62.955
X185.737Y-36.015
X185.737Y-43.815
X200.025Y-15.15
X200.025Y-22.95
X200.025Y-53.25
X200.025Y-61.05
X204.787Y-34.2
X204.787Y-42.0
X219.075Y-17.055
X219.075Y-24.855
X219.075Y-55.155
X219.075Y-62.955
X223.837Y-36.015
X223.837Y-43.815
X228.6Y-72.3
X228.6Y-80.1
X238.125Y-15.15
X238.125Y-22.95
X238.125Y-53.25
X238.125Y-61.05
X242.887Y-34.2
X242.887Y-42.0
X247.65Y-72.3
X247.65Y-80.1
X257.175Y-16.965
X257.175Y-24.765
X260.032Y-55.155
X260.032Y-62.955
X260.985Y-15.15
X260.985Y-22.95
X261.938Y-36.105
X261.938Y-43.905
X263.842Y-54.203
X263.842Y-62.002
X266.7Y-72.3
X266.7Y-80.1
X272.325Y-66.675
X280.125Y-66.675
X285.75Y-24.675
X285.75Y-32.475
T3
X14.287Y-45.125
X14.287Y-47.625
X14.287Y-50.125
X297.865Y-49.575
X297.865Y-76.325
X298.743Y-46.672
X299.175Y-59.175
X299.175Y-73.675
X300.405Y-49.575
X300.405Y-76.325
X301.675Y-59.175
X302.945Y-49.575
X302.945Y-76.325
X304.175Y-59.175
X304.175Y-73.675
X304.457Y-46.672
X305.485Y-49.575
X305.485Y-76.325
T4
X294.055Y-14.86
X294.055Y-17.4
X294.055Y-19.94
X294.055Y-22.48
X294.055Y-25.02
X294.055Y-27.56
X294.055Y-30.1
X294.055Y-32.64
X294.055Y-35.18
X294.055Y-37.72
X294.055Y-40.26
X294.055Y-42.8
X309.295Y-14.86
X309.295Y-17.4
X309.295Y-19.94
X309.295Y-22.48
X309.295Y-25.02
X309.295Y-27.56
X309.295Y-30.1
X309.295Y-32.64
X309.295Y-35.18
X309.295Y-37.72
X309.295Y-40.26
X309.295Y-42.8
T6
X15.24Y-16.51
X15.24Y-54.61
X17.621Y-35.56
X17.621Y-73.66
X21.59Y-13.97
X21.59Y-52.07
X23.971Y-33.02
X23.971Y-71.12
X34.29Y-16.51
X34.29Y-54.61
X39.052Y-35.56
X39.052Y-73.66
X40.64Y-13.97
X40.64Y-52.07
X45.402Y-33.02
X45.402Y-71.12
X53.34Y-16.51
X53.34Y-54.61
X58.102Y-35.56
X58.102Y-73.66
X59.69Y-13.97
X59.69Y-52.07
X60.482Y-73.66
X64.453Y-33.02
X64.453Y-71.12
X66.832Y-71.12
X72.39Y-16.51
X72.39Y-54.61
X77.153Y-35.56
X77.153Y-73.66
X78.74Y-13.97
X78.74Y-52.07
X83.502Y-33.02
X83.502Y-71.12
X91.44Y-16.51
X91.44Y-54.61
X96.203Y-35.56
X97.79Y-13.97
X97.79Y-52.07
X102.552Y-33.02
X110.49Y-16.51
X110.49Y-54.61
X115.252Y-35.56
X116.84Y-13.97
X116.84Y-52.07
X121.602Y-33.02
X129.54Y-16.51
X129.54Y-54.61
X134.302Y-35.56
X135.89Y-13.97
X135.89Y-52.07
X139.065Y-73.66
X140.653Y-33.02
X145.415Y-71.12
X146.213Y-73.657
X148.59Y-16.51
X148.59Y-54.61
X152.563Y-71.117
X153.352Y-35.56
X154.94Y-13.97
X154.94Y-52.07
X159.702Y-33.02
X167.64Y-16.51
X167.64Y-54.61
X172.403Y-35.56
X173.99Y-13.97
X173.99Y-52.07
X178.752Y-33.02
X186.69Y-16.51
X186.69Y-54.61
X191.452Y-35.56
X193.04Y-13.97
X193.04Y-52.07
X197.802Y-33.02
X205.74Y-16.51
X205.74Y-54.61
X210.502Y-35.56
X212.09Y-13.97
X212.09Y-52.07
X215.265Y-73.66
X216.852Y-33.02
X221.615Y-71.12
X224.79Y-16.51
X224.79Y-54.61
X229.552Y-35.56
X231.14Y-13.97
X231.14Y-52.07
X234.315Y-73.66
X235.903Y-33.02
X240.665Y-71.12
X243.84Y-16.51
X246.221Y-54.61
X248.602Y-35.56
X250.19Y-13.97
X252.571Y-52.07
X253.365Y-73.66
X254.952Y-33.02
X259.715Y-71.12
X270.034Y-26.035
X270.034Y-54.61
X272.415Y-73.66
X276.384Y-23.495
X276.384Y-52.07
X278.765Y-71.12
T7
X288.725Y-11.55
X288.725Y-83.7
X314.625Y-11.55
X314.625Y-83.7
T5
X296.075Y-65.975G85X296.075Y-67.375
G05
X307.275Y-65.975G85X307.275Y-67.375
G05
T0
M30
